<svg width="1440" height="724" viewBox="0 0 1440 724" fill="none" xmlns="http://www.w3.org/2000/svg">
<g clip-path="url(#clip0)">
<rect y="0.986816" width="1440" height="726" fill="#06F0B0"/>
<path d="M1187.24 -299.657L1037.07 -172.24L1031.27 -167.319L881.072 -39.8748C875.559 -35.1958 869.178 -31.6487 862.294 -29.4361C855.41 -27.2235 848.158 -26.3888 840.951 -26.9795C833.744 -27.5703 826.724 -29.575 820.293 -32.8791C813.861 -36.1832 808.143 -40.722 803.465 -46.2363L706.732 -160.249C702.054 -165.762 698.508 -172.142 696.296 -179.026C694.083 -185.91 693.249 -193.162 693.839 -200.368C694.43 -207.574 696.435 -214.593 699.738 -221.025C703.042 -227.456 707.58 -233.174 713.094 -237.851L821.276 -329.656C826.792 -334.332 831.332 -340.05 834.636 -346.482C837.941 -352.914 839.946 -359.934 840.537 -367.141C841.128 -374.348 840.293 -381.601 838.079 -388.485C835.866 -395.369 832.318 -401.75 827.638 -407.262L730.904 -521.27C721.458 -532.409 716.822 -546.843 718.015 -561.399C719.208 -575.955 726.133 -589.441 737.267 -598.892L851.275 -695.625C862.413 -705.07 876.846 -709.706 891.401 -708.513C905.955 -707.32 919.441 -700.396 928.892 -689.263L1061.27 -533.289L1193.61 -377.288C1198.3 -371.774 1201.85 -365.391 1204.06 -358.504C1206.28 -351.617 1207.11 -344.361 1206.52 -337.151C1205.93 -329.941 1203.92 -322.919 1200.61 -316.485C1197.3 -310.052 1192.76 -304.333 1187.24 -299.657V-299.657Z" stroke="url(#paint0_linear)" stroke-opacity="0.2" stroke-width="2" stroke-miterlimit="10"/>
<path d="M1195.5 -297.156L1038.68 -164.12L1032.59 -158.936L875.759 -25.8754C870.003 -20.9891 863.34 -17.2849 856.151 -14.9743C848.962 -12.6636 841.389 -11.7918 833.863 -12.4087C826.337 -13.0256 819.007 -15.1191 812.29 -18.5695C805.574 -22.02 799.603 -26.7598 794.719 -32.5183L693.702 -151.58C688.817 -157.337 685.114 -164 682.804 -171.188C680.494 -178.376 679.623 -185.949 680.24 -193.474C680.857 -200.999 682.95 -208.328 686.399 -215.044C689.849 -221.76 694.588 -227.731 700.345 -232.616L813.317 -328.484C819.076 -333.369 823.817 -339.34 827.268 -346.056C830.719 -352.773 832.812 -360.104 833.429 -367.631C834.046 -375.157 833.174 -382.731 830.863 -389.92C828.552 -397.109 824.847 -403.773 819.96 -409.53L718.943 -528.581C709.078 -540.212 704.236 -555.285 705.482 -570.485C706.728 -585.685 713.96 -599.768 725.587 -609.637L844.644 -710.654C856.275 -720.519 871.347 -725.361 886.547 -724.115C901.748 -722.869 915.831 -715.637 925.699 -704.01L1063.92 -541.106L1202.13 -378.203C1207.02 -372.447 1210.72 -365.784 1213.04 -358.595C1215.35 -351.406 1216.22 -343.833 1215.61 -336.306C1214.99 -328.78 1212.9 -321.448 1209.45 -314.731C1206 -308.013 1201.26 -302.041 1195.5 -297.156Z" stroke="url(#paint1_linear)" stroke-opacity="0.2" stroke-width="2" stroke-miterlimit="10"/>
<path d="M1203.76 -294.631L1040.29 -155.949L1033.96 -150.57L870.476 -11.8689C864.476 -6.77466 857.53 -2.91263 850.036 -0.503526C842.542 1.90558 834.647 2.81458 826.802 2.1715C818.957 1.52842 811.315 -0.654138 804.314 -4.25143C797.312 -7.84872 791.088 -12.7903 785.997 -18.7938L680.701 -142.899C675.609 -148.9 671.749 -155.846 669.341 -163.339C666.933 -170.832 666.024 -178.726 666.667 -186.57C667.31 -194.415 669.492 -202.055 673.088 -209.056C676.684 -216.057 681.624 -222.281 687.626 -227.373L805.388 -327.306C811.391 -332.397 816.333 -338.621 819.93 -345.622C823.527 -352.624 825.71 -360.265 826.353 -368.111C826.996 -375.956 826.087 -383.851 823.678 -391.345C821.269 -398.838 817.407 -405.784 812.313 -411.785L707.011 -535.891C696.728 -548.014 691.68 -563.725 692.979 -579.569C694.278 -595.413 701.816 -610.093 713.937 -620.38L838.043 -725.676C850.166 -735.959 865.877 -741.007 881.721 -739.708C897.565 -738.409 912.245 -730.871 922.532 -718.75L1066.61 -548.945L1210.68 -379.13C1215.78 -373.129 1219.64 -366.182 1222.05 -358.686C1224.47 -351.19 1225.38 -343.292 1224.73 -335.445C1224.09 -327.597 1221.91 -319.953 1218.31 -312.95C1214.71 -305.947 1209.76 -299.722 1203.76 -294.631Z" stroke="url(#paint2_linear)" stroke-opacity="0.2" stroke-width="2" stroke-miterlimit="10"/>
<path d="M1212.01 -292.1L1041.91 -147.777L1035.32 -142.177L865.198 2.14364C858.953 7.44457 851.725 11.4632 843.926 13.97C836.128 16.4768 827.912 17.4225 819.748 16.7533C811.584 16.0841 803.632 13.813 796.346 10.0698C789.06 6.32652 782.583 1.18446 777.285 -5.06267L667.705 -134.217C657.003 -146.83 651.75 -163.177 653.102 -179.663C654.453 -196.149 662.298 -211.423 674.911 -222.125L797.458 -326.132C803.707 -331.429 808.85 -337.906 812.594 -345.192C816.338 -352.478 818.609 -360.43 819.279 -368.595C819.948 -376.759 819.002 -384.975 816.494 -392.774C813.987 -400.572 809.967 -407.8 804.665 -414.044L695.085 -543.198C684.384 -555.815 679.131 -572.164 680.483 -588.652C681.834 -605.14 689.679 -620.416 702.292 -631.121L831.441 -740.702C844.058 -751.403 860.409 -756.655 876.897 -755.304C893.386 -753.952 908.663 -746.107 919.369 -733.494L1069.31 -556.782L1219.24 -380.061C1224.55 -373.814 1228.57 -366.581 1231.08 -358.777C1233.59 -350.973 1234.53 -342.751 1233.86 -334.582C1233.19 -326.412 1230.91 -318.455 1227.17 -311.165C1223.42 -303.876 1218.27 -297.397 1212.01 -292.1V-292.1Z" stroke="url(#paint3_linear)" stroke-opacity="0.2" stroke-width="2" stroke-miterlimit="10"/>
<path d="M1220.26 -289.58L1043.5 -139.608L1036.66 -133.788L859.875 16.1976C846.77 27.3137 829.787 32.7696 812.66 31.3656C795.532 29.9617 779.664 21.8129 768.544 8.71109L654.68 -125.492C643.565 -138.598 638.11 -155.581 639.514 -172.708C640.918 -189.835 649.066 -205.703 662.167 -216.824L789.508 -324.884C795.998 -330.389 801.34 -337.118 805.228 -344.687C809.117 -352.256 811.476 -360.518 812.171 -368.999C812.866 -377.48 811.884 -386.015 809.28 -394.117C806.676 -402.218 802.501 -409.728 796.995 -416.215L683.131 -550.414C672.011 -563.523 666.553 -580.512 667.957 -597.645C669.361 -614.778 677.513 -630.652 690.62 -641.775L824.818 -755.639C837.927 -766.759 854.916 -772.217 872.049 -770.813C889.182 -769.408 905.056 -761.257 916.179 -748.15L1071.99 -564.551L1227.76 -380.93C1233.27 -374.441 1237.44 -366.929 1240.05 -358.826C1242.65 -350.722 1243.63 -342.185 1242.94 -333.701C1242.24 -325.218 1239.88 -316.955 1235.99 -309.385C1232.1 -301.814 1226.76 -295.084 1220.26 -289.58V-289.58Z" stroke="url(#paint4_linear)" stroke-opacity="0.2" stroke-width="2" stroke-miterlimit="10"/>
<path d="M1228.52 -287.054L1045.11 -131.437L1038 -125.397L854.576 30.2232C847.842 35.9382 840.049 40.2706 831.641 42.9732C823.234 45.6757 814.376 46.6954 805.574 45.9739C796.771 45.2524 788.198 42.8038 780.342 38.7681C772.487 34.7324 765.503 29.1887 759.79 22.4536L641.641 -116.779C630.103 -130.378 624.44 -148.003 625.897 -165.778C627.354 -183.552 635.812 -200.02 649.41 -211.559L781.542 -323.683C788.278 -329.395 793.823 -336.378 797.859 -344.234C801.896 -352.089 804.345 -360.663 805.066 -369.466C805.788 -378.268 804.768 -387.126 802.064 -395.534C799.361 -403.943 795.027 -411.736 789.311 -418.468L671.163 -557.715C659.626 -571.317 653.963 -588.945 655.42 -606.722C656.877 -624.498 665.335 -640.968 678.934 -652.51L818.181 -770.658C824.917 -776.375 832.714 -780.708 841.125 -783.412C849.536 -786.115 858.398 -787.135 867.203 -786.413C876.009 -785.691 884.586 -783.242 892.445 -779.205C900.303 -775.168 907.29 -769.623 913.006 -762.885L1074.67 -572.361L1236.31 -381.827C1242.02 -375.093 1246.35 -367.3 1249.06 -358.892C1251.76 -350.484 1252.77 -341.627 1252.05 -332.826C1251.33 -324.025 1248.87 -315.453 1244.84 -307.599C1240.8 -299.745 1235.25 -292.764 1228.52 -287.054V-287.054Z" stroke="url(#paint5_linear)" stroke-opacity="0.2" stroke-width="2" stroke-miterlimit="10"/>
<path d="M1236.77 -284.544L1046.7 -123.268L1039.34 -117.008L849.264 44.2677C842.287 50.1901 834.211 54.6799 825.498 57.4805C816.785 60.2812 807.606 61.3379 798.485 60.5902C789.363 59.8425 780.478 57.3051 772.338 53.1229C764.197 48.9408 756.96 43.1958 751.041 36.2162L628.614 -108.079C616.658 -122.172 610.79 -140.437 612.3 -158.856C613.81 -177.275 622.574 -194.34 636.665 -206.298L773.598 -322.51C780.577 -328.43 786.322 -335.666 790.504 -343.807C794.686 -351.947 797.223 -360.831 797.971 -369.952C798.719 -379.073 797.662 -388.252 794.861 -396.964C792.061 -405.677 787.571 -413.752 781.649 -420.729L659.216 -565.015C647.26 -579.111 641.391 -597.378 642.901 -615.799C644.411 -634.221 653.176 -651.289 667.268 -663.249L811.562 -785.656C825.657 -797.613 843.925 -803.483 862.347 -801.973C880.769 -800.462 897.836 -791.697 909.796 -777.604L1077.32 -580.172L1244.82 -382.732C1250.74 -375.757 1255.23 -367.684 1258.03 -358.974C1260.83 -350.264 1261.88 -341.089 1261.13 -331.971C1260.39 -322.853 1257.85 -313.972 1253.67 -305.834C1249.49 -297.697 1243.75 -290.462 1236.77 -284.544V-284.544Z" stroke="url(#paint6_linear)" stroke-opacity="0.2" stroke-width="2" stroke-miterlimit="10"/>
<path d="M1245.03 -282.003L1048.31 -115.097L1040.7 -108.617L843.96 58.2879C836.739 64.4175 828.381 69.0645 819.363 71.9632C810.345 74.8619 800.845 75.9555 791.405 75.1817C781.964 74.4078 772.769 71.7817 764.344 67.4532C755.919 63.1248 748.429 57.1787 742.302 49.9549L615.592 -99.3944C609.463 -106.615 604.817 -114.973 601.918 -123.99C599.02 -133.007 597.927 -142.507 598.7 -151.947C599.474 -161.387 602.1 -170.581 606.428 -179.006C610.756 -187.431 616.701 -194.92 623.925 -201.047L765.635 -321.299C772.859 -327.426 778.805 -334.916 783.133 -343.341C787.462 -351.766 790.088 -360.961 790.862 -370.402C791.636 -379.842 790.542 -389.342 787.643 -398.36C784.745 -407.377 780.098 -415.735 773.968 -422.957L647.257 -572.296C634.881 -586.883 628.806 -605.79 630.369 -624.856C631.932 -643.922 641.004 -661.586 655.591 -673.963L804.93 -800.675C819.517 -813.051 838.423 -819.126 857.49 -817.563C876.556 -816 894.22 -806.927 906.597 -792.341L1079.98 -588.003L1253.36 -383.67C1259.49 -376.449 1264.14 -368.09 1267.04 -359.072C1269.94 -350.053 1271.03 -340.552 1270.26 -331.11C1269.48 -321.669 1266.86 -312.472 1262.53 -304.046C1258.2 -295.62 1252.25 -288.13 1245.03 -282.003V-282.003Z" stroke="url(#paint7_linear)" stroke-opacity="0.2" stroke-width="2" stroke-miterlimit="10"/>
<path d="M1253.28 -279.477L1049.93 -106.925L1042.06 -100.23L838.69 72.316C831.225 78.6524 822.584 83.456 813.262 86.4523C803.94 89.4487 794.119 90.5792 784.36 89.7792C774.601 88.9792 765.095 86.2645 756.385 81.7901C747.676 77.3156 739.933 71.1691 733.599 63.7016L602.604 -90.6917C596.269 -98.1575 591.467 -106.798 588.471 -116.12C585.475 -125.442 584.345 -135.263 585.145 -145.021C585.945 -154.78 588.659 -164.286 593.133 -172.995C597.607 -181.705 603.752 -189.448 611.219 -195.783L757.714 -320.099C765.183 -326.433 771.33 -334.175 775.805 -342.885C780.28 -351.595 782.996 -361.101 783.796 -370.86C784.596 -380.62 783.465 -390.441 780.468 -399.763C777.471 -409.085 772.666 -417.726 766.328 -425.191L635.338 -579.579C622.544 -594.66 616.265 -614.205 617.881 -633.916C619.496 -653.626 628.875 -671.888 643.954 -684.685L798.337 -815.68C813.419 -828.473 832.964 -834.751 852.674 -833.136C872.384 -831.52 890.646 -822.142 903.443 -807.064L1082.68 -595.82L1261.91 -384.567C1268.25 -377.102 1273.05 -368.461 1276.04 -359.138C1279.04 -349.815 1280.17 -339.994 1279.37 -330.234C1278.57 -320.475 1275.85 -310.969 1271.37 -302.26C1266.9 -293.551 1260.75 -285.809 1253.28 -279.477V-279.477Z" stroke="url(#paint8_linear)" stroke-opacity="0.2" stroke-width="2" stroke-miterlimit="10"/>
<path d="M1261.54 -276.946L1051.53 -98.7554L1043.4 -91.8399L833.375 86.3454C825.665 92.8885 816.742 97.8488 807.115 100.943C797.488 104.037 787.346 105.204 777.267 104.378C767.189 103.552 757.372 100.749 748.378 96.1281C739.383 91.5076 731.387 85.1604 724.845 77.4491L589.572 -81.9977C583.03 -89.7069 578.07 -98.6294 574.977 -108.256C571.883 -117.882 570.716 -128.023 571.542 -138.1C572.368 -148.177 575.171 -157.993 579.791 -166.987C584.411 -175.981 590.757 -183.977 598.467 -190.517L749.772 -318.896C757.485 -325.437 763.833 -333.434 768.455 -342.429C773.076 -351.424 775.88 -361.242 776.706 -371.321C777.532 -381.4 776.365 -391.543 773.27 -401.17C770.175 -410.798 765.214 -419.721 758.669 -427.431L623.395 -586.863C610.182 -602.437 603.697 -622.621 605.366 -642.975C607.034 -663.33 616.72 -682.189 632.292 -695.403L791.724 -830.682C807.298 -843.895 827.482 -850.38 847.836 -848.711C868.191 -847.043 887.05 -837.357 900.264 -821.785L1085.36 -603.629L1270.46 -385.474C1277.01 -377.762 1281.96 -368.838 1285.06 -359.21C1288.15 -349.582 1289.31 -339.439 1288.48 -329.361C1287.65 -319.283 1284.85 -309.467 1280.23 -300.473C1275.6 -291.48 1269.25 -283.485 1261.54 -276.946V-276.946Z" stroke="url(#paint9_linear)" stroke-opacity="0.2" stroke-width="2" stroke-miterlimit="10"/>
<path d="M1269.79 -274.421L1053.12 -90.5858L1044.73 -83.4505L828.059 100.38C820.105 107.129 810.899 112.245 800.968 115.437C791.036 118.628 780.574 119.832 770.177 118.98C759.78 118.128 749.653 115.236 740.373 110.47C731.094 105.704 722.845 99.1565 716.096 91.2021L576.549 -73.2978C569.8 -81.2515 564.684 -90.4567 561.492 -100.388C558.301 -110.319 557.097 -120.781 557.949 -131.178C558.802 -141.574 561.693 -151.701 566.459 -160.98C571.225 -170.259 577.772 -178.508 585.726 -185.256L741.786 -317.702C749.742 -324.45 756.291 -332.7 761.059 -341.979C765.826 -351.259 768.718 -361.387 769.571 -371.785C770.423 -382.183 769.219 -392.646 766.026 -402.579C762.834 -412.511 757.716 -421.717 750.964 -429.67L611.406 -594.151C597.776 -610.218 591.086 -631.042 592.807 -652.041C594.529 -673.04 604.52 -692.496 620.585 -706.13L785.066 -845.688C801.133 -859.318 821.956 -866.008 842.956 -864.286C863.955 -862.565 883.411 -852.573 897.044 -836.509L1088 -611.452L1278.95 -386.391C1285.7 -378.438 1290.82 -369.233 1294.02 -359.302C1297.21 -349.37 1298.42 -338.907 1297.57 -328.509C1296.72 -318.111 1293.83 -307.982 1289.06 -298.702C1284.29 -289.421 1277.75 -281.17 1269.79 -274.421Z" stroke="url(#paint10_linear)" stroke-opacity="0.2" stroke-width="2" stroke-miterlimit="10"/>
<path d="M1278.05 -271.895L1054.74 -82.4142L1046.1 -75.0835L822.78 114.397C814.582 121.354 805.094 126.628 794.857 129.918C784.621 133.208 773.836 134.449 763.12 133.571C752.403 132.692 741.965 129.711 732.401 124.798C722.837 119.886 714.334 113.137 707.378 104.937L563.513 -64.6193C556.557 -72.8168 551.283 -82.3044 547.994 -92.5401C544.705 -102.776 543.464 -113.559 544.342 -124.274C545.22 -134.99 548.201 -145.427 553.113 -154.991C558.025 -164.554 564.774 -173.056 572.972 -180.011L733.841 -316.52C742.042 -323.475 748.792 -331.977 753.705 -341.541C758.619 -351.105 761.6 -361.544 762.479 -372.261C763.357 -382.978 762.116 -393.762 758.825 -403.999C755.535 -414.236 750.259 -423.724 743.301 -431.922L599.459 -601.451C585.41 -618.011 578.515 -639.473 580.289 -661.116C582.063 -682.76 592.361 -702.812 608.919 -716.863L778.451 -860.73C795.011 -874.779 816.472 -881.675 838.116 -879.9C859.759 -878.126 879.812 -867.828 893.863 -851.27L1090.68 -619.311L1287.49 -387.339C1294.45 -379.142 1299.74 -369.651 1303.03 -359.411C1306.33 -349.171 1307.57 -338.382 1306.7 -327.66C1305.82 -316.938 1302.84 -306.495 1297.92 -296.926C1293 -287.358 1286.25 -278.852 1278.05 -271.895V-271.895Z" stroke="url(#paint11_linear)" stroke-opacity="0.2" stroke-width="2" stroke-miterlimit="10"/>
<path d="M1286.3 -269.37L1056.34 -74.2436L1047.44 -66.6734L817.474 128.437C809.032 135.601 799.261 141.032 788.72 144.419C778.179 147.807 767.074 149.085 756.039 148.18C745.004 147.276 734.255 144.206 724.406 139.147C714.557 134.088 705.801 127.139 698.638 118.696L550.515 -55.9174C543.352 -64.3595 537.922 -74.1298 534.535 -84.6704C531.148 -95.2111 529.87 -106.316 530.774 -117.35C531.679 -128.385 534.748 -139.133 539.806 -148.981C544.865 -158.83 551.814 -167.585 560.256 -174.748L725.915 -315.32C734.359 -322.483 741.31 -331.239 746.37 -341.088C751.429 -350.937 754.499 -361.687 755.404 -372.723C756.309 -383.759 755.03 -394.865 751.642 -405.406C748.254 -415.948 742.822 -425.719 735.657 -434.161L587.53 -608.735C573.064 -625.788 565.963 -647.889 567.79 -670.177C569.617 -692.465 580.222 -713.115 597.272 -727.585L771.851 -875.711C788.904 -890.177 811.004 -897.278 833.291 -895.451C855.578 -893.624 876.227 -883.019 890.697 -865.969L1093.38 -627.099L1296.04 -388.211C1303.21 -379.769 1308.64 -369.998 1312.03 -359.456C1315.41 -348.914 1316.69 -337.808 1315.79 -326.772C1314.88 -315.736 1311.81 -304.987 1306.75 -295.138C1301.69 -285.288 1294.74 -276.532 1286.3 -269.37Z" stroke="url(#paint12_linear)" stroke-opacity="0.2" stroke-width="2" stroke-miterlimit="10"/>
<path d="M1294.55 -266.844L1057.95 -66.073L1048.77 -58.2841L812.154 142.466C803.468 149.837 793.414 155.425 782.568 158.911C771.722 162.396 760.295 163.711 748.941 162.781C737.587 161.85 726.527 158.692 716.393 153.486C706.259 148.281 697.25 141.13 689.88 132.443L537.475 -47.1889C530.104 -55.8753 524.516 -65.9287 521.03 -76.7749C517.545 -87.6211 516.23 -99.0477 517.161 -110.402C518.091 -121.757 521.249 -132.816 526.455 -142.95C531.66 -153.084 538.811 -162.093 547.498 -169.463L717.942 -314.1C726.631 -321.469 733.783 -330.477 738.99 -340.611C744.196 -350.745 747.355 -361.805 748.286 -373.16C749.217 -384.515 747.901 -395.943 744.414 -406.789C740.928 -417.635 735.338 -427.689 727.965 -436.374L575.56 -615.996C560.678 -633.542 553.374 -656.279 555.253 -679.209C557.133 -702.138 568.042 -723.383 585.583 -738.271L765.205 -890.681C782.75 -905.563 805.488 -912.867 828.417 -910.987C851.347 -909.108 872.592 -898.198 887.479 -880.658L1096.03 -634.881L1304.55 -389.101C1311.92 -380.418 1317.51 -370.367 1320.99 -359.524C1324.48 -348.68 1325.8 -337.256 1324.87 -325.903C1323.94 -314.551 1320.79 -303.492 1315.59 -293.359C1310.38 -283.225 1303.24 -274.216 1294.55 -266.844V-266.844Z" stroke="url(#paint13_linear)" stroke-opacity="0.2" stroke-width="2" stroke-miterlimit="10"/>
<path d="M1302.81 -264.319L1059.56 -57.9023L1050.14 -49.8969L806.874 156.498C797.943 164.076 787.608 169.821 776.457 173.404C765.306 176.988 753.559 178.339 741.886 177.382C730.213 176.426 718.842 173.179 708.424 167.827C698.006 162.476 688.743 155.125 681.166 146.194L524.472 -38.4824C516.894 -47.4123 511.149 -57.7474 507.565 -68.8978C503.981 -80.0482 502.629 -91.7954 503.586 -103.468C504.543 -115.141 507.79 -126.511 513.142 -136.929C518.493 -147.347 525.845 -156.609 534.776 -164.185L710.01 -312.886C718.943 -320.462 726.296 -329.723 731.649 -340.142C737.002 -350.56 740.249 -361.931 741.206 -373.605C742.163 -385.279 740.811 -397.027 737.226 -408.178C733.641 -419.329 727.895 -429.665 720.314 -438.594L563.62 -623.27C548.318 -641.309 540.807 -664.687 542.74 -688.263C544.672 -711.839 555.89 -733.682 573.925 -748.988L758.602 -905.682C776.641 -920.987 800.02 -928.5 823.598 -926.567C847.175 -924.634 869.019 -913.415 884.325 -895.377L1098.73 -642.699L1313.1 -389.987C1328.4 -371.957 1335.91 -348.588 1333.98 -325.021C1332.05 -301.454 1320.84 -279.619 1302.81 -264.319V-264.319Z" stroke="url(#paint14_linear)" stroke-opacity="0.2" stroke-width="2" stroke-miterlimit="10"/>
<path d="M1311.06 -261.793L1061.16 -49.7319L1051.48 -41.4816L801.601 170.506C763.018 203.247 705.195 198.507 672.454 159.92L511.487 -29.8098C478.745 -68.3824 483.485 -126.216 522.072 -158.947L702.095 -311.711C711.273 -319.494 718.826 -329.009 724.325 -339.713C729.824 -350.416 733.16 -362.098 734.143 -374.091C735.127 -386.084 733.737 -398.154 730.055 -409.61C726.372 -421.066 720.469 -431.684 712.682 -440.858L551.708 -630.577C535.988 -649.109 528.271 -673.126 530.257 -697.346C532.242 -721.566 543.766 -744.005 562.295 -759.729L752.015 -920.702C770.547 -936.425 794.565 -944.142 818.786 -942.156C843.007 -940.171 865.448 -928.645 881.172 -910.115L1101.43 -650.531L1321.67 -390.938C1329.46 -381.763 1335.36 -371.143 1339.04 -359.686C1342.72 -348.23 1344.11 -336.16 1343.12 -324.167C1342.14 -312.174 1338.8 -300.493 1333.3 -289.791C1327.8 -279.089 1320.24 -269.575 1311.06 -261.793Z" stroke="url(#paint15_linear)" stroke-opacity="0.2" stroke-width="2" stroke-miterlimit="10"/>
<path d="M1319.32 -259.267L1062.77 -41.5911L1052.83 -33.1457L796.276 184.53C756.667 218.141 697.307 213.276 663.695 173.662L498.439 -21.1118C464.832 -60.7151 469.698 -120.086 509.306 -153.687L694.124 -310.515C703.544 -318.506 711.298 -328.275 716.943 -339.262C722.587 -350.25 726.012 -362.243 727.021 -374.554C728.03 -386.866 726.604 -399.256 722.824 -411.016C719.045 -422.777 712.985 -433.677 704.992 -443.096L539.735 -637.864C506.124 -677.483 510.989 -736.833 550.603 -770.455L745.372 -935.707C784.99 -969.318 844.341 -964.453 877.962 -924.838L1104.08 -658.347L1330.19 -391.848C1338.18 -382.429 1344.24 -371.529 1348.02 -359.768C1351.8 -348.008 1353.23 -335.618 1352.22 -323.306C1351.21 -310.995 1347.78 -299.002 1342.14 -288.014C1336.49 -277.026 1328.74 -267.258 1319.32 -259.267V-259.267Z" stroke="url(#paint16_linear)" stroke-opacity="0.2" stroke-width="2" stroke-miterlimit="10"/>
<path d="M1327.57 -256.742L1064.38 -33.4207L1054.18 -24.7554L790.976 198.56C750.337 233.037 689.444 228.045 654.962 187.411L485.442 -12.4153C450.959 -53.0449 455.951 -113.948 496.59 -148.419L686.183 -309.317C726.828 -343.799 731.819 -404.691 697.332 -445.331L527.81 -645.127C493.328 -685.772 498.32 -746.665 538.96 -781.152L738.756 -950.674C779.4 -985.156 840.288 -980.164 874.78 -939.524L1106.76 -666.127L1338.72 -392.751C1373.21 -352.116 1368.22 -291.223 1327.57 -256.742Z" stroke="url(#paint17_linear)" stroke-opacity="0.2" stroke-width="2" stroke-miterlimit="10"/>
<path d="M1335.83 -254.216L1065.98 -25.2551L1055.54 -16.369L785.678 212.566C744.012 247.918 681.577 242.8 646.225 201.135L472.406 -3.73653C437.052 -45.3921 442.171 -107.837 483.836 -143.179L678.232 -308.12C719.908 -343.472 725.025 -405.906 689.663 -447.573L515.848 -652.434C480.496 -694.109 485.613 -756.534 527.28 -791.896L732.141 -965.717C773.816 -1001.07 836.246 -995.951 871.604 -954.285L1109.45 -673.98L1347.26 -393.669C1382.62 -352.003 1377.51 -289.588 1335.83 -254.216Z" stroke="url(#paint18_linear)" stroke-opacity="0.2" stroke-width="2" stroke-miterlimit="10"/>
<path d="M1344.08 -251.686L1067.61 -17.1031L1056.9 -7.98262L780.392 226.597C737.701 262.82 673.729 257.576 637.506 214.885L459.403 4.96493C423.177 -37.6967 428.424 -101.699 471.114 -137.911L670.297 -306.932C712.998 -343.159 718.242 -407.131 682.009 -449.823L503.884 -659.72C467.662 -702.421 472.905 -766.383 515.598 -802.616L725.508 -980.72C768.209 -1016.94 832.176 -1011.7 868.409 -969.006L1112.13 -681.794L1355.81 -394.576C1392.03 -351.885 1386.78 -287.913 1344.08 -251.686Z" stroke="url(#paint19_linear)" stroke-opacity="0.2" stroke-width="2" stroke-miterlimit="10"/>
<path d="M1352.34 -249.16L1069.19 -8.91918L1058.23 0.40166L775.076 240.642C731.337 277.753 665.848 272.385 628.751 228.647L446.369 13.6789C409.255 -30.0303 414.626 -95.5543 458.362 -132.636L662.334 -305.72C706.073 -342.832 711.442 -408.326 674.329 -452.045L491.921 -667.006C454.809 -710.745 460.177 -776.239 503.916 -813.341L718.895 -995.732C762.634 -1032.84 828.128 -1027.48 865.23 -983.737L1114.78 -689.616L1364.32 -395.486C1401.43 -351.767 1396.06 -286.258 1352.34 -249.16Z" stroke="url(#paint20_linear)" stroke-opacity="0.2" stroke-width="2" stroke-miterlimit="10"/>
<path d="M1360.59 -246.635L1070.8 -0.753743L1059.58 8.78701L769.776 254.667C725.033 292.631 657.981 287.135 620.017 242.391L433.346 22.3735C395.382 -22.36 400.879 -89.4213 445.622 -127.375L654.388 -304.523C699.142 -342.491 704.638 -409.537 666.664 -454.287L479.992 -674.289C442.029 -719.043 447.524 -786.084 492.269 -824.058L712.277 -1010.73C757.03 -1048.69 824.071 -1043.2 862.045 -998.453L1117.47 -697.43L1372.87 -396.398C1410.84 -351.669 1405.34 -284.603 1360.59 -246.635Z" stroke="url(#paint21_linear)" stroke-opacity="0.2" stroke-width="2" stroke-miterlimit="10"/>
<path d="M1368.84 -244.109L1072.39 7.42568L1060.91 17.1863L764.454 268.721C718.685 307.556 650.096 301.933 611.237 256.162L420.329 31.0738C381.494 -14.6857 387.117 -83.2891 432.886 -122.114L646.442 -303.325C692.222 -342.164 697.844 -410.752 659.001 -456.543L468.048 -681.574C429.21 -727.354 434.832 -795.937 480.608 -834.791L705.659 -1025.74C751.439 -1064.58 820.017 -1058.95 858.876 -1013.18L1120.16 -705.253L1381.4 -397.292C1420.25 -351.536 1414.63 -282.947 1368.84 -244.109Z" stroke="url(#paint22_linear)" stroke-opacity="0.2" stroke-width="2" stroke-miterlimit="10"/>
<path d="M1377.1 -241.583L1074.01 15.5774L1062.28 25.5584L759.175 282.743C712.38 322.443 642.254 316.695 602.544 269.904L407.31 39.789C367.599 -6.99694 373.348 -77.1326 420.148 -116.832L638.489 -302.108C685.3 -341.817 691.048 -411.942 651.328 -458.739L456.098 -688.839C416.389 -735.65 422.137 -805.765 468.938 -845.48L699.033 -1040.72C745.844 -1080.42 815.96 -1074.68 855.679 -1027.87L1122.82 -713.059L1389.93 -398.21C1429.66 -351.418 1423.91 -281.292 1377.1 -241.583Z" stroke="url(#paint23_linear)" stroke-opacity="0.2" stroke-width="2" stroke-miterlimit="10"/>
<path d="M1385.34 -239.059L1075.6 23.7466L1063.6 33.9425L753.856 296.748C706.035 337.323 634.367 331.448 593.792 283.627L394.274 48.4678C353.693 0.650906 359.568 -71.0219 407.394 -111.592L630.524 -300.932C678.361 -341.511 684.236 -413.174 643.646 -461.002L444.151 -696.144C403.572 -743.981 409.446 -815.633 457.273 -856.223L692.417 -1055.74C740.254 -1096.32 811.906 -1090.44 852.496 -1042.62L1125.5 -720.878L1398.46 -399.129C1439.06 -351.3 1433.19 -279.637 1385.34 -239.059Z" stroke="url(#paint24_linear)" stroke-opacity="0.2" stroke-width="2" stroke-miterlimit="10"/>
<path d="M1393.61 -236.517L1077.24 31.9147L1064.99 42.3306L748.592 310.776C699.739 352.221 626.539 346.221 585.088 297.373L381.291 57.1654C339.84 8.32758 345.841 -64.8872 394.693 -106.323L622.592 -299.718C671.455 -341.168 677.455 -414.368 635.995 -463.222L432.203 -703.429C390.753 -752.292 396.753 -825.487 445.606 -866.942L685.794 -1070.75C734.657 -1112.2 807.847 -1106.2 849.307 -1057.34L1128.17 -728.693L1407.01 -400.036C1448.47 -351.182 1442.47 -277.982 1393.61 -236.517Z" stroke="url(#paint25_linear)" stroke-opacity="0.2" stroke-width="2" stroke-miterlimit="10"/>
<path d="M1401.86 -234.007L1078.83 40.0794L1066.32 50.7152L743.277 324.8C693.399 367.116 618.661 360.99 576.34 311.116L368.259 65.8648C325.937 15.996 332.064 -58.7562 381.942 -101.062L614.677 -298.533C664.561 -340.854 670.687 -415.591 628.361 -465.47L420.254 -710.714C377.933 -760.597 384.059 -835.33 433.939 -877.661L679.18 -1085.74C729.064 -1128.06 803.801 -1121.94 846.127 -1072.06L1130.85 -736.507L1415.55 -400.939C1457.88 -351.064 1451.75 -276.327 1401.86 -234.007Z" stroke="url(#paint26_linear)" stroke-opacity="0.2" stroke-width="2" stroke-miterlimit="10"/>
<path d="M1410.12 -231.481L1080.42 48.2488L1067.65 59.0994L737.962 338.829C687.057 382.016 610.778 375.763 567.586 324.864L355.221 74.5583C312.028 23.6685 318.282 -52.6258 369.186 -95.8024L606.691 -297.339C657.601 -340.53 663.853 -416.809 620.657 -467.714L408.291 -718.005C365.1 -768.915 371.352 -845.189 422.257 -888.385L672.548 -1100.75C723.457 -1143.94 799.732 -1137.69 842.928 -1086.79L1133.51 -744.328L1424.08 -401.832C1467.29 -350.951 1461.03 -274.672 1410.12 -231.481Z" stroke="url(#paint27_linear)" stroke-opacity="0.2" stroke-width="2" stroke-miterlimit="10"/>
<path d="M1418.37 -228.961L1082.05 56.4106L1069.02 67.4766L732.678 352.847C680.747 396.904 602.931 390.525 558.869 338.599L342.218 83.2648C298.155 31.344 304.535 -46.4874 356.465 -90.5346L598.755 -296.145C650.696 -340.207 657.075 -418.023 613.003 -469.955L396.358 -725.294C352.297 -777.235 358.674 -855.041 410.606 -899.113L665.94 -1115.76C717.881 -1159.82 795.692 -1153.45 839.764 -1101.51L1136.2 -752.137L1432.63 -402.764C1476.69 -350.833 1470.31 -273.017 1418.37 -228.961Z" stroke="url(#paint28_linear)" stroke-opacity="0.2" stroke-width="2" stroke-miterlimit="10"/>
<path d="M1426.63 -226.425L1083.65 64.5813L1070.37 75.8721L727.377 366.882C674.421 411.81 595.067 405.305 550.129 352.353L329.221 91.9566C284.286 39.0348 290.793 -40.3536 343.749 -85.2763L590.828 -294.936C643.795 -339.873 650.3 -419.227 605.358 -472.189L384.429 -732.572C339.497 -785.539 346.001 -864.882 398.958 -909.825L659.32 -1130.75C712.287 -1175.68 791.636 -1169.17 836.578 -1116.22L1138.88 -759.946L1441.15 -403.663C1486.1 -350.715 1479.59 -271.362 1426.63 -226.425Z" stroke="url(#paint29_linear)" stroke-opacity="0.2" stroke-width="2" stroke-miterlimit="10"/>
<path d="M1434.89 -223.899L1085.25 72.7514L1071.71 84.2776L722.076 380.928C668.077 426.745 587.201 420.115 541.409 366.118L316.197 100.671C270.38 46.6723 277.01 -34.2085 331.007 -79.9954L582.875 -293.719C636.874 -339.536 643.504 -420.417 597.685 -474.386L372.472 -739.817C326.655 -793.816 333.285 -874.697 387.281 -920.484L652.713 -1145.7C706.712 -1191.51 787.593 -1184.88 833.38 -1130.89L1141.54 -767.711L1449.68 -404.522C1495.51 -350.597 1488.88 -269.707 1434.89 -223.899Z" stroke="url(#paint30_linear)" stroke-opacity="0.2" stroke-width="2" stroke-miterlimit="10"/>
<path d="M1443.14 -221.373L1086.86 80.917L1073.06 92.6481L716.777 394.938C661.769 441.607 579.356 434.852 532.657 379.846L303.176 109.351C256.496 54.3572 263.253 -28.0708 318.267 -74.7541L574.926 -292.542C629.945 -339.22 636.7 -421.628 590.018 -476.662L360.522 -747.143C313.844 -802.162 320.598 -884.565 375.615 -931.268L646.095 -1160.76C701.114 -1207.44 783.517 -1200.69 830.22 -1145.67L1144.24 -775.589L1458.24 -405.493C1504.92 -350.489 1498.16 -268.051 1443.14 -221.373Z" stroke="url(#paint31_linear)" stroke-opacity="0.2" stroke-width="2" stroke-miterlimit="10"/>
<path d="M1451.39 -218.848L1088.47 89.0825L1074.42 101.035L711.477 408.964C655.443 456.503 571.483 449.621 523.923 393.59L290.148 118.051C242.598 62.0254 249.481 -21.9446 305.522 -69.4934L566.97 -291.345C623.015 -338.894 629.897 -422.849 582.344 -478.904L348.563 -754.429C301.015 -810.474 307.896 -894.424 363.938 -941.992L639.467 -1175.77C695.512 -1223.32 779.462 -1216.44 827.026 -1160.39L1146.91 -783.41L1466.77 -406.407C1514.32 -350.367 1507.44 -266.376 1451.39 -218.848Z" stroke="url(#paint32_linear)" stroke-opacity="0.2" stroke-width="2" stroke-miterlimit="10"/>
<path d="M1459.65 -216.322L1090.07 97.2531L1075.76 109.419L706.177 422.994C649.117 471.404 563.61 464.395 515.19 407.339L277.131 126.746C228.711 69.6947 235.72 -15.8225 292.785 -64.2269L559.004 -290.149C616.08 -338.568 623.088 -424.07 574.66 -481.142L336.599 -761.715C288.181 -818.786 295.189 -904.283 352.256 -952.712L632.829 -1190.78C689.905 -1239.2 775.397 -1232.19 823.832 -1175.12L1149.59 -791.223L1475.31 -407.295C1523.73 -350.249 1516.72 -264.741 1459.65 -216.322Z" stroke="url(#paint33_linear)" stroke-opacity="0.2" stroke-width="2" stroke-miterlimit="10"/>
<path d="M1467.9 -213.797L1091.68 105.419L1077.1 117.789L700.872 437.019C642.781 486.299 555.732 479.163 506.446 421.082L264.105 135.43C214.814 77.3529 221.95 -9.71135 280.041 -58.9812L551.07 -288.986C609.172 -338.275 616.308 -425.324 567.008 -483.412L324.664 -769.034C275.375 -827.136 282.509 -914.175 340.602 -963.47L626.224 -1205.81C684.326 -1255.1 771.365 -1247.97 820.66 -1189.88L1152.26 -799.074L1483.84 -408.259C1533.14 -350.13 1526 -263.086 1467.9 -213.797Z" stroke="url(#paint34_linear)" stroke-opacity="0.2" stroke-width="2" stroke-miterlimit="10"/>
<path d="M1476.15 -211.271L1093.3 113.571L1078.47 126.177L695.595 451.017C636.478 501.167 547.881 493.905 497.735 434.798L251.087 144.126C200.925 85.0225 208.189 -3.58895 267.305 -53.7194L543.122 -287.768C602.25 -337.928 609.513 -426.524 559.342 -485.633L312.719 -776.303C262.559 -835.431 269.821 -924.018 328.938 -974.173L619.609 -1220.8C678.737 -1270.96 767.324 -1263.7 817.479 -1204.58L1154.94 -806.878L1492.38 -409.156C1542.54 -350.012 1535.28 -261.431 1476.15 -211.271Z" stroke="url(#paint35_linear)" stroke-opacity="0.2" stroke-width="2" stroke-miterlimit="10"/>
<path d="M1484.41 -208.746L1094.89 121.755L1079.8 134.586L690.283 465.072C630.134 516.097 539.996 508.708 488.979 448.571L238.073 152.841C187.041 92.7124 194.432 2.55355 254.573 -48.4424L535.18 -286.555C595.334 -337.585 602.723 -427.729 551.681 -487.853L300.774 -783.568C249.739 -843.722 257.127 -933.856 317.275 -984.876L612.989 -1235.78C673.144 -1286.82 763.278 -1279.43 814.293 -1219.28L1157.61 -814.672L1500.91 -410.044C1551.95 -349.899 1544.56 -259.776 1484.41 -208.746Z" stroke="url(#paint36_linear)" stroke-opacity="0.2" stroke-width="2" stroke-miterlimit="10"/>
<path d="M1492.68 -206.219L1096.5 129.921L1081.15 142.962L684.983 479.102C623.808 530.993 532.148 523.479 480.245 462.319L225.045 161.545C173.138 100.39 180.652 8.71423 241.826 -43.1718L527.223 -285.348C588.398 -337.249 595.912 -428.91 544.005 -490.081L288.805 -790.855C236.9 -852.035 244.415 -943.716 305.588 -995.597L606.362 -1250.8C667.537 -1302.7 759.193 -1295.19 811.104 -1234.01L1160.29 -822.487L1509.46 -410.951C1561.36 -349.782 1553.84 -258.121 1492.68 -206.219Z" stroke="url(#paint37_linear)" stroke-opacity="0.2" stroke-width="2" stroke-miterlimit="10"/>
<path d="M1500.92 -203.694L1098.09 138.1L1082.52 151.349L679.691 493.143C617.491 545.905 524.293 538.265 471.516 476.079L212.047 170.252C159.269 108.071 166.91 14.8527 229.11 -37.9038L519.291 -284.145C581.497 -336.916 589.137 -430.114 536.355 -492.316L276.877 -798.143C224.1 -860.344 231.739 -953.537 293.941 -1006.32L599.748 -1265.79C661.954 -1318.57 755.147 -1310.93 807.929 -1248.73L1162.99 -830.305L1518.01 -411.864C1570.76 -349.664 1563.12 -256.466 1500.92 -203.694Z" stroke="url(#paint38_linear)" stroke-opacity="0.2" stroke-width="2" stroke-miterlimit="10"/>
<path d="M1509.18 -201.169L1099.71 146.257L1083.85 159.733L674.378 507.153C611.151 560.79 516.416 553.024 462.768 489.807L198.996 178.93C145.352 115.723 153.119 20.9675 216.342 -32.6799L511.337 -282.963C574.569 -336.604 582.334 -431.34 528.682 -494.572L264.929 -805.433C211.282 -868.665 219.047 -963.391 282.275 -1017.04L593.131 -1280.8C656.363 -1334.45 751.093 -1326.68 804.74 -1263.46L1165.64 -838.121L1526.52 -412.774C1580.17 -349.546 1572.41 -254.81 1509.18 -201.169Z" stroke="url(#paint39_linear)" stroke-opacity="0.2" stroke-width="2" stroke-miterlimit="10"/>
<path d="M1517.43 -198.638L1101.32 154.422L1085.2 168.119L669.083 521.184C604.824 575.706 508.552 567.814 454.04 503.556L186.013 187.633C131.491 123.374 139.382 27.1066 203.639 -27.3956L503.405 -281.759C567.664 -336.281 575.555 -432.553 521.032 -496.802L253.003 -812.696C198.481 -876.955 206.372 -973.222 270.631 -1027.74L586.525 -1295.77C650.784 -1350.3 747.051 -1342.4 801.573 -1278.15L1168.33 -845.909L1535.07 -413.655C1589.58 -349.433 1581.69 -253.155 1517.43 -198.638Z" stroke="url(#paint40_linear)" stroke-opacity="0.2" stroke-width="2" stroke-miterlimit="10"/>
<path d="M1525.68 -196.113L1102.93 162.588L1086.55 176.504L663.783 535.209C598.505 590.582 500.691 582.564 445.301 517.3L172.981 196.327C117.591 131.067 125.61 33.2378 190.888 -22.1353L495.442 -280.543C560.747 -335.939 568.766 -433.758 513.353 -499.044L241.031 -819.998C185.643 -885.282 193.661 -983.087 258.94 -1038.48L579.894 -1310.8C645.178 -1366.19 742.983 -1358.17 798.376 -1292.89L1171 -853.755L1543.59 -414.595C1598.99 -349.31 1590.97 -251.49 1525.68 -196.113Z" stroke="url(#paint41_linear)" stroke-opacity="0.2" stroke-width="2" stroke-miterlimit="10"/>
<path d="M1533.94 -193.587L1104.55 170.76L1087.91 184.896L658.503 549.237C592.194 605.485 492.847 597.341 436.588 531.046L159.983 205.029C103.723 138.738 111.868 39.3716 178.172 -16.8671L487.518 -279.363C553.828 -335.622 561.972 -434.973 505.708 -501.279L229.102 -827.281C172.844 -893.592 180.988 -992.938 247.294 -1049.2L573.296 -1325.81C639.606 -1382.07 738.948 -1373.92 795.216 -1307.62L1173.69 -861.583L1552.14 -415.517C1608.4 -349.196 1600.26 -249.845 1533.94 -193.587Z" stroke="url(#paint42_linear)" stroke-opacity="0.2" stroke-width="2" stroke-miterlimit="10"/>
<path d="M1542.18 -191.062L1106.12 178.923L1089.24 193.28L653.173 563.265C585.838 620.378 484.954 612.109 427.819 544.792L146.936 213.721C89.8 146.41 98.0716 45.5009 165.406 -11.6079L479.542 -278.168C546.878 -335.297 555.148 -436.186 498.014 -503.517L217.124 -834.569C159.995 -901.905 168.265 -1002.79 235.596 -1059.92L566.658 -1340.82C633.995 -1397.95 734.879 -1389.68 792.013 -1322.35L1176.35 -869.394L1560.65 -416.412C1617.8 -349.079 1609.53 -248.19 1542.18 -191.062Z" stroke="url(#paint43_linear)" stroke-opacity="0.2" stroke-width="2" stroke-miterlimit="10"/>
<path d="M1550.45 -188.536L1107.73 187.088L1090.58 201.665L647.883 577.291C579.522 635.275 477.096 626.879 419.095 558.537L133.926 222.447C75.9201 154.105 84.3177 51.6587 152.678 -6.32055L471.598 -276.945C539.966 -334.944 548.362 -437.37 490.352 -505.733L205.183 -841.828C147.185 -910.195 155.58 -1012.61 223.938 -1070.62L560.032 -1355.79C628.4 -1413.79 730.821 -1405.4 788.825 -1337.04L1179.03 -877.178L1569.2 -417.299C1627.21 -348.961 1618.81 -246.535 1550.45 -188.536Z" stroke="url(#paint44_linear)" stroke-opacity="0.2" stroke-width="2" stroke-miterlimit="10"/>
<path d="M1558.7 -186.01L1109.35 195.26L1091.94 210.037L642.585 591.302C573.197 650.162 469.234 641.64 410.358 572.266L120.907 231.102C62.0349 161.739 70.559 57.751 139.941 -1.09916L463.655 -275.787C533.049 -334.657 541.571 -438.625 482.691 -508.009L193.237 -849.138C134.367 -918.531 142.889 -1022.49 212.272 -1081.36L553.416 -1370.82C622.81 -1429.69 726.768 -1421.17 785.643 -1351.78L1181.7 -885.018L1577.74 -418.232C1636.61 -348.848 1628.09 -244.88 1558.7 -186.01Z" stroke="url(#paint45_linear)" stroke-opacity="0.2" stroke-width="2" stroke-miterlimit="10"/>
<path d="M1566.96 -183.485L1110.95 203.426L1093.29 218.437L637.282 605.362C566.869 665.088 461.369 656.44 401.622 586.045L107.888 239.817C48.146 169.423 56.7956 63.9029 127.204 4.17722L455.733 -274.573C526.152 -334.313 534.801 -439.818 475.05 -510.233L181.287 -856.413C121.547 -926.832 130.195 -1032.33 200.605 -1092.08L546.823 -1385.82C617.242 -1445.56 722.738 -1436.91 782.488 -1366.5L1184.4 -892.831L1586.3 -419.143C1646.05 -348.728 1637.4 -243.223 1566.96 -183.485Z" stroke="url(#paint46_linear)" stroke-opacity="0.2" stroke-width="2" stroke-miterlimit="10"/>
<path d="M1575.21 -180.934L1112.56 211.616L1094.63 226.838L631.982 619.388C560.543 679.984 453.501 671.209 392.883 599.789L94.8694 248.528C34.2515 177.112 43.0275 70.0496 114.465 9.46877L447.76 -273.352C519.2 -333.968 527.974 -441.006 467.359 -512.446L169.34 -863.708C108.724 -935.153 117.498 -1042.19 188.939 -1102.81L540.18 -1400.83C611.621 -1461.44 718.658 -1452.67 779.279 -1381.23L1187.05 -900.638L1594.82 -420.047C1655.43 -348.612 1646.66 -241.574 1575.21 -180.934Z" stroke="url(#paint47_linear)" stroke-opacity="0.2" stroke-width="2" stroke-miterlimit="10"/>
<path d="M1583.47 -178.433L1114.17 219.762L1095.99 235.209L626.684 633.398C554.218 694.87 445.639 685.969 384.131 613.516L81.8327 257.211C20.3448 184.765 29.2468 76.1652 101.712 14.6988L439.796 -272.181C512.262 -333.668 521.162 -442.242 459.678 -514.734L157.391 -870.993C95.905 -943.464 104.805 -1052.04 177.273 -1113.54L533.563 -1415.84C606.03 -1477.33 714.604 -1468.43 776.116 -1395.96L1189.76 -908.48L1603.37 -420.974C1664.84 -348.494 1655.94 -239.919 1583.47 -178.433Z" stroke="url(#paint48_linear)" stroke-opacity="0.2" stroke-width="2" stroke-miterlimit="10"/>
<path d="M1591.72 -175.908L1115.77 227.927L1097.34 243.594L621.384 647.424C547.893 709.766 437.776 700.739 375.418 627.262L68.8354 265.908C6.47696 192.435 15.505 82.2987 88.9959 19.9618L431.864 -270.978C505.362 -333.334 514.388 -443.451 452.026 -516.944L145.443 -878.282C83.0859 -951.775 92.1119 -1061.89 165.605 -1124.25L526.939 -1430.83C600.436 -1493.19 710.548 -1484.16 772.91 -1410.67L1192.41 -916.281L1611.88 -421.874C1674.24 -348.381 1665.22 -238.264 1591.72 -175.908Z" stroke="url(#paint49_linear)" stroke-opacity="0.2" stroke-width="2" stroke-miterlimit="10"/>
<path d="M1599.97 -173.378L1117.38 236.093L1098.68 251.979L616.084 661.454C541.565 724.682 429.906 715.529 366.679 641.011L55.8128 274.608C-7.41453 200.089 1.73828 88.4303 76.2547 25.2279L423.918 -269.78C498.437 -333.007 507.589 -444.666 444.362 -519.185L133.514 -885.566C70.2869 -960.084 79.4393 -1071.74 153.958 -1134.97L520.341 -1445.84C594.859 -1509.07 706.513 -1499.91 769.746 -1425.39L1195.11 -924.099L1620.44 -422.781C1683.65 -348.263 1674.5 -236.605 1599.97 -173.378Z" stroke="url(#paint50_linear)" stroke-opacity="0.2" stroke-width="2" stroke-miterlimit="10"/>
<path d="M1608.23 -170.852L1119 244.249L1100.04 260.356L610.811 675.457C535.263 739.54 422.072 730.261 357.973 654.732L42.7951 283.308C-21.3044 207.784 -12.0239 94.5675 63.5185 30.4946L415.971 -268.577C491.521 -332.68 500.8 -445.871 436.697 -521.416L121.551 -892.852C57.4483 -968.402 66.7263 -1081.59 142.276 -1145.69L513.703 -1460.84C589.252 -1524.94 702.443 -1515.66 766.546 -1440.12L1197.76 -931.915L1628.95 -423.69C1693.06 -348.13 1683.78 -234.954 1608.23 -170.852Z" stroke="url(#paint51_linear)" stroke-opacity="0.2" stroke-width="2" stroke-miterlimit="10"/>
<path d="M1616.49 -168.326L1120.59 252.429L1101.38 268.75L605.484 689.506C528.91 754.459 414.182 745.054 349.207 668.498L29.7778 292.003C-35.1922 215.453 -25.7858 100.699 50.783 35.751L408.026 -267.385C484.602 -332.358 494.006 -447.086 429.033 -523.662L109.587 -900.138C44.6142 -976.714 54.0186 -1091.44 130.594 -1156.42L507.084 -1475.84C583.66 -1540.81 698.388 -1531.4 763.361 -1454.83L1200.46 -939.718L1637.51 -424.572C1702.47 -348.027 1693.06 -233.299 1616.49 -168.326Z" stroke="url(#paint52_linear)" stroke-opacity="0.2" stroke-width="2" stroke-miterlimit="10"/>
<path d="M1624.74 -165.82L1122.2 260.575L1102.73 277.117L600.186 703.516C522.586 769.335 406.315 759.804 340.475 682.228L16.7603 300.698C-49.0852 223.122 -39.5528 106.831 38.047 41.0127L400.081 -266.207C477.683 -332.051 487.213 -448.316 421.37 -525.918L97.6534 -907.422C31.8099 -985.024 41.3403 -1101.29 118.942 -1167.13L500.466 -1490.85C578.068 -1556.69 694.334 -1547.16 760.177 -1469.56L1203.12 -947.549L1646.03 -425.511C1711.87 -347.909 1702.34 -231.644 1624.74 -165.82Z" stroke="url(#paint53_linear)" stroke-opacity="0.2" stroke-width="2" stroke-miterlimit="10"/>
<path d="M1632.99 -163.275L1123.78 268.779L1104.06 285.541L594.851 717.594C516.225 784.288 398.418 774.631 331.702 696.023L3.74261 309.399C-62.9734 230.796 -53.3146 112.963 25.3112 46.2742L392.143 -264.989C470.776 -331.702 480.433 -449.51 413.714 -528.133L85.7049 -914.707C18.9909 -993.335 28.6477 -1111.14 107.276 -1177.86L493.858 -1505.85C572.491 -1572.56 690.293 -1562.91 757.008 -1484.28L1205.81 -955.362L1654.58 -426.418C1721.28 -347.797 1711.62 -229.989 1632.99 -163.275Z" stroke="url(#paint54_linear)" stroke-opacity="0.2" stroke-width="2" stroke-miterlimit="10"/>
<path d="M1641.25 -160.75L1125.41 276.93L1105.43 293.913L589.585 731.582C509.933 799.147 390.588 789.364 323.002 709.73L-9.2746 318.094C-76.8612 238.465 -67.0763 119.095 12.5755 51.5356L384.182 -263.793C463.841 -331.377 473.624 -450.721 406.034 -530.376L73.7572 -922.002C6.17309 -1001.66 15.9555 -1121 95.6093 -1188.59L487.226 -1520.87C566.885 -1588.45 686.225 -1578.67 753.814 -1499.02L1208.47 -963.188L1663.1 -427.343C1730.69 -347.678 1720.91 -228.334 1641.25 -160.75Z" stroke="url(#paint55_linear)" stroke-opacity="0.2" stroke-width="2" stroke-miterlimit="10"/>
<path d="M1649.52 -158.222L1127.03 285.098L1106.79 302.3L584.284 745.618C503.607 814.048 382.72 804.139 314.282 723.486L-22.2974 326.794C-90.7545 246.139 -80.8432 125.227 -0.165056 56.7919L376.236 -262.6C456.921 -331.054 466.83 -451.936 398.369 -532.602L61.8078 -929.277C-6.64688 -1009.96 3.26154 -1130.84 83.9401 -1199.28L480.605 -1535.84C561.29 -1604.3 682.167 -1594.39 750.607 -1513.71L1211.15 -970.998L1671.66 -428.239C1740.1 -347.56 1730.19 -226.678 1649.52 -158.222Z" stroke="url(#paint56_linear)" stroke-opacity="0.2" stroke-width="2" stroke-miterlimit="10"/>
<path d="M1657.76 -155.698L1128.62 293.262L1108.1 310.672L578.964 759.642C497.26 828.948 374.836 818.912 305.509 737.226L-35.3339 335.477C-104.662 253.797 -94.6242 131.347 -12.9205 62.0468L368.272 -261.424C449.978 -330.749 460.013 -453.169 390.687 -534.874L49.8591 -936.562C-19.466 -1018.27 -9.4312 -1140.69 72.2746 -1210.02L473.989 -1550.86C555.695 -1620.19 678.114 -1610.15 747.444 -1528.45L1213.82 -978.812L1680.17 -429.149C1749.5 -347.443 1739.47 -225.024 1657.76 -155.698Z" stroke="url(#paint57_linear)" stroke-opacity="0.2" stroke-width="2" stroke-miterlimit="10"/>
<path d="M1666.01 -153.173L1130.23 301.432L1109.47 319.069L573.685 773.669C490.95 843.845 366.993 833.684 296.796 750.972L-48.3309 344.169C-118.529 261.457 -108.366 137.476 -25.636 67.305L360.345 -260.22C443.077 -330.416 453.238 -454.372 383.042 -537.109L37.9106 -943.847C-32.2851 -1026.58 -22.1243 -1150.54 60.6079 -1220.74L467.371 -1565.87C550.103 -1636.07 674.059 -1625.91 744.26 -1543.17L1216.5 -986.626L1688.71 -430.062C1758.91 -347.325 1748.75 -223.369 1666.01 -153.173Z" stroke="url(#paint58_linear)" stroke-opacity="0.2" stroke-width="2" stroke-miterlimit="10"/>
<path d="M1674.27 -150.647L1131.85 309.599L1110.84 327.472L568.385 787.695C484.624 858.741 359.13 848.454 288.057 764.716L-61.3499 352.885C-132.419 269.152 -122.129 143.628 -38.3736 72.5868L352.392 -259.002C436.155 -330.068 446.442 -455.567 375.371 -539.325L25.9619 -951.132C-45.1043 -1034.89 -34.8171 -1160.39 48.9406 -1231.46L460.748 -1580.87C544.51 -1651.94 670.009 -1641.65 741.075 -1557.89L1219.18 -994.446L1697.25 -430.97C1768.31 -347.212 1758.03 -221.718 1674.27 -150.647Z" stroke="url(#paint59_linear)" stroke-opacity="0.2" stroke-width="2" stroke-miterlimit="10"/>
<path d="M1682.52 -148.116L1133.44 317.763L1112.17 335.841L563.085 801.725C478.306 873.658 351.261 863.244 279.323 778.465L-74.3834 361.593C-146.316 276.815 -135.902 149.77 -51.1252 77.857L344.43 -257.791C429.208 -329.724 439.622 -456.769 367.69 -541.552L13.9838 -958.424C-57.9488 -1043.2 -47.5347 -1170.25 37.2444 -1242.19L454.116 -1595.9C538.894 -1667.83 665.94 -1657.42 737.883 -1572.64L1221.85 -1002.24L1705.78 -431.878C1777.72 -347.094 1767.31 -220.058 1682.52 -148.116Z" stroke="url(#paint60_linear)" stroke-opacity="0.2" stroke-width="2" stroke-miterlimit="10"/>
<path d="M1690.78 -145.591L1135.04 325.933L1113.5 344.225L557.785 815.751C471.972 888.538 343.399 877.999 270.585 792.209L-87.385 370.28C-160.2 284.495 -149.658 155.892 -63.8454 83.1096L336.5 -256.602C422.315 -329.415 432.854 -457.987 360.042 -543.802L2.06506 -965.707C-70.7422 -1051.52 -60.2033 -1180.09 25.6072 -1252.91L447.511 -1610.88C533.326 -1683.69 661.899 -1673.15 734.711 -1587.34L1224.53 -1010.06L1714.32 -432.806C1787.13 -346.951 1776.59 -218.403 1690.78 -145.591Z" stroke="url(#paint61_linear)" stroke-opacity="0.2" stroke-width="2" stroke-miterlimit="10"/>
<path d="M1699.03 -143.066L1136.65 334.1L1114.87 352.612L552.485 829.777C465.646 903.434 335.536 892.769 261.851 805.953L-100.407 378.975C-174.087 292.164 -163.42 162.024 -76.586 88.371L328.554 -255.405C415.395 -329.087 426.06 -459.197 352.377 -546.038L-9.88328 -972.992C-83.561 -1059.83 -72.8958 -1189.94 13.9403 -1263.63L440.893 -1625.88C527.734 -1699.56 657.844 -1688.9 731.527 -1602.06L1227.21 -1017.87L1722.85 -433.699C1796.54 -346.858 1785.87 -216.748 1699.03 -143.066Z" stroke="url(#paint62_linear)" stroke-opacity="0.2" stroke-width="2" stroke-miterlimit="10"/>
<path d="M1707.28 -140.54L1138.26 342.265L1116.21 360.998L547.185 843.807C459.32 918.336 327.668 907.544 253.112 819.702L-113.42 387.676C-187.976 299.839 -177.182 168.161 -89.317 93.633L320.612 -254.206C408.48 -328.76 419.271 -460.412 344.718 -548.274L-21.8178 -980.265C-96.3711 -1068.13 -85.5798 -1199.78 2.28763 -1274.34L434.279 -1640.87C522.146 -1715.43 653.793 -1704.64 728.346 -1616.77L1229.88 -1025.69L1731.39 -434.607C1805.94 -346.745 1795.15 -215.093 1707.28 -140.54Z" stroke="url(#paint63_linear)" stroke-opacity="0.2" stroke-width="2" stroke-miterlimit="10"/>
<path d="M1715.54 -138.014L1139.87 350.436L1117.56 369.383L541.885 857.833C452.994 933.231 319.805 922.314 244.379 833.446L-126.442 396.37C-201.869 307.507 -190.949 174.293 -102.058 98.8938L312.656 -253.01C401.554 -328.433 412.472 -461.623 337.043 -550.516L-33.7805 -987.562C-109.204 -1076.45 -98.2867 -1209.64 -9.39363 -1285.07L427.652 -1655.89C516.55 -1731.32 649.734 -1720.4 725.163 -1631.5L1232.56 -1033.51L1739.92 -435.52C1815.36 -346.647 1804.44 -213.438 1715.54 -138.014Z" stroke="url(#paint64_linear)" stroke-opacity="0.2" stroke-width="2" stroke-miterlimit="10"/>
<path d="M1723.79 -135.489L1141.47 358.601L1118.91 377.769L536.605 871.86C446.688 948.129 311.962 937.085 235.661 847.191L-139.46 405.07C-215.756 315.176 -204.711 180.425 -114.794 104.156L304.71 -251.812C394.634 -328.106 405.678 -462.833 329.379 -552.757L-45.7237 -994.851C-122.023 -1084.77 -110.979 -1219.5 -21.0549 -1295.8L421.034 -1670.9C510.958 -1747.19 645.68 -1736.15 721.979 -1646.23L1235.24 -1041.33L1748.46 -436.428C1824.76 -346.509 1813.72 -211.783 1723.79 -135.489Z" stroke="url(#paint65_linear)" stroke-opacity="0.2" stroke-width="2" stroke-miterlimit="10"/>
<path d="M1732.05 -132.963L1143.07 366.766L1120.26 386.154L531.285 885.889C440.342 963.029 304.074 951.858 226.907 860.938L-152.452 413.767C-229.625 322.852 -218.453 186.559 -127.505 109.424L296.789 -250.613C387.739 -327.777 398.909 -464.041 321.739 -554.991L-57.6744 -1002.11C-134.844 -1093.06 -123.675 -1229.32 -32.7242 -1306.49L414.412 -1685.85C505.366 -1763.07 641.645 -1751.9 718.795 -1660.96L1237.9 -1049.15L1757.01 -437.346C1834.17 -346.391 1823 -210.128 1732.05 -132.963Z" stroke="url(#paint66_linear)" stroke-opacity="0.2" stroke-width="2" stroke-miterlimit="10"/>
<path d="M1740.3 -130.437L1144.7 374.923L1121.63 394.531L526.017 899.892C434.043 977.902 296.243 966.606 218.205 874.66L-165.497 422.491C-243.54 330.544 -232.241 192.713 -140.268 114.708L288.816 -249.392C380.792 -327.427 392.087 -465.228 314.047 -557.204L-69.6234 -1009.39C-147.663 -1101.37 -136.368 -1239.17 -44.3913 -1317.21L407.796 -1700.88C499.772 -1778.91 637.572 -1767.62 715.608 -1675.65L1240.59 -1056.97L1765.54 -438.249C1843.57 -346.273 1832.28 -208.473 1740.3 -130.437Z" stroke="url(#paint67_linear)" stroke-opacity="0.2" stroke-width="2" stroke-miterlimit="10"/>
<path d="M1748.56 -127.912L1146.29 383.103L1122.96 402.931L520.686 913.94C427.686 992.82 288.348 981.399 209.435 888.426L-178.517 431.161C-257.426 338.194 -246.001 198.821 -153.007 119.945L280.872 -248.219C373.869 -327.125 385.291 -466.468 306.385 -559.465L-81.57 -1016.7C-160.48 -1109.7 -149.059 -1249.04 -56.0564 -1327.95L401.179 -1715.91C494.176 -1794.81 633.519 -1783.39 712.425 -1690.39L1243.27 -1064.79L1774.07 -439.157C1852.98 -346.16 1841.56 -206.832 1748.56 -127.912Z" stroke="url(#paint68_linear)" stroke-opacity="0.2" stroke-width="2" stroke-miterlimit="10"/>
<path d="M1756.81 -125.386L1147.89 391.268L1124.3 411.316L515.385 927.981C421.359 1007.73 280.479 996.183 200.7 902.185L-191.536 439.871C-271.314 345.873 -259.764 204.968 -165.743 125.216L272.92 -247.012C366.948 -326.788 378.496 -467.668 298.715 -561.697L-93.5186 -1023.99C-173.3 -1118.01 -161.751 -1258.89 -67.7231 -1338.68L394.556 -1730.91C488.585 -1810.69 629.465 -1799.14 709.246 -1705.11L1245.94 -1072.61L1782.61 -440.071C1862.37 -346.043 1850.83 -205.163 1756.81 -125.386Z" stroke="url(#paint69_linear)" stroke-opacity="0.2" stroke-width="2" stroke-miterlimit="10"/>
<path d="M1765.07 -122.855L1149.48 399.457L1125.63 419.72L510.042 942.033C415.004 1022.67 272.572 1011 191.919 915.956L-204.552 448.556C-285.19 353.518 -273.515 211.091 -178.478 130.468L264.964 -245.82C360.002 -326.458 371.677 -468.89 291.041 -563.944L-105.467 -1031.27C-186.105 -1126.31 -174.429 -1268.74 -79.3901 -1349.39L387.928 -1745.91C482.966 -1826.55 625.399 -1814.88 706.051 -1719.84L1248.62 -1080.43L1791.14 -440.979C1871.79 -345.924 1860.12 -203.507 1765.07 -122.855Z" stroke="url(#paint70_linear)" stroke-opacity="0.2" stroke-width="2" stroke-miterlimit="10"/>
<path d="M1773.32 -120.331L1151.11 407.604L1127 428.087L504.786 956.021C408.708 1037.51 264.754 1025.71 183.229 929.663L-217.57 457.256C-299.095 361.205 -287.292 217.221 -191.214 135.729L257.028 -244.623C353.108 -326.145 364.908 -470.099 283.386 -566.179L-117.416 -1038.56C-198.937 -1134.64 -187.138 -1278.59 -91.0569 -1360.12L381.32 -1760.92C477.401 -1842.44 621.355 -1830.64 702.877 -1734.56L1251.29 -1088.25L1799.68 -441.887C1881.2 -345.807 1869.4 -201.853 1773.32 -120.331Z" stroke="url(#paint71_linear)" stroke-opacity="0.2" stroke-width="2" stroke-miterlimit="10"/>
<path d="M1781.57 -117.795L1152.71 415.77L1128.35 436.473L499.486 970.047C402.382 1052.41 256.891 1040.48 174.491 943.407L-230.588 465.951C-312.978 368.88 -301.049 223.354 -203.95 140.991L249.101 -243.413C346.207 -325.806 358.134 -471.302 275.741 -568.408L-129.364 -1045.84C-211.756 -1142.95 -199.83 -1288.44 -102.724 -1370.84L374.702 -1775.92C471.808 -1858.31 617.3 -1846.39 699.692 -1749.28L1253.98 -1096.07L1808.21 -442.8C1890.61 -345.693 1878.69 -200.197 1781.57 -117.795Z" stroke="url(#paint72_linear)" stroke-opacity="0.2" stroke-width="2" stroke-miterlimit="10"/>
<path d="M1789.83 -115.279L1154.32 423.941L1129.7 444.858L494.186 984.078C396.056 1067.31 249.022 1055.26 165.757 957.156L-243.61 474.651C-326.876 376.549 -314.821 229.485 -216.692 146.257L241.135 -242.222C339.267 -325.485 351.32 -472.519 268.057 -570.651L-141.312 -1053.13C-224.576 -1151.26 -212.523 -1298.29 -114.391 -1381.56L368.084 -1790.92C466.216 -1874.19 613.245 -1862.14 696.513 -1764L1256.65 -1103.89L1816.75 -443.708C1900.02 -345.575 1887.97 -198.542 1789.83 -115.279Z" stroke="url(#paint73_linear)" stroke-opacity="0.2" stroke-width="2" stroke-miterlimit="10"/>
<path d="M1798.09 -112.753L1155.93 432.106L1131.05 453.244L488.886 998.103C389.73 1082.21 241.159 1070.03 157.023 970.9L-256.628 483.351C-340.764 384.223 -328.583 235.622 -229.427 151.519L233.184 -241.025C332.347 -325.158 344.526 -473.729 260.389 -572.912L-153.261 -1060.42C-237.395 -1159.57 -225.216 -1308.15 -126.058 -1392.28L361.461 -1805.93C460.624 -1890.07 609.19 -1877.89 693.348 -1778.72L1259.33 -1111.71L1825.29 -444.616C1909.42 -345.468 1897.25 -196.887 1798.09 -112.753Z" stroke="url(#paint74_linear)" stroke-opacity="0.2" stroke-width="2" stroke-miterlimit="10"/>
<path d="M1806.37 -110.235L1157.53 440.272L1132.39 461.63L483.586 1012.13C383.4 1097.1 233.297 1084.8 148.285 984.644L-269.645 492.047C-354.652 391.893 -342.345 241.755 -242.163 156.78L225.239 -239.842C325.428 -324.846 337.733 -474.954 252.724 -575.144L-165.21 -1067.7C-250.214 -1167.89 -237.909 -1317.99 -137.725 -1403L354.842 -1820.92C455.031 -1905.93 605.134 -1893.62 690.143 -1793.44L1262 -1119.5L1833.85 -445.527C1918.83 -345.34 1906.53 -195.232 1806.37 -110.235Z" stroke="url(#paint75_linear)" stroke-opacity="0.2" stroke-width="2" stroke-miterlimit="10"/>
<path d="M1814.59 -107.702L1159.16 448.444L1133.78 470.018L478.286 1026.16C377.073 1112 225.428 1099.57 139.551 998.393L-282.663 500.742C-368.545 399.561 -356.112 247.886 -254.899 162.042L217.292 -238.634C318.507 -324.509 330.938 -476.154 245.058 -577.369L-177.158 -1074.99C-263.033 -1176.2 -250.602 -1327.84 -149.392 -1413.72L348.225 -1835.94C449.44 -1921.81 601.085 -1909.38 686.96 -1808.17L1264.68 -1127.32L1842.36 -446.427C1928.24 -345.221 1915.81 -193.576 1814.59 -107.702Z" stroke="url(#paint76_linear)" stroke-opacity="0.2" stroke-width="2" stroke-miterlimit="10"/>
<path d="M1822.85 -105.177L1160.75 456.608L1135.09 478.401L472.986 1040.18C370.748 1126.9 217.565 1114.34 130.813 1012.14L-295.68 509.442C-382.442 407.219 -369.882 254.002 -267.635 167.303L209.346 -237.437C311.587 -324.182 324.144 -477.369 237.394 -579.606L-189.107 -1082.27C-275.851 -1184.51 -263.295 -1337.69 -161.058 -1424.44L341.606 -1850.94C443.848 -1937.69 597.03 -1925.13 683.775 -1822.89L1267.36 -1135.14L1850.9 -447.345C1937.66 -345.107 1925.11 -191.92 1822.85 -105.177Z" stroke="url(#paint77_linear)" stroke-opacity="0.2" stroke-width="2" stroke-miterlimit="10"/>
<path d="M1831.1 -102.651L1162.34 464.773L1136.42 486.765L467.687 1054.2C364.423 1141.79 209.703 1129.1 122.08 1025.87L-308.698 518.137C-396.321 414.905 -383.636 260.15 -280.371 172.565L201.4 -236.24C304.662 -323.86 317.345 -478.58 229.73 -581.847L-201.055 -1089.56C-288.671 -1192.82 -275.988 -1347.54 -172.726 -1435.16L334.988 -1865.94C438.251 -1953.56 592.975 -1940.88 680.596 -1837.61L1270.01 -1142.95L1859.41 -448.26C1947.05 -344.991 1934.37 -190.271 1831.1 -102.651Z" stroke="url(#paint78_linear)" stroke-opacity="0.2" stroke-width="2" stroke-miterlimit="10"/>
<path d="M1839.36 -100.125L1163.95 472.939L1137.79 495.158L462.386 1068.24C358.095 1156.7 201.834 1143.89 113.34 1039.63L-321.721 526.838C-410.209 422.579 -397.397 266.283 -293.112 177.826L193.448 -235.042C297.742 -323.533 310.55 -479.789 222.06 -584.083L-213.004 -1096.84C-301.49 -1201.13 -288.681 -1357.4 -184.392 -1445.89L328.365 -1880.95C432.658 -1969.44 588.92 -1956.63 677.411 -1852.34L1272.71 -1150.77L1867.97 -449.166C1956.46 -344.872 1943.65 -188.616 1839.36 -100.125Z" stroke="url(#paint79_linear)" stroke-opacity="0.2" stroke-width="2" stroke-miterlimit="10"/>
</g>
<defs>
<linearGradient id="paint0_linear" x1="701.969" y1="-502.079" x2="1216.58" y2="-459.895" gradientUnits="userSpaceOnUse">
<stop stop-color="white"/>
<stop offset="1" stop-color="#43FFCB"/>
</linearGradient>
<linearGradient id="paint1_linear" x1="688.726" y1="-508.542" x2="1226.11" y2="-464.492" gradientUnits="userSpaceOnUse">
<stop stop-color="white"/>
<stop offset="1" stop-color="#43FFCB"/>
</linearGradient>
<linearGradient id="paint2_linear" x1="675.512" y1="-514.996" x2="1235.69" y2="-469.078" gradientUnits="userSpaceOnUse">
<stop stop-color="white"/>
<stop offset="1" stop-color="#43FFCB"/>
</linearGradient>
<linearGradient id="paint3_linear" x1="662.305" y1="-521.45" x2="1245.26" y2="-473.665" gradientUnits="userSpaceOnUse">
<stop stop-color="white"/>
<stop offset="1" stop-color="#43FFCB"/>
</linearGradient>
<linearGradient id="paint4_linear" x1="649.071" y1="-527.837" x2="1254.78" y2="-478.186" gradientUnits="userSpaceOnUse">
<stop stop-color="white"/>
<stop offset="1" stop-color="#43FFCB"/>
</linearGradient>
<linearGradient id="paint5_linear" x1="635.824" y1="-534.287" x2="1264.34" y2="-482.767" gradientUnits="userSpaceOnUse">
<stop stop-color="white"/>
<stop offset="1" stop-color="#43FFCB"/>
</linearGradient>
<linearGradient id="paint6_linear" x1="622.592" y1="-540.706" x2="1273.87" y2="-487.32" gradientUnits="userSpaceOnUse">
<stop stop-color="white"/>
<stop offset="1" stop-color="#43FFCB"/>
</linearGradient>
<linearGradient id="paint7_linear" x1="609.35" y1="-547.154" x2="1283.44" y2="-491.898" gradientUnits="userSpaceOnUse">
<stop stop-color="white"/>
<stop offset="1" stop-color="#43FFCB"/>
</linearGradient>
<linearGradient id="paint8_linear" x1="596.152" y1="-553.588" x2="1292.99" y2="-496.467" gradientUnits="userSpaceOnUse">
<stop stop-color="white"/>
<stop offset="1" stop-color="#43FFCB"/>
</linearGradient>
<linearGradient id="paint9_linear" x1="582.927" y1="-560.023" x2="1302.56" y2="-501.035" gradientUnits="userSpaceOnUse">
<stop stop-color="white"/>
<stop offset="1" stop-color="#43FFCB"/>
</linearGradient>
<linearGradient id="paint10_linear" x1="569.658" y1="-566.459" x2="1312.08" y2="-505.601" gradientUnits="userSpaceOnUse">
<stop stop-color="white"/>
<stop offset="1" stop-color="#43FFCB"/>
</linearGradient>
<linearGradient id="paint11_linear" x1="556.429" y1="-572.924" x2="1321.66" y2="-510.197" gradientUnits="userSpaceOnUse">
<stop stop-color="white"/>
<stop offset="1" stop-color="#43FFCB"/>
</linearGradient>
<linearGradient id="paint12_linear" x1="543.22" y1="-579.338" x2="1331.2" y2="-514.747" gradientUnits="userSpaceOnUse">
<stop stop-color="white"/>
<stop offset="1" stop-color="#43FFCB"/>
</linearGradient>
<linearGradient id="paint13_linear" x1="529.973" y1="-585.746" x2="1340.72" y2="-519.288" gradientUnits="userSpaceOnUse">
<stop stop-color="white"/>
<stop offset="1" stop-color="#43FFCB"/>
</linearGradient>
<linearGradient id="paint14_linear" x1="516.75" y1="-592.185" x2="1350.28" y2="-523.86" gradientUnits="userSpaceOnUse">
<stop stop-color="white"/>
<stop offset="1" stop-color="#43FFCB"/>
</linearGradient>
<linearGradient id="paint15_linear" x1="503.556" y1="-598.637" x2="1359.87" y2="-528.444" gradientUnits="userSpaceOnUse">
<stop stop-color="white"/>
<stop offset="1" stop-color="#43FFCB"/>
</linearGradient>
<linearGradient id="paint16_linear" x1="490.298" y1="-605.074" x2="1369.41" y2="-533.013" gradientUnits="userSpaceOnUse">
<stop stop-color="white"/>
<stop offset="1" stop-color="#43FFCB"/>
</linearGradient>
<linearGradient id="paint17_linear" x1="477.092" y1="-611.483" x2="1378.96" y2="-537.556" gradientUnits="userSpaceOnUse">
<stop stop-color="white"/>
<stop offset="1" stop-color="#43FFCB"/>
</linearGradient>
<linearGradient id="paint18_linear" x1="463.85" y1="-617.952" x2="1388.52" y2="-542.156" gradientUnits="userSpaceOnUse">
<stop stop-color="white"/>
<stop offset="1" stop-color="#43FFCB"/>
</linearGradient>
<linearGradient id="paint19_linear" x1="450.606" y1="-624.386" x2="1398.07" y2="-546.722" gradientUnits="userSpaceOnUse">
<stop stop-color="white"/>
<stop offset="1" stop-color="#43FFCB"/>
</linearGradient>
<linearGradient id="paint20_linear" x1="437.346" y1="-630.829" x2="1407.62" y2="-551.295" gradientUnits="userSpaceOnUse">
<stop stop-color="white"/>
<stop offset="1" stop-color="#43FFCB"/>
</linearGradient>
<linearGradient id="paint21_linear" x1="424.152" y1="-637.253" x2="1417.17" y2="-555.854" gradientUnits="userSpaceOnUse">
<stop stop-color="white"/>
<stop offset="1" stop-color="#43FFCB"/>
</linearGradient>
<linearGradient id="paint22_linear" x1="410.924" y1="-643.685" x2="1426.72" y2="-560.418" gradientUnits="userSpaceOnUse">
<stop stop-color="white"/>
<stop offset="1" stop-color="#43FFCB"/>
</linearGradient>
<linearGradient id="paint23_linear" x1="397.693" y1="-650.105" x2="1436.27" y2="-564.971" gradientUnits="userSpaceOnUse">
<stop stop-color="white"/>
<stop offset="1" stop-color="#43FFCB"/>
</linearGradient>
<linearGradient id="paint24_linear" x1="384.465" y1="-656.558" x2="1445.82" y2="-569.558" gradientUnits="userSpaceOnUse">
<stop stop-color="white"/>
<stop offset="1" stop-color="#43FFCB"/>
</linearGradient>
<linearGradient id="paint25_linear" x1="371.236" y1="-662.997" x2="1455.38" y2="-574.129" gradientUnits="userSpaceOnUse">
<stop stop-color="white"/>
<stop offset="1" stop-color="#43FFCB"/>
</linearGradient>
<linearGradient id="paint26_linear" x1="358.007" y1="-669.428" x2="1464.93" y2="-578.692" gradientUnits="userSpaceOnUse">
<stop stop-color="white"/>
<stop offset="1" stop-color="#43FFCB"/>
</linearGradient>
<linearGradient id="paint27_linear" x1="344.762" y1="-675.866" x2="1474.49" y2="-583.262" gradientUnits="userSpaceOnUse">
<stop stop-color="white"/>
<stop offset="1" stop-color="#43FFCB"/>
</linearGradient>
<linearGradient id="paint28_linear" x1="331.549" y1="-682.309" x2="1484.04" y2="-587.839" gradientUnits="userSpaceOnUse">
<stop stop-color="white"/>
<stop offset="1" stop-color="#43FFCB"/>
</linearGradient>
<linearGradient id="paint29_linear" x1="318.339" y1="-688.727" x2="1493.59" y2="-592.39" gradientUnits="userSpaceOnUse">
<stop stop-color="white"/>
<stop offset="1" stop-color="#43FFCB"/>
</linearGradient>
<linearGradient id="paint30_linear" x1="305.09" y1="-695.126" x2="1503.14" y2="-596.92" gradientUnits="userSpaceOnUse">
<stop stop-color="white"/>
<stop offset="1" stop-color="#43FFCB"/>
</linearGradient>
<linearGradient id="paint31_linear" x1="291.867" y1="-701.609" x2="1512.7" y2="-601.536" gradientUnits="userSpaceOnUse">
<stop stop-color="white"/>
<stop offset="1" stop-color="#43FFCB"/>
</linearGradient>
<linearGradient id="paint32_linear" x1="278.627" y1="-708.045" x2="1522.25" y2="-606.104" gradientUnits="userSpaceOnUse">
<stop stop-color="white"/>
<stop offset="1" stop-color="#43FFCB"/>
</linearGradient>
<linearGradient id="paint33_linear" x1="265.383" y1="-714.483" x2="1531.8" y2="-610.673" gradientUnits="userSpaceOnUse">
<stop stop-color="white"/>
<stop offset="1" stop-color="#43FFCB"/>
</linearGradient>
<linearGradient id="paint34_linear" x1="252.166" y1="-720.941" x2="1541.36" y2="-615.264" gradientUnits="userSpaceOnUse">
<stop stop-color="white"/>
<stop offset="1" stop-color="#43FFCB"/>
</linearGradient>
<linearGradient id="paint35_linear" x1="238.941" y1="-727.375" x2="1550.91" y2="-619.831" gradientUnits="userSpaceOnUse">
<stop stop-color="white"/>
<stop offset="1" stop-color="#43FFCB"/>
</linearGradient>
<linearGradient id="paint36_linear" x1="225.712" y1="-733.788" x2="1560.46" y2="-624.377" gradientUnits="userSpaceOnUse">
<stop stop-color="white"/>
<stop offset="1" stop-color="#43FFCB"/>
</linearGradient>
<linearGradient id="paint37_linear" x1="212.462" y1="-740.231" x2="1570.01" y2="-628.951" gradientUnits="userSpaceOnUse">
<stop stop-color="white"/>
<stop offset="1" stop-color="#43FFCB"/>
</linearGradient>
<linearGradient id="paint38_linear" x1="199.252" y1="-746.653" x2="1579.56" y2="-633.508" gradientUnits="userSpaceOnUse">
<stop stop-color="white"/>
<stop offset="1" stop-color="#43FFCB"/>
</linearGradient>
<linearGradient id="paint39_linear" x1="186.024" y1="-753.098" x2="1589.12" y2="-638.085" gradientUnits="userSpaceOnUse">
<stop stop-color="white"/>
<stop offset="1" stop-color="#43FFCB"/>
</linearGradient>
<linearGradient id="paint40_linear" x1="172.814" y1="-759.508" x2="1598.67" y2="-642.629" gradientUnits="userSpaceOnUse">
<stop stop-color="white"/>
<stop offset="1" stop-color="#43FFCB"/>
</linearGradient>
<linearGradient id="paint41_linear" x1="159.565" y1="-765.964" x2="1608.22" y2="-647.216" gradientUnits="userSpaceOnUse">
<stop stop-color="white"/>
<stop offset="1" stop-color="#43FFCB"/>
</linearGradient>
<linearGradient id="paint42_linear" x1="146.356" y1="-772.399" x2="1617.78" y2="-651.785" gradientUnits="userSpaceOnUse">
<stop stop-color="white"/>
<stop offset="1" stop-color="#43FFCB"/>
</linearGradient>
<linearGradient id="paint43_linear" x1="133.097" y1="-778.843" x2="1627.32" y2="-656.36" gradientUnits="userSpaceOnUse">
<stop stop-color="white"/>
<stop offset="1" stop-color="#43FFCB"/>
</linearGradient>
<linearGradient id="paint44_linear" x1="119.876" y1="-785.256" x2="1636.88" y2="-660.906" gradientUnits="userSpaceOnUse">
<stop stop-color="white"/>
<stop offset="1" stop-color="#43FFCB"/>
</linearGradient>
<linearGradient id="paint45_linear" x1="106.648" y1="-791.712" x2="1646.43" y2="-665.494" gradientUnits="userSpaceOnUse">
<stop stop-color="white"/>
<stop offset="1" stop-color="#43FFCB"/>
</linearGradient>
<linearGradient id="paint46_linear" x1="93.4177" y1="-798.138" x2="1656" y2="-670.051" gradientUnits="userSpaceOnUse">
<stop stop-color="white"/>
<stop offset="1" stop-color="#43FFCB"/>
</linearGradient>
<linearGradient id="paint47_linear" x1="80.1852" y1="-804.575" x2="1665.54" y2="-674.622" gradientUnits="userSpaceOnUse">
<stop stop-color="white"/>
<stop offset="1" stop-color="#43FFCB"/>
</linearGradient>
<linearGradient id="paint48_linear" x1="66.9569" y1="-811.024" x2="1675.09" y2="-679.204" gradientUnits="userSpaceOnUse">
<stop stop-color="white"/>
<stop offset="1" stop-color="#43FFCB"/>
</linearGradient>
<linearGradient id="paint49_linear" x1="53.7268" y1="-817.449" x2="1684.64" y2="-683.761" gradientUnits="userSpaceOnUse">
<stop stop-color="white"/>
<stop offset="1" stop-color="#43FFCB"/>
</linearGradient>
<linearGradient id="paint50_linear" x1="40.5179" y1="-823.881" x2="1694.19" y2="-688.327" gradientUnits="userSpaceOnUse">
<stop stop-color="white"/>
<stop offset="1" stop-color="#43FFCB"/>
</linearGradient>
<linearGradient id="paint51_linear" x1="27.2704" y1="-830.329" x2="1703.75" y2="-692.906" gradientUnits="userSpaceOnUse">
<stop stop-color="white"/>
<stop offset="1" stop-color="#43FFCB"/>
</linearGradient>
<linearGradient id="paint52_linear" x1="14.0247" y1="-836.753" x2="1713.3" y2="-697.461" gradientUnits="userSpaceOnUse">
<stop stop-color="white"/>
<stop offset="1" stop-color="#43FFCB"/>
</linearGradient>
<linearGradient id="paint53_linear" x1="0.811706" y1="-843.199" x2="1722.85" y2="-702.042" gradientUnits="userSpaceOnUse">
<stop stop-color="white"/>
<stop offset="1" stop-color="#43FFCB"/>
</linearGradient>
<linearGradient id="paint54_linear" x1="-12.4191" y1="-849.616" x2="1732.4" y2="-706.591" gradientUnits="userSpaceOnUse">
<stop stop-color="white"/>
<stop offset="1" stop-color="#43FFCB"/>
</linearGradient>
<linearGradient id="paint55_linear" x1="-25.6465" y1="-856.073" x2="1741.96" y2="-711.181" gradientUnits="userSpaceOnUse">
<stop stop-color="white"/>
<stop offset="1" stop-color="#43FFCB"/>
</linearGradient>
<linearGradient id="paint56_linear" x1="-38.8778" y1="-862.486" x2="1751.51" y2="-715.726" gradientUnits="userSpaceOnUse">
<stop stop-color="white"/>
<stop offset="1" stop-color="#43FFCB"/>
</linearGradient>
<linearGradient id="paint57_linear" x1="-52.106" y1="-868.933" x2="1761.06" y2="-720.306" gradientUnits="userSpaceOnUse">
<stop stop-color="white"/>
<stop offset="1" stop-color="#43FFCB"/>
</linearGradient>
<linearGradient id="paint58_linear" x1="-65.3351" y1="-875.371" x2="1770.61" y2="-724.876" gradientUnits="userSpaceOnUse">
<stop stop-color="white"/>
<stop offset="1" stop-color="#43FFCB"/>
</linearGradient>
<linearGradient id="paint59_linear" x1="-78.5645" y1="-881.806" x2="1780.16" y2="-729.445" gradientUnits="userSpaceOnUse">
<stop stop-color="white"/>
<stop offset="1" stop-color="#43FFCB"/>
</linearGradient>
<linearGradient id="paint60_linear" x1="-91.8201" y1="-888.249" x2="1789.72" y2="-734.018" gradientUnits="userSpaceOnUse">
<stop stop-color="white"/>
<stop offset="1" stop-color="#43FFCB"/>
</linearGradient>
<linearGradient id="paint61_linear" x1="-105.023" y1="-894.678" x2="1799.27" y2="-738.581" gradientUnits="userSpaceOnUse">
<stop stop-color="white"/>
<stop offset="1" stop-color="#43FFCB"/>
</linearGradient>
<linearGradient id="paint62_linear" x1="-118.252" y1="-901.112" x2="1808.82" y2="-743.148" gradientUnits="userSpaceOnUse">
<stop stop-color="white"/>
<stop offset="1" stop-color="#43FFCB"/>
</linearGradient>
<linearGradient id="paint63_linear" x1="-131.471" y1="-907.538" x2="1818.37" y2="-747.707" gradientUnits="userSpaceOnUse">
<stop stop-color="white"/>
<stop offset="1" stop-color="#43FFCB"/>
</linearGradient>
<linearGradient id="paint64_linear" x1="-144.715" y1="-913.985" x2="1827.93" y2="-752.285" gradientUnits="userSpaceOnUse">
<stop stop-color="white"/>
<stop offset="1" stop-color="#43FFCB"/>
</linearGradient>
<linearGradient id="paint65_linear" x1="-157.942" y1="-920.423" x2="1837.48" y2="-756.856" gradientUnits="userSpaceOnUse">
<stop stop-color="white"/>
<stop offset="1" stop-color="#43FFCB"/>
</linearGradient>
<linearGradient id="paint66_linear" x1="-171.172" y1="-926.853" x2="1847.03" y2="-761.419" gradientUnits="userSpaceOnUse">
<stop stop-color="white"/>
<stop offset="1" stop-color="#43FFCB"/>
</linearGradient>
<linearGradient id="paint67_linear" x1="-184.402" y1="-933.282" x2="1856.58" y2="-765.981" gradientUnits="userSpaceOnUse">
<stop stop-color="white"/>
<stop offset="1" stop-color="#43FFCB"/>
</linearGradient>
<linearGradient id="paint68_linear" x1="-197.631" y1="-939.726" x2="1866.14" y2="-770.557" gradientUnits="userSpaceOnUse">
<stop stop-color="white"/>
<stop offset="1" stop-color="#43FFCB"/>
</linearGradient>
<linearGradient id="paint69_linear" x1="-210.86" y1="-946.159" x2="1875.68" y2="-775.123" gradientUnits="userSpaceOnUse">
<stop stop-color="white"/>
<stop offset="1" stop-color="#43FFCB"/>
</linearGradient>
<linearGradient id="paint70_linear" x1="-224.08" y1="-952.572" x2="1885.24" y2="-779.669" gradientUnits="userSpaceOnUse">
<stop stop-color="white"/>
<stop offset="1" stop-color="#43FFCB"/>
</linearGradient>
<linearGradient id="paint71_linear" x1="-237.318" y1="-959.036" x2="1894.79" y2="-784.264" gradientUnits="userSpaceOnUse">
<stop stop-color="white"/>
<stop offset="1" stop-color="#43FFCB"/>
</linearGradient>
<linearGradient id="paint72_linear" x1="-250.547" y1="-965.47" x2="1904.35" y2="-788.831" gradientUnits="userSpaceOnUse">
<stop stop-color="white"/>
<stop offset="1" stop-color="#43FFCB"/>
</linearGradient>
<linearGradient id="paint73_linear" x1="-263.777" y1="-971.904" x2="1913.9" y2="-793.397" gradientUnits="userSpaceOnUse">
<stop stop-color="white"/>
<stop offset="1" stop-color="#43FFCB"/>
</linearGradient>
<linearGradient id="paint74_linear" x1="-277.006" y1="-978.341" x2="1923.45" y2="-797.967" gradientUnits="userSpaceOnUse">
<stop stop-color="white"/>
<stop offset="1" stop-color="#43FFCB"/>
</linearGradient>
<linearGradient id="paint75_linear" x1="-290.236" y1="-984.77" x2="1933.01" y2="-802.529" gradientUnits="userSpaceOnUse">
<stop stop-color="white"/>
<stop offset="1" stop-color="#43FFCB"/>
</linearGradient>
<linearGradient id="paint76_linear" x1="-303.465" y1="-991.21" x2="1942.56" y2="-807.102" gradientUnits="userSpaceOnUse">
<stop stop-color="white"/>
<stop offset="1" stop-color="#43FFCB"/>
</linearGradient>
<linearGradient id="paint77_linear" x1="-316.694" y1="-997.648" x2="1952.12" y2="-811.671" gradientUnits="userSpaceOnUse">
<stop stop-color="white"/>
<stop offset="1" stop-color="#43FFCB"/>
</linearGradient>
<linearGradient id="paint78_linear" x1="-329.923" y1="-1004.09" x2="1961.66" y2="-816.243" gradientUnits="userSpaceOnUse">
<stop stop-color="white"/>
<stop offset="1" stop-color="#43FFCB"/>
</linearGradient>
<linearGradient id="paint79_linear" x1="-343.153" y1="-1010.52" x2="1971.21" y2="-820.806" gradientUnits="userSpaceOnUse">
<stop stop-color="white"/>
<stop offset="1" stop-color="#43FFCB"/>
</linearGradient>
<clipPath id="clip0">
<rect width="1445" height="723" fill="white" transform="translate(-2 0.986816)"/>
</clipPath>
</defs>
</svg>
