<svg width="121" height="120" viewBox="0 0 121 120" fill="none" xmlns="http://www.w3.org/2000/svg">
<g clip-path="url(#clip0)">
<path d="M85.7558 52C85.7558 59.3316 79.8124 65.275 72.4808 65.275C65.1492 65.275 59.2058 59.3316 59.2058 52C59.2058 44.6684 65.1492 38.725 72.4808 38.725C79.8124 38.725 85.7558 44.6684 85.7558 52Z" fill="#FFE000"/>
<path d="M64.3113 52C64.3113 51.4361 64.7685 50.9789 65.3324 50.9789C65.8964 50.9789 66.3536 51.4361 66.3536 52C66.3536 52.564 65.8964 53.0212 65.3324 53.0212C64.7685 53.0212 64.3113 52.564 64.3113 52Z" fill="#FF9700"/>
<path d="M78.6077 52C78.6077 51.4361 79.0649 50.9789 79.6288 50.9789C80.1928 50.9789 80.65 51.4361 80.65 52C80.65 52.564 80.1928 53.0212 79.6288 53.0212C79.0649 53.0212 78.6077 52.564 78.6077 52Z" fill="#FF9700"/>
<path d="M73.5021 45.907V45.2805C73.5021 44.7165 73.0449 44.2593 72.4809 44.2593C71.917 44.2593 71.4598 44.7165 71.4598 45.2805V45.907C69.8657 46.0576 68.5958 47.3056 68.4163 48.8967C68.2368 50.4878 69.1971 51.9871 70.7174 52.4892L73.5983 53.449C74.2286 53.6574 74.614 54.2932 74.5083 54.9488C74.4021 55.6045 73.8352 56.0857 73.171 56.0847H71.7909C71.0439 56.0837 70.4391 55.4783 70.4386 54.7314V54.4702C70.4386 53.9062 69.9814 53.449 69.4175 53.449C68.8535 53.449 68.3963 53.9062 68.3963 54.4702V54.7314C68.4018 56.4731 69.7266 57.9265 71.4598 58.0931V58.511C71.4598 59.075 71.917 59.5322 72.4809 59.5322C73.0449 59.5322 73.5021 59.075 73.5021 58.511V58.0931C75.0961 57.9425 76.3661 56.695 76.5456 55.1034C76.7251 53.5123 75.7648 52.013 74.2445 51.5109L71.3636 50.5511C70.7333 50.3427 70.3479 49.7069 70.4536 49.0513C70.5598 48.3956 71.1267 47.9144 71.7909 47.9154H73.171C73.9179 47.9164 74.5227 48.5217 74.5232 49.2687V49.5299C74.5232 50.0939 74.9804 50.5511 75.5444 50.5511C76.1084 50.5511 76.5656 50.0939 76.5656 49.5299V49.2687C76.5601 47.527 75.2353 46.0736 73.5021 45.907Z" fill="#FF9700"/>
<path d="M57.6575 36C57.6575 41.5228 53.1803 46 47.6575 46C42.1346 46 37.6575 41.5228 37.6575 36C37.6575 30.4772 42.1346 26 47.6575 26C53.1803 26 57.6575 30.4772 57.6575 36Z" fill="#FFE000"/>
<path d="M41.5034 36C41.5034 35.5752 41.8478 35.2308 42.2726 35.2308C42.6975 35.2308 43.0419 35.5752 43.0419 36C43.0419 36.4249 42.6975 36.7693 42.2726 36.7693C41.8478 36.7693 41.5034 36.4249 41.5034 36Z" fill="#FF9700"/>
<path d="M52.2727 36C52.2727 35.5752 52.6171 35.2308 53.0419 35.2308C53.4668 35.2308 53.8112 35.5752 53.8112 36C53.8112 36.4249 53.4668 36.7693 53.0419 36.7693C52.6171 36.7693 52.2727 36.4249 52.2727 36Z" fill="#FF9700"/>
<path d="M48.4269 31.4102V30.9382C48.4269 30.5134 48.0825 30.169 47.6577 30.169C47.2328 30.169 46.8884 30.5134 46.8884 30.9382V31.4102C45.6877 31.5236 44.731 32.4638 44.5958 33.6623C44.4606 34.8608 45.184 35.9903 46.3292 36.3685L48.4994 37.0915C48.9742 37.2485 49.2645 37.7274 49.1849 38.2213C49.1049 38.7153 48.6778 39.0777 48.1775 39.077H47.1378C46.5752 39.0762 46.1196 38.6202 46.1192 38.0576V37.8608C46.1192 37.4359 45.7748 37.0915 45.35 37.0915C44.9252 37.0915 44.5808 37.4359 44.5808 37.8608V38.0576C44.5849 39.3696 45.5829 40.4644 46.8884 40.5899V40.9047C46.8884 41.3296 47.2328 41.674 47.6577 41.674C48.0825 41.674 48.4269 41.3296 48.4269 40.9047V40.5899C49.6277 40.4764 50.5844 39.5367 50.7196 38.3378C50.8548 37.1392 50.1314 36.0098 48.9862 35.6316L46.816 34.9085C46.3412 34.7515 46.0509 34.2726 46.1305 33.7787C46.2105 33.2848 46.6375 32.9224 47.1378 32.9231H48.1775C48.7402 32.9239 49.1958 33.3798 49.1961 33.9425V34.1393C49.1961 34.5641 49.5405 34.9085 49.9654 34.9085C50.3902 34.9085 50.7346 34.5641 50.7346 34.1393V33.9425C50.7305 32.6305 49.7325 31.5356 48.4269 31.4102Z" fill="#FF9700"/>
<path fill-rule="evenodd" clip-rule="evenodd" d="M81.5424 82.6271C81.5424 87.8266 77.6674 89.7763 74.4382 93.676C71.2091 97.5756 73.1466 97.9051 78.8049 102.349C86.4529 108.356 91.8757 117.296 91.8757 127.803C91.8757 145.032 77.9966 159 60.8757 159C43.7549 159 29.8757 145.032 29.8757 127.803C29.8757 117.296 35.0367 108.002 42.9466 102.349C47.9591 97.9051 47.8757 95.5 44.8757 93.5C41.8757 91.5 36.9799 86.5268 38.9174 80.6773C40.8549 74.8279 48.6049 70.9283 55.7091 74.178C62.8132 77.4277 81.5424 77.4277 81.5424 82.6271Z" fill="#3B4346"/>
<path d="M66.8249 75.3498C66.8249 81.6649 61.7055 86.7843 55.3905 86.7843C49.0754 86.7843 43.9561 81.6649 43.9561 75.3498C43.9561 69.0348 49.0754 63.9154 55.3905 63.9154C61.7055 63.9154 66.8249 69.0348 66.8249 75.3498Z" fill="#FFE000"/>
<path d="M48.3538 75.3499C48.3538 74.8641 48.7476 74.4703 49.2333 74.4703C49.7191 74.4703 50.1129 74.8641 50.1129 75.3499C50.1129 75.8356 49.7191 76.2294 49.2333 76.2294C48.7476 76.2294 48.3538 75.8356 48.3538 75.3499Z" fill="#FF9700"/>
<path d="M60.668 75.3499C60.668 74.8641 61.0618 74.4703 61.5475 74.4703C62.0333 74.4703 62.4271 74.8641 62.4271 75.3499C62.4271 75.8356 62.0333 76.2294 61.5475 76.2294C61.0618 76.2294 60.668 75.8356 60.668 75.3499Z" fill="#FF9700"/>
<path d="M56.27 70.1016V69.5619C56.27 69.0762 55.8762 68.6824 55.3905 68.6824C54.9047 68.6824 54.5109 69.0762 54.5109 69.5619V70.1016C53.1379 70.2313 52.044 71.3063 51.8894 72.6768C51.7348 74.0472 52.5619 75.3387 53.8714 75.7712L56.3529 76.5979C56.8958 76.7774 57.2278 77.325 57.1367 77.8898C57.0452 78.4546 56.5569 78.869 55.9849 78.8681H54.7961C54.1527 78.8673 53.6318 78.3459 53.6313 77.7025V77.4775C53.6313 76.9917 53.2375 76.5979 52.7518 76.5979C52.266 76.5979 51.8722 76.9917 51.8722 77.4775V77.7025C51.8769 79.2027 53.018 80.4546 54.5109 80.5981V80.9581C54.5109 81.4439 54.9047 81.8377 55.3905 81.8377C55.8762 81.8377 56.27 81.4439 56.27 80.9581V80.5981C57.6431 80.4684 58.737 79.3938 58.8916 78.0229C59.0462 76.6525 58.219 75.361 56.9095 74.9285L54.428 74.1018C53.8851 73.9223 53.5532 73.3747 53.6442 72.8099C53.7357 72.2452 54.224 71.8307 54.7961 71.8316H55.9849C56.6282 71.8324 57.1492 72.3538 57.1496 72.9972V73.2222C57.1496 73.708 57.5434 74.1018 58.0292 74.1018C58.515 74.1018 58.9088 73.708 58.9088 73.2222V72.9972C58.904 71.497 57.7629 70.2451 56.27 70.1016Z" fill="#FF9700"/>
<path fill-rule="evenodd" clip-rule="evenodd" d="M82.1882 82.5529C82.1882 89.0582 77.6674 89.7091 74.4382 93.6125C71.2091 97.516 73.1466 97.8458 78.8049 102.294C86.4529 108.307 91.8757 117.255 91.8757 127.772C91.8757 145.019 77.9966 159 60.8757 159C43.7549 159 29.8757 145.019 29.8757 127.772C29.8757 117.255 35.0367 107.953 42.9466 102.294C47.9591 97.8458 47.3132 95.5643 44.7299 93.6125C42.1466 91.6608 36.3628 85.8059 40.2234 82.5529C44.0841 79.2998 51.8341 90.3599 62.1674 78.6493C72.5007 66.9386 82.1882 76.0476 82.1882 82.5529Z" fill="#0074FF"/>
<path d="M61.25 104.845V103.874C61.25 102.839 60.4109 102 59.3757 102C58.3406 102 57.5014 102.839 57.5014 103.874V104.845C54.5756 105.108 52.2446 107.291 51.9152 110.073C51.5857 112.855 53.3484 115.477 56.1387 116.355L61.4267 118.034C62.5834 118.398 63.2909 119.51 63.0969 120.657C62.9019 121.803 61.8614 122.645 60.6423 122.643H58.1091C56.7382 122.641 55.6281 121.583 55.6272 120.276V119.946C55.6272 118.911 54.788 118.071 53.7529 118.071C52.7177 118.071 51.8786 118.911 51.8786 119.946V120.276C51.8886 123.322 54.3203 125.864 57.5014 126.155V128H61.25V126.155C64.1759 125.892 66.5068 123.71 66.8363 120.927C67.1657 118.145 65.4031 115.523 62.6127 114.645L57.3248 112.966C56.168 112.602 55.4606 111.49 55.6546 110.343C55.8495 109.197 56.8901 108.355 58.1091 108.357H60.6423C62.0133 108.359 63.1234 109.417 63.1243 110.724V111.054C63.1243 112.089 63.9635 112.929 64.9986 112.929C66.0337 112.929 66.8729 112.089 66.8729 111.054V110.724C66.8628 107.678 64.4312 105.136 61.25 104.845Z" fill="#146EDA"/>
<rect x="72.8757" y="17" width="2.8" height="13" rx="1.4" fill="#0074FF"/>
<rect x="52.8757" y="54" width="2.8" height="13" rx="1.4" fill="#0074FF"/>
<rect x="65.8757" y="23" width="2.8" height="11" rx="1.4" fill="#0074FF"/>
<rect x="46.8757" y="52" width="2.8" height="11" rx="1.4" fill="#0074FF"/>
</g>
<defs>
<clipPath id="clip0">
<rect width="120" height="120" fill="white" transform="translate(0.875732)"/>
</clipPath>
</defs>
</svg>
