<svg width="240" height="285" viewBox="0 0 240 285" fill="none" xmlns="http://www.w3.org/2000/svg">
<path d="M69.4659 80.6128C69.4659 99.5125 54.0685 114.838 35.0696 114.838C16.0708 114.838 0.67334 99.5125 0.67334 80.6128C0.67334 61.713 16.0708 46.3876 35.0696 46.3876C54.0685 46.3876 69.4659 61.713 69.4659 80.6128Z" stroke="url(#paint0_linear)"/>
<path d="M194.896 114.838H146.565C140.906 114.838 136.247 110.198 136.247 104.573V56.4791C136.247 50.8543 140.906 46.2143 146.565 46.2143H194.896C200.555 46.2143 205.214 50.8543 205.214 56.4791V104.573C205.214 110.367 200.56 114.838 194.896 114.838Z" stroke="url(#paint1_linear)"/>
<path d="M67.8732 145.508H69.967H123.009C130.936 145.508 137.34 151.884 137.34 159.766V199.873C137.34 207.755 130.936 214.132 123.009 214.132H84.7979C76.3235 214.132 69.467 220.951 69.467 229.39V269.324C69.467 277.206 63.0629 283.582 55.1361 283.582H14.8309C6.90411 283.582 0.5 277.206 0.5 269.324V214.632V159.766C0.5 151.884 6.90411 145.508 14.8309 145.508H67.8732Z" stroke="url(#paint2_linear)"/>
<path d="M74.3637 74.0822C74.3637 92.9819 58.9663 108.307 39.9674 108.307C20.9686 108.307 5.57117 92.9819 5.57117 74.0822C5.57117 55.1824 20.9686 39.857 39.9674 39.857C58.9663 39.857 74.3637 55.1824 74.3637 74.0822Z" stroke="url(#paint3_linear)"/>
<path d="M199.794 108.308H151.463C145.804 108.308 141.145 103.668 141.145 98.0428V49.9485C141.145 44.3237 145.804 39.6837 151.463 39.6837H199.794C205.453 39.6837 210.112 44.3237 210.112 49.9485V98.0428C210.112 103.836 205.458 108.308 199.794 108.308Z" stroke="url(#paint4_linear)"/>
<path d="M72.7712 138.977H74.865H127.907C135.834 138.977 142.238 145.353 142.238 153.235V193.343C142.238 201.225 135.834 207.601 127.907 207.601H89.6959C81.2214 207.601 74.365 214.42 74.365 222.859V262.793C74.365 270.675 67.9608 277.051 60.034 277.051H19.7289C11.8021 277.051 5.39795 270.675 5.39795 262.793V208.101V153.235C5.39795 145.353 11.8021 138.977 19.7289 138.977H72.7712Z" stroke="url(#paint5_linear)"/>
<path d="M79.2617 67.5515C79.2617 86.4512 63.8643 101.777 44.8654 101.777C25.8665 101.777 10.4691 86.4512 10.4691 67.5515C10.4691 48.6518 25.8665 33.3264 44.8654 33.3264C63.8643 33.3264 79.2617 48.6518 79.2617 67.5515Z" stroke="url(#paint6_linear)"/>
<path d="M204.692 101.777H156.361C150.702 101.777 146.043 97.137 146.043 91.5122V43.4179C146.043 37.7931 150.702 33.1531 156.361 33.1531H204.692C210.351 33.1531 215.01 37.7931 215.01 43.4179V91.5122C215.01 97.3054 210.356 101.777 204.692 101.777Z" stroke="url(#paint7_linear)"/>
<path d="M77.6693 132.446H79.763H132.805C140.732 132.446 147.136 138.823 147.136 146.705V186.812C147.136 194.694 140.732 201.07 132.805 201.07H94.594C86.1195 201.07 79.263 207.89 79.263 216.328V256.262C79.263 264.144 72.8589 270.521 64.9321 270.521H24.6269C16.7001 270.521 10.296 264.144 10.296 256.262V201.57V146.705C10.296 138.823 16.7001 132.446 24.6269 132.446H77.6693Z" stroke="url(#paint8_linear)"/>
<path d="M84.1595 61.0209C84.1595 79.9206 68.7621 95.246 49.7632 95.246C30.7644 95.246 15.3669 79.9206 15.3669 61.0209C15.3669 42.1212 30.7644 26.7957 49.7632 26.7957C68.7621 26.7957 84.1595 42.1212 84.1595 61.0209Z" stroke="url(#paint9_linear)"/>
<path d="M209.59 95.2464H161.259C155.6 95.2464 150.941 90.6064 150.941 84.9816V36.8873C150.941 31.2625 155.6 26.6225 161.259 26.6225H209.59C215.249 26.6225 219.908 31.2625 219.908 36.8873V84.9816C219.908 90.7748 215.254 95.2464 209.59 95.2464Z" stroke="url(#paint10_linear)"/>
<path d="M82.5671 125.916H84.6609H137.703C145.63 125.916 152.034 132.292 152.034 140.174V180.281C152.034 188.163 145.63 194.54 137.703 194.54H99.4918C91.0173 194.54 84.1609 201.359 84.1609 209.798V249.732C84.1609 257.614 77.7567 263.99 69.8299 263.99H29.5248C21.598 263.99 15.1938 257.614 15.1938 249.732V195.04V140.174C15.1938 132.292 21.598 125.916 29.5248 125.916H82.5671Z" stroke="url(#paint11_linear)"/>
<path d="M89.0576 54.4903C89.0576 73.39 73.6602 88.7155 54.6613 88.7155C35.6624 88.7155 20.265 73.39 20.265 54.4903C20.265 35.5906 35.6624 20.2652 54.6613 20.2652C73.6602 20.2652 89.0576 35.5906 89.0576 54.4903Z" stroke="url(#paint12_linear)"/>
<path d="M214.488 88.7158H166.157C160.498 88.7158 155.839 84.0758 155.839 78.451V30.3567C155.839 24.7319 160.498 20.0919 166.157 20.0919H214.488C220.147 20.0919 224.806 24.7319 224.806 30.3567V78.451C224.806 84.2442 220.152 88.7158 214.488 88.7158Z" stroke="url(#paint13_linear)"/>
<path d="M87.465 119.385H89.5588H142.601C150.528 119.385 156.932 125.761 156.932 133.643V173.751C156.932 181.633 150.528 188.009 142.601 188.009H104.39C95.9153 188.009 89.0588 194.828 89.0588 203.267V243.201C89.0588 251.083 82.6547 257.459 74.7279 257.459H34.4227C26.4959 257.459 20.0918 251.083 20.0918 243.201V188.509V133.643C20.0918 125.761 26.4959 119.385 34.4227 119.385H87.465Z" stroke="url(#paint14_linear)"/>
<path d="M93.9555 47.9597C93.9555 66.8594 78.5581 82.1848 59.5592 82.1848C40.5604 82.1848 25.163 66.8594 25.163 47.9597C25.163 29.06 40.5604 13.7345 59.5592 13.7345C78.5581 13.7345 93.9555 29.06 93.9555 47.9597Z" stroke="url(#paint15_linear)"/>
<path d="M219.386 82.1852H171.055C165.396 82.1852 160.737 77.5452 160.737 71.9204V23.8261C160.737 18.2012 165.396 13.5612 171.055 13.5612H219.386C225.045 13.5612 229.704 18.2012 229.704 23.8261V71.9204C229.704 77.7136 225.05 82.1852 219.386 82.1852Z" stroke="url(#paint16_linear)"/>
<path d="M92.3631 112.855H94.4569H147.499C155.426 112.855 161.83 119.231 161.83 127.113V167.22C161.83 175.102 155.426 181.478 147.499 181.478H109.288C100.813 181.478 93.9569 188.298 93.9569 196.737V236.671C93.9569 244.552 87.5528 250.929 79.626 250.929H39.3208C31.394 250.929 24.9899 244.552 24.9899 236.671V181.978V127.113C24.9899 119.231 31.394 112.855 39.3208 112.855H92.3631Z" stroke="url(#paint17_linear)"/>
<path d="M98.8535 41.4291C98.8535 60.3288 83.4561 75.6542 64.4572 75.6542C45.4583 75.6542 30.0609 60.3288 30.0609 41.4291C30.0609 22.5294 45.4583 7.20392 64.4572 7.20392C83.4561 7.20392 98.8535 22.5294 98.8535 41.4291Z" stroke="url(#paint18_linear)"/>
<path d="M224.284 75.6546H175.953C170.294 75.6546 165.635 71.0146 165.635 65.3897V17.2955C165.635 11.6706 170.294 7.03064 175.953 7.03064H224.284C229.943 7.03064 234.602 11.6706 234.602 17.2955V65.3897C234.602 71.183 229.948 75.6546 224.284 75.6546Z" stroke="url(#paint19_linear)"/>
<path d="M97.2611 106.324H99.3548H152.397C160.324 106.324 166.728 112.7 166.728 120.582V160.69C166.728 168.572 160.324 174.948 152.397 174.948H114.186C105.711 174.948 98.8548 181.767 98.8548 190.206V230.14C98.8548 238.022 92.4507 244.398 84.5239 244.398H44.2187C36.2919 244.398 29.8878 238.022 29.8878 230.14V175.448V120.582C29.8878 112.7 36.2919 106.324 44.2187 106.324H97.2611Z" stroke="url(#paint20_linear)"/>
<path d="M103.752 34.8984C103.752 53.7982 88.3541 69.1236 69.3553 69.1236C50.3564 69.1236 34.959 53.7982 34.959 34.8984C34.959 15.9987 50.3564 0.673279 69.3553 0.673279C88.3541 0.673279 103.752 15.9987 103.752 34.8984Z" stroke="url(#paint21_linear)"/>
<path d="M229.182 69.1239H180.851C175.192 69.1239 170.533 64.4839 170.533 58.8591V10.7648C170.533 5.14 175.192 0.5 180.851 0.5H229.182C234.841 0.5 239.5 5.14 239.5 10.7648V58.8591C239.5 64.6523 234.846 69.1239 229.182 69.1239Z" stroke="url(#paint22_linear)"/>
<path d="M102.159 99.7933H104.253H157.295C165.222 99.7933 171.626 106.17 171.626 114.051V154.159C171.626 162.041 165.222 168.417 157.295 168.417H119.084C110.609 168.417 103.753 175.237 103.753 183.675V223.609C103.753 231.491 97.3485 237.867 89.4217 237.867H49.1166C41.1898 237.867 34.7856 231.491 34.7856 223.609V168.917V114.051C34.7856 106.17 41.1898 99.7933 49.1166 99.7933H102.159Z" stroke="url(#paint23_linear)"/>
<defs>
<linearGradient id="paint0_linear" x1="-1.36653" y1="68.3698" x2="69.9659" y2="68.3698" gradientUnits="userSpaceOnUse">
<stop stop-color="#00FFB9"/>
<stop offset="0.921875" stop-color="#00DAFF"/>
</linearGradient>
<linearGradient id="paint1_linear" x1="134.203" y1="68.2527" x2="205.714" y2="68.2527" gradientUnits="userSpaceOnUse">
<stop stop-color="#00FFB9"/>
<stop offset="0.921875" stop-color="#00DAFF"/>
</linearGradient>
<linearGradient id="paint2_linear" x1="-3.04125" y1="190.028" x2="137.84" y2="190.028" gradientUnits="userSpaceOnUse">
<stop stop-color="#00FFB9"/>
<stop offset="0.921875" stop-color="#00DAFF"/>
</linearGradient>
<linearGradient id="paint3_linear" x1="3.53129" y1="61.8392" x2="74.8637" y2="61.8392" gradientUnits="userSpaceOnUse">
<stop stop-color="#00FFB9"/>
<stop offset="0.921875" stop-color="#00DAFF"/>
</linearGradient>
<linearGradient id="paint4_linear" x1="139.101" y1="61.7221" x2="210.612" y2="61.7221" gradientUnits="userSpaceOnUse">
<stop stop-color="#00FFB9"/>
<stop offset="0.921875" stop-color="#00DAFF"/>
</linearGradient>
<linearGradient id="paint5_linear" x1="1.8567" y1="183.498" x2="142.738" y2="183.498" gradientUnits="userSpaceOnUse">
<stop stop-color="#00FFB9"/>
<stop offset="0.921875" stop-color="#00DAFF"/>
</linearGradient>
<linearGradient id="paint6_linear" x1="8.42924" y1="55.3085" x2="79.7617" y2="55.3085" gradientUnits="userSpaceOnUse">
<stop stop-color="#00FFB9"/>
<stop offset="0.921875" stop-color="#00DAFF"/>
</linearGradient>
<linearGradient id="paint7_linear" x1="143.999" y1="55.1915" x2="215.51" y2="55.1915" gradientUnits="userSpaceOnUse">
<stop stop-color="#00FFB9"/>
<stop offset="0.921875" stop-color="#00DAFF"/>
</linearGradient>
<linearGradient id="paint8_linear" x1="6.75477" y1="176.967" x2="147.636" y2="176.967" gradientUnits="userSpaceOnUse">
<stop stop-color="#00FFB9"/>
<stop offset="0.921875" stop-color="#00DAFF"/>
</linearGradient>
<linearGradient id="paint9_linear" x1="13.3271" y1="48.7779" x2="84.6595" y2="48.7779" gradientUnits="userSpaceOnUse">
<stop stop-color="#00FFB9"/>
<stop offset="0.921875" stop-color="#00DAFF"/>
</linearGradient>
<linearGradient id="paint10_linear" x1="148.897" y1="48.6608" x2="220.408" y2="48.6608" gradientUnits="userSpaceOnUse">
<stop stop-color="#00FFB9"/>
<stop offset="0.921875" stop-color="#00DAFF"/>
</linearGradient>
<linearGradient id="paint11_linear" x1="11.6526" y1="170.436" x2="152.534" y2="170.436" gradientUnits="userSpaceOnUse">
<stop stop-color="#00FFB9"/>
<stop offset="0.921875" stop-color="#00DAFF"/>
</linearGradient>
<linearGradient id="paint12_linear" x1="18.2251" y1="42.2473" x2="89.5576" y2="42.2473" gradientUnits="userSpaceOnUse">
<stop stop-color="#00FFB9"/>
<stop offset="0.921875" stop-color="#00DAFF"/>
</linearGradient>
<linearGradient id="paint13_linear" x1="153.795" y1="42.1302" x2="225.306" y2="42.1302" gradientUnits="userSpaceOnUse">
<stop stop-color="#00FFB9"/>
<stop offset="0.921875" stop-color="#00DAFF"/>
</linearGradient>
<linearGradient id="paint14_linear" x1="16.5506" y1="163.906" x2="157.432" y2="163.906" gradientUnits="userSpaceOnUse">
<stop stop-color="#00FFB9"/>
<stop offset="0.921875" stop-color="#00DAFF"/>
</linearGradient>
<linearGradient id="paint15_linear" x1="23.1231" y1="35.7167" x2="94.4555" y2="35.7167" gradientUnits="userSpaceOnUse">
<stop stop-color="#00FFB9"/>
<stop offset="0.921875" stop-color="#00DAFF"/>
</linearGradient>
<linearGradient id="paint16_linear" x1="158.693" y1="35.5996" x2="230.204" y2="35.5996" gradientUnits="userSpaceOnUse">
<stop stop-color="#00FFB9"/>
<stop offset="0.921875" stop-color="#00DAFF"/>
</linearGradient>
<linearGradient id="paint17_linear" x1="21.4486" y1="157.375" x2="162.33" y2="157.375" gradientUnits="userSpaceOnUse">
<stop stop-color="#00FFB9"/>
<stop offset="0.921875" stop-color="#00DAFF"/>
</linearGradient>
<linearGradient id="paint18_linear" x1="28.021" y1="29.1861" x2="99.3535" y2="29.1861" gradientUnits="userSpaceOnUse">
<stop stop-color="#00FFB9"/>
<stop offset="0.921875" stop-color="#00DAFF"/>
</linearGradient>
<linearGradient id="paint19_linear" x1="163.591" y1="29.069" x2="235.102" y2="29.069" gradientUnits="userSpaceOnUse">
<stop stop-color="#00FFB9"/>
<stop offset="0.921875" stop-color="#00DAFF"/>
</linearGradient>
<linearGradient id="paint20_linear" x1="26.3466" y1="150.844" x2="167.228" y2="150.844" gradientUnits="userSpaceOnUse">
<stop stop-color="#00FFB9"/>
<stop offset="0.921875" stop-color="#00DAFF"/>
</linearGradient>
<linearGradient id="paint21_linear" x1="32.9191" y1="22.6555" x2="104.252" y2="22.6555" gradientUnits="userSpaceOnUse">
<stop stop-color="#00FFB9"/>
<stop offset="0.921875" stop-color="#00DAFF"/>
</linearGradient>
<linearGradient id="paint22_linear" x1="168.489" y1="22.5384" x2="240" y2="22.5384" gradientUnits="userSpaceOnUse">
<stop stop-color="#00FFB9"/>
<stop offset="0.921875" stop-color="#00DAFF"/>
</linearGradient>
<linearGradient id="paint23_linear" x1="31.2444" y1="144.314" x2="172.126" y2="144.314" gradientUnits="userSpaceOnUse">
<stop stop-color="#00FFB9"/>
<stop offset="0.921875" stop-color="#00DAFF"/>
</linearGradient>
</defs>
</svg>
