<svg width="100" height="100" viewBox="0 0 100 100" fill="none" xmlns="http://www.w3.org/2000/svg">
<path d="M26.1766 61.1765C31.7225 61.1765 36.325 56.8004 37.2023 51.0617C37.3693 49.9698 36.4576 49.0686 35.353 49.0686L17.0001 49.0686C15.8955 49.0686 14.9839 49.9698 15.1508 51.0617C16.0281 56.8004 20.6306 61.1765 26.1766 61.1765Z" fill="#0074FF"/>
<path fill-rule="evenodd" clip-rule="evenodd" d="M26.0218 25.8334C26.5706 25.8288 27.0706 26.1249 27.2965 26.5882L36.246 44.9399C36.4403 45.3384 36.1501 45.8029 35.7067 45.8029H33.8784L18.6634 45.8333H16.7737C16.3352 45.8333 16.0448 45.3783 16.2295 44.9806L24.7619 26.6094C24.9788 26.1423 25.473 25.838 26.0218 25.8334Z" fill="#FFE000"/>
<path d="M74.608 61.1765C80.1539 61.1765 84.7564 56.8004 85.6337 51.0618C85.8007 49.9699 84.889 49.0687 83.7844 49.0687L65.4315 49.0687C64.3269 49.0687 63.4153 49.9699 63.5822 51.0618C64.4595 56.8004 69.062 61.1765 74.608 61.1765Z" fill="#0074FF"/>
<path fill-rule="evenodd" clip-rule="evenodd" d="M74.355 25.8334C74.9039 25.8288 75.4038 26.1249 75.6298 26.5882L84.5792 44.9399C84.7736 45.3384 84.4834 45.8029 84.04 45.8029H82.2116L66.9967 45.8333H65.107C64.6685 45.8333 64.3781 45.3783 64.5628 44.9806L73.0952 26.6094C73.3121 26.1423 73.8062 25.838 74.355 25.8334Z" fill="#FFE000"/>
<path d="M50.5793 72.8186C43.1618 72.8186 37.0102 74.5739 35.8675 79.8158C35.6484 80.8209 36.5113 81.6666 37.54 81.6666H63.6185C64.6472 81.6666 65.5101 80.8209 65.291 79.8158C64.1484 74.5739 57.9967 72.8186 50.5793 72.8186Z" fill="#0074FF"/>
<path fill-rule="evenodd" clip-rule="evenodd" d="M20.8333 22.0588C20.8333 21.2358 21.5004 20.5686 22.3234 20.5686H78.2058C79.0288 20.5686 79.696 21.2358 79.696 22.0588C79.696 22.8818 79.0288 23.549 78.2058 23.549H22.3234C21.5004 23.549 20.8333 22.8818 20.8333 22.0588Z" fill="#0074FF"/>
<path fill-rule="evenodd" clip-rule="evenodd" d="M50.8332 20.5686C52.214 20.5686 53.3333 21.2358 53.3333 22.0588L53.3332 75.147C53.3332 75.97 52.214 76.6372 50.8332 76.6372C49.4525 76.6372 48.3332 75.97 48.3332 75.147L48.3332 22.0588C48.3332 21.2358 49.4525 20.5686 50.8332 20.5686Z" fill="#0074FF"/>
<ellipse cx="50.8333" cy="23.3333" rx="4.16667" ry="4.16667" fill="#FFE000"/>
</svg>
