<svg width="100" height="100" viewBox="0 0 100 100" fill="none" xmlns="http://www.w3.org/2000/svg">
<path d="M26.444 72.8316C26.3163 72.8056 26.1906 72.7647 26.0698 72.7089C25.5707 72.4779 25.2143 72.0196 25.1134 71.479C25.0803 71.3015 24.3162 67.0695 25.5064 61.7782C26.6127 56.8606 29.6753 50.0623 37.9848 45.6013L37.39 67.0534L27.6263 72.6415C27.2647 72.8485 26.8439 72.913 26.444 72.8316Z" fill="#FFE000"/>
<path d="M60 70.2954L59.2333 73.4696C59.0164 74.3675 58.2129 75 57.2892 75H42.7108C41.7872 75 40.9836 74.3675 40.7667 73.4696L40 70.2954C40 69.5646 40.8745 68.8625 42.4549 68.251V68.2508C44.1202 67.6058 46.5719 67.0612 49.6095 66.6891C49.8523 66.6593 50.1464 66.6592 50.3894 66.6889C53.2856 67.0435 55.6473 67.5549 57.305 68.1604C57.3869 68.1902 57.4665 68.2205 57.545 68.2507V68.251C59.1255 68.8625 60 69.5646 60 70.2954Z" fill="#0074FF"/>
<path d="M73.8352 72.8316C73.9629 72.8056 74.0885 72.7647 74.2094 72.7089C74.7085 72.4779 75.0649 72.0196 75.1658 71.479C75.1989 71.3015 75.9629 67.0695 74.7728 61.7782C73.6665 56.8606 70.6039 50.0623 62.2944 45.6013L62.8891 67.0534L72.6529 72.6415C73.0145 72.8485 73.4353 72.913 73.8352 72.8316Z" fill="#FFE000"/>
<path d="M65 38.3717L63.3501 68.9411C63.2928 70.0023 62.4157 70.8333 61.353 70.8333H37.8136C36.7509 70.8333 35.8737 70.0023 35.8165 68.9411L34.1666 38.3717C34.1666 33.329 35.5148 28.4845 37.9512 24.2652V24.2635C40.5186 19.8135 44.2983 16.0557 48.9812 13.4878C49.3556 13.2826 49.809 13.2815 50.1836 13.4868C54.6486 15.9337 58.2895 19.4618 60.8452 23.6399C60.9714 23.8454 61.0942 24.0544 61.2152 24.2633V24.2651C63.6517 28.4845 65 33.3289 65 38.3717Z" fill="#ECEDEE"/>
<path d="M50 79.1667V92.5" stroke="#0074FF" stroke-width="2.8" stroke-linecap="round"/>
<path d="M43.3334 79.1667V86.6667" stroke="#0074FF" stroke-width="2.8" stroke-linecap="round"/>
<path d="M56.6666 79.1667V86.6667" stroke="#0074FF" stroke-width="2.8" stroke-linecap="round"/>
<path d="M60.8334 23.3316V23.3333H38.3334V23.3316C40.8163 18.9219 44.4717 15.1979 49.0005 12.6532C49.3629 12.4496 49.8023 12.4486 50.1647 12.6522C54.4828 15.0771 58.0039 18.5733 60.4755 22.7138C60.5976 22.9174 60.7163 23.1246 60.8334 23.3316Z" fill="#FFE000"/>
<path d="M50 53.3333C54.6023 53.3333 58.3333 49.6024 58.3333 45C58.3333 40.3976 54.6023 36.6667 50 36.6667C45.3976 36.6667 41.6666 40.3976 41.6666 45C41.6666 49.6024 45.3976 53.3333 50 53.3333Z" fill="#0074FF"/>
</svg>
