<svg width="100" height="100" viewBox="0 0 100 100" fill="none" xmlns="http://www.w3.org/2000/svg">
<path d="M50.0054 64.7749C62.2454 64.7749 72.1678 61.4674 72.1678 57.3875C72.1678 53.3075 62.2454 50 50.0054 50C37.7654 50 27.8429 53.3075 27.8429 57.3875C27.8429 61.4674 37.7654 64.7749 50.0054 64.7749Z" fill="#0074FF"/>
<path d="M67.0781 66.5251C62.4521 68.0671 56.3889 68.9164 50.0052 68.9164C43.6216 68.9164 37.5583 68.0671 32.9324 66.5251C30.8153 65.8195 29.1489 65.0175 27.8428 64.1667V67.291C27.8428 69.2643 30.1479 71.1195 34.334 72.5147C38.5199 73.9101 44.0854 74.6786 50.0052 74.6786C55.9251 74.6786 61.4906 73.9102 65.6765 72.5148C69.8624 71.1195 72.1677 69.2643 72.1677 67.291V64.1667C70.8616 65.0175 69.1952 65.8193 67.0781 66.5251Z" fill="#0074FF"/>
<path d="M67.0781 76.0212C62.4522 77.5631 56.3889 78.4124 50.0052 78.4124C43.6216 78.4124 37.5582 77.5631 32.9324 76.0211C30.8152 75.3154 29.1488 74.5136 27.8428 73.6628V77.0827C27.8428 81.1626 37.7652 84.4701 50.0052 84.4701C62.2453 84.4701 72.1677 81.1626 72.1677 77.0826V73.6629C70.8618 74.5135 69.1953 75.3155 67.0781 76.0212Z" fill="#0074FF"/>
<path d="M68.771 36.0522C68.771 46.2982 60.4648 54.6043 50.2188 54.6043C39.9727 54.6043 31.6666 46.2982 31.6666 36.0522C31.6666 25.8061 39.9727 17.5 50.2188 17.5C60.4648 17.5 68.771 25.8061 68.771 36.0522Z" fill="#FFE000"/>
<path d="M49.4479 25.9158C49.7472 24.9945 51.0506 24.9945 51.35 25.9158L52.9471 30.8312C53.081 31.2433 53.4649 31.5222 53.8982 31.5222H59.0665C60.0352 31.5222 60.438 32.7618 59.6543 33.3312L55.473 36.3691C55.1225 36.6238 54.9759 37.0751 55.1097 37.4872L56.7069 42.4026C57.0062 43.3239 55.9517 44.09 55.168 43.5206L50.9867 40.4827C50.6362 40.2281 50.1616 40.2281 49.8111 40.4827L45.6298 43.5206C44.8461 44.09 43.7916 43.3239 44.091 42.4026L45.6881 37.4872C45.822 37.0751 45.6753 36.6238 45.3248 36.3691L41.1435 33.3312C40.3598 32.7618 40.7626 31.5222 41.7313 31.5222H46.8997C47.3329 31.5222 47.7169 31.2433 47.8507 30.8312L49.4479 25.9158Z" fill="#FF9700"/>
<path d="M36.7429 38.7965C36.7429 38.0083 37.3818 37.3694 38.17 37.3694C38.9582 37.3694 39.5971 38.0083 39.5971 38.7965C39.5971 39.5846 38.9582 40.2236 38.17 40.2236C37.3818 40.2236 36.7429 39.5846 36.7429 38.7965Z" fill="#FF9700"/>
<path d="M60.8392 38.7965C60.8392 38.0083 61.4782 37.3694 62.2663 37.3694C63.0545 37.3694 63.6934 38.0083 63.6934 38.7965C63.6934 39.5846 63.0545 40.2236 62.2663 40.2236C61.4782 40.2236 60.8392 39.5846 60.8392 38.7965Z" fill="#FF9700"/>
</svg>
