<svg width="100" height="100" viewBox="0 0 100 100" fill="none" xmlns="http://www.w3.org/2000/svg">
<path fill-rule="evenodd" clip-rule="evenodd" d="M10.4777 73.2113C10.4777 74.1318 11.2239 74.878 12.1443 74.878C13.0648 74.878 13.811 74.1318 13.811 73.2113C13.811 53.0314 30.1674 36.6718 50.346 36.6666C50.3493 36.6666 50.3527 36.6666 50.356 36.6666C70.5391 36.6666 86.9007 53.0282 86.9007 73.2113C86.9007 74.1318 87.6469 74.878 88.5674 74.878C89.4879 74.878 90.234 74.1318 90.234 73.2113C90.234 51.1907 72.3855 33.3387 50.3661 33.3333C50.3627 33.3333 50.3592 33.3333 50.3557 33.3333C28.3317 33.3333 10.4777 51.1873 10.4777 73.2113Z" fill="#0074FF"/>
<path d="M50.3558 40.7317C33.3244 40.7317 19.4004 54.632 18.4101 72.1663C18.3478 73.2691 19.2492 74.1666 20.3538 74.1666H80.3578C81.4624 74.1666 82.3638 73.2691 82.3015 72.1663C81.3112 54.632 67.3872 40.7317 50.3558 40.7317Z" fill="#0074FF"/>
<path d="M51.5557 66.0983C47.2906 66.0983 43.8331 69.7106 43.8331 74.1666H59.2783C59.2783 69.7106 55.8207 66.0983 51.5557 66.0983Z" fill="#FFE000"/>
<path d="M51.6666 46.3824C51.6666 46.9684 51.0697 47.4435 50.3333 47.4435C49.5969 47.4435 49 46.9684 49 46.3824L49 40.7548C49.6675 40.7216 50.8684 40.7178 51.6666 40.7522L51.6666 46.3824Z" fill="#FFE000"/>
<path d="M27.0728 60.994C27.6399 61.211 27.8862 61.9444 27.623 62.6322C27.3599 63.3199 26.6868 63.7015 26.1198 63.4845L20.7907 61.3508C20.9723 60.8406 21.607 59.3864 21.8147 58.9697L27.0728 60.994Z" fill="#FFE000"/>
<path d="M74.7664 63.6582C74.1791 63.883 73.4896 63.5076 73.2265 62.8199C72.9633 62.1321 73.226 61.3924 73.8134 61.1677L79.0029 59.2063C79.2476 59.6851 79.8671 61.1501 80.0398 61.6609L74.7664 63.6582Z" fill="#FFE000"/>
<path d="M35.435 61.1866C34.6105 60.3727 35.6245 59.0872 36.6055 59.7027L49.7354 67.9412C50.2291 68.251 50.3491 68.9158 49.9915 69.3604L47.8741 71.9936C47.5209 72.4329 46.8574 72.463 46.4475 72.0583L35.435 61.1866Z" fill="#FFE000"/>
</svg>
