<svg width="100" height="100" viewBox="0 0 100 100" fill="none" xmlns="http://www.w3.org/2000/svg">
<path d="M76.3456 62.3871C76.3456 63.1679 75.4908 63.6475 74.8245 63.2406L63.7414 56.4731C63.444 56.2915 63.2626 55.9681 63.2626 55.6196V43.3293C63.2626 42.5485 64.1174 42.0689 64.7837 42.4758L75.8667 49.2434C76.1642 49.425 76.3456 49.7483 76.3456 50.0968V62.3871Z" fill="#0074FF"/>
<path d="M75.0052 62.4182C75.0052 63.1923 75.8468 63.6728 76.5135 63.2795L88.0515 56.4709C88.3563 56.2911 88.5433 55.9635 88.5433 55.6097V43.2982C88.5433 42.5242 87.7017 42.0436 87.0351 42.437L75.497 49.2455C75.1923 49.4254 75.0052 49.7529 75.0052 50.1068V62.4182Z" fill="#0074FF"/>
<path d="M63.7506 43.6936C63.0911 43.3043 63.0959 42.3485 63.7593 41.966L75.3127 35.3047C75.6219 35.1264 76.0026 35.1264 76.3117 35.3047L87.8651 41.966C88.5285 42.3485 88.5334 43.3043 87.8738 43.6936L76.3204 50.5112C76.0069 50.6962 75.6175 50.6962 75.304 50.5112L63.7506 43.6936Z" fill="#FFE000"/>
<path d="M23.6977 62.4014C23.6977 63.1791 22.8489 63.6592 22.1824 63.2585L10.8947 56.4721C10.5939 56.2913 10.4099 55.966 10.4099 55.6151V43.315C10.4099 42.5373 11.2587 42.0573 11.9252 42.458L23.2129 49.2443C23.5137 49.4251 23.6977 49.7504 23.6977 50.1014V62.4014Z" fill="#0074FF"/>
<path d="M22.1526 62.4182C22.1526 63.1923 22.9942 63.6728 23.6608 63.2795L35.1988 56.4709C35.5036 56.2911 35.6906 55.9635 35.6906 55.6097V43.2982C35.6906 42.5242 34.849 42.0436 34.1824 42.437L22.6444 49.2455C22.3396 49.4254 22.1526 49.7529 22.1526 50.1068V62.4182Z" fill="#0074FF"/>
<path d="M10.8981 43.6936C10.2385 43.3043 10.2433 42.3485 10.9068 41.966L22.4602 35.3047C22.7693 35.1264 23.15 35.1264 23.4592 35.3047L35.0125 41.966C35.676 42.3485 35.6808 43.3043 35.0213 43.6936L23.4679 50.5112C23.1543 50.6962 22.765 50.6962 22.4515 50.5112L10.8981 43.6936Z" fill="#FFE000"/>
<path d="M50.6655 37.1583C50.6655 37.9376 49.8136 38.4174 49.1471 38.0134L37.9676 31.237C37.6686 31.0557 37.486 30.7315 37.486 30.3818V18.0868C37.486 17.3075 38.3379 16.8277 39.0043 17.2317L50.1838 24.0081C50.4829 24.1894 50.6655 24.5136 50.6655 24.8633V37.1583Z" fill="#0074FF"/>
<path d="M49.2286 37.1825C49.2286 37.9566 50.0702 38.4372 50.7368 38.0438L62.2749 31.2352C62.5797 31.0554 62.7667 30.7279 62.7667 30.374V18.0625C62.7667 17.2885 61.9251 16.8079 61.2585 17.2013L49.7204 24.0099C49.4157 24.1897 49.2286 24.5172 49.2286 24.8711V37.1825Z" fill="#0074FF"/>
<path d="M37.9741 18.4579C37.3146 18.0687 37.3194 17.1129 37.9829 16.7303L49.5362 10.069C49.8454 9.89079 50.2261 9.89079 50.5352 10.069L62.0886 16.7303C62.7521 17.1129 62.7569 18.0687 62.0973 18.4579L50.5439 25.2755C50.2304 25.4605 49.8411 25.4605 49.5275 25.2755L37.9741 18.4579Z" fill="#FFE000"/>
<path d="M50.5939 88.1941C50.5939 88.9745 49.7399 89.4541 49.0735 89.048L37.9655 82.2782C37.6677 82.0966 37.486 81.7731 37.486 81.4243V69.1327C37.486 68.3523 38.34 67.8727 39.0064 68.2788L50.1144 75.0486C50.4122 75.2302 50.5939 75.5538 50.5939 75.9026V88.1941Z" fill="#0074FF"/>
<path d="M49.2286 88.2234C49.2286 88.9974 50.0702 89.478 50.7368 89.0846L62.2749 82.2761C62.5797 82.0962 62.7667 81.7687 62.7667 81.4149V69.1034C62.7667 68.3294 61.9251 67.8488 61.2585 68.2422L49.7204 75.0507C49.4157 75.2306 49.2286 75.5581 49.2286 75.912V88.2234Z" fill="#0074FF"/>
<path d="M37.9741 69.4988C37.3146 69.1095 37.3194 68.1537 37.9829 67.7712L49.5362 61.1099C49.8454 60.9316 50.2261 60.9316 50.5352 61.1099L62.0886 67.7712C62.7521 68.1537 62.7569 69.1095 62.0973 69.4988L50.5439 76.3164C50.2304 76.5014 49.8411 76.5014 49.5275 76.3164L37.9741 69.4988Z" fill="#FFE000"/>
</svg>
