<svg width="100" height="100" viewBox="0 0 100 100" fill="none" xmlns="http://www.w3.org/2000/svg">
<path d="M58.1344 74.1668C58.1344 77.8487 55.1496 80.8334 51.4677 80.8334H50.2625C46.5806 80.8334 43.5958 77.8487 43.5958 74.1667L58.1344 74.1668Z" fill="#0074FF"/>
<path fill-rule="evenodd" clip-rule="evenodd" d="M45.4819 70.9775C43.0477 70.9775 41.1696 68.7691 40.6464 66.3918C40.2659 64.6633 39.4562 62.8045 37.798 61.5104C32.4178 57.3114 28.6029 51.0623 28.6029 43.7178C28.6029 31.6737 38.3666 21.9099 50.4108 21.9099C62.4549 21.9099 72.2186 31.6737 72.2186 43.7178C72.2186 51.0623 68.588 57.5587 63.0236 61.5104C61.6499 62.7206 61.0182 64.4247 60.7588 66.0542C60.3586 68.5691 58.459 70.9775 55.9124 70.9775L45.4819 70.9775Z" fill="#FFE000"/>
<path d="M57.2393 31.8279H48.6747C48.4259 31.8279 48.2053 31.9857 48.1278 32.219L43.3891 46.4781C43.267 46.8456 43.5443 47.2236 43.936 47.2236H48.4222C48.814 47.2236 49.0913 47.6017 48.9691 47.9693L45.0955 59.6144C44.8904 60.231 45.7238 60.6507 46.1089 60.1247L58.3104 43.4595C58.5856 43.0837 58.3136 42.5582 57.8439 42.5582H53.6662C53.2382 42.5582 52.9599 42.1135 53.1514 41.7357L57.7541 32.6505C57.9456 32.2726 57.6673 31.8279 57.2393 31.8279Z" fill="#0074FF"/>
<rect x="26.4246" y="25.7024" width="2.90771" height="10.5037" rx="1.45386" transform="rotate(135 26.4246 25.7024)" fill="#FFE000"/>
<rect x="24.0466" y="42.2495" width="2.90771" height="10.5037" rx="1.45386" transform="rotate(90 24.0466 42.2495)" fill="#FFE000"/>
<rect x="86.6669" y="42.1323" width="2.90771" height="10.5037" rx="1.45386" transform="rotate(90 86.6669 42.1323)" fill="#FFE000"/>
<rect x="76.3622" y="27.7585" width="2.90771" height="10.5037" rx="1.45386" transform="rotate(-135 76.3622 27.7585)" fill="#FFE000"/>
<rect x="73.9843" y="62.0371" width="2.90771" height="10.5037" rx="1.45386" transform="rotate(-58.01 73.9843 62.0371)" fill="#FFE000"/>
<rect x="24.8392" y="59.5708" width="2.90771" height="10.5037" rx="1.45386" transform="rotate(58.01 24.8392 59.5708)" fill="#FFE000"/>
</svg>
