<svg width="100" height="100" viewBox="0 0 100 100" fill="none" xmlns="http://www.w3.org/2000/svg">
<path fill-rule="evenodd" clip-rule="evenodd" d="M37.8079 41.008C38.6577 41.8579 40.0355 41.8579 40.8854 41.008C41.7352 40.1582 41.7352 38.7804 40.8854 37.9305L31.103 28.1481L39.2171 28.0182C40.3122 28.0007 41.1953 27.1165 41.2117 26.0214C41.2287 24.8782 40.2976 23.9471 39.1544 23.9641L25.9338 24.1615C24.8526 24.1776 23.9801 25.0502 23.9639 26.1314L23.7666 39.3519C23.7495 40.4951 24.6807 41.4263 25.8239 41.4092C26.919 41.3929 27.8031 40.5097 27.8206 39.4146L27.9529 31.1531L37.8079 41.008Z" fill="#0074FF"/>
<path fill-rule="evenodd" clip-rule="evenodd" d="M59.1886 38.0052C58.3388 38.8551 58.3388 40.2329 59.1886 41.0828C60.0384 41.9326 61.4163 41.9326 62.2661 41.0828L72.0485 31.3004L72.1784 39.4145C72.1959 40.5096 73.0801 41.3928 74.1752 41.4091C75.3184 41.4262 76.2495 40.495 76.2324 39.3518L76.0351 26.1313C76.019 25.0501 75.1464 24.1775 74.0652 24.1614L60.8447 23.964C59.7015 23.947 58.7703 24.8781 58.7874 26.0213C58.8037 27.1164 59.6869 28.0005 60.7819 28.0181L69.0434 28.1504L59.1886 38.0052Z" fill="#FFE000"/>
<path fill-rule="evenodd" clip-rule="evenodd" d="M40.8104 61.9947C41.6603 61.1448 41.6603 59.767 40.8104 58.9171C39.9606 58.0673 38.5828 58.0673 37.7329 58.9171L27.9508 68.6992L27.8209 60.5853C27.8033 59.4903 26.9192 58.6071 25.8241 58.5908C24.6809 58.5737 23.7497 59.5049 23.7668 60.6481L23.9641 73.8686C23.9803 74.9498 24.8529 75.8224 25.9341 75.8385L39.1546 76.0358C40.2978 76.0529 41.2289 75.1218 41.2119 73.9786C41.1955 72.8835 40.3124 71.9993 39.2173 71.9818L30.9556 71.8495L40.8104 61.9947Z" fill="#FFE000"/>
<path fill-rule="evenodd" clip-rule="evenodd" d="M62.1915 58.992C61.3417 58.1421 59.9638 58.1421 59.114 58.992C58.2642 59.8418 58.2642 61.2196 59.114 62.0695L68.8964 71.8519L60.7823 71.9818C59.6872 71.9993 58.8041 72.8835 58.7877 73.9786C58.7707 75.1218 59.7018 76.0529 60.845 76.0358L74.0655 75.8385C75.1467 75.8224 76.0193 74.9498 76.0355 73.8686L76.2328 60.6481C76.2499 59.5049 75.3187 58.5737 74.1755 58.5908C73.0804 58.6071 72.1963 59.4903 72.1787 60.5853L72.0464 68.8469L62.1915 58.992Z" fill="#0074FF"/>
<path d="M50.3655 59.2003C50.3655 59.6161 49.9103 59.8715 49.5554 59.6548L41.653 54.8294C41.4946 54.7327 41.3979 54.5605 41.3979 54.3749V45.5925C41.3979 45.1767 41.8532 44.9213 42.208 45.138L50.1105 49.9633C50.2689 50.0601 50.3655 50.2323 50.3655 50.4178V59.2003Z" fill="#0074FF"/>
<path d="M49.4468 59.217C49.4468 59.6292 49.895 59.8852 50.25 59.6757L58.4643 54.8284C58.6266 54.7327 58.7262 54.5582 58.7262 54.3698V45.5761C58.7262 45.1639 58.278 44.9079 57.923 45.1174L49.7087 49.9647C49.5464 50.0605 49.4468 50.2349 49.4468 50.4233V59.217Z" fill="#0074FF"/>
<path d="M41.5066 45.9815C41.1554 45.7742 41.158 45.2652 41.5113 45.0615L49.7338 40.3207C49.8984 40.2258 50.1011 40.2258 50.2658 40.3207L58.4883 45.0615C58.8416 45.2652 58.8441 45.7742 58.4929 45.9815L50.2704 50.8336C50.1034 50.9321 49.8961 50.9321 49.7291 50.8336L41.5066 45.9815Z" fill="#FFE000"/>
</svg>
