<svg width="53" height="52" viewBox="0 0 53 52" fill="none" xmlns="http://www.w3.org/2000/svg">
<circle cx="26.0297" cy="26" r="26" fill="#5865F2"/>
<path d="M38.2279 15.1775C36.054 14.1602 33.7296 13.421 31.2994 13C31.001 13.5397 30.6523 14.2655 30.4119 14.8429C27.8286 14.4544 25.2691 14.4544 22.7333 14.8429C22.4929 14.2655 22.1363 13.5397 21.8352 13C19.4024 13.421 17.0753 14.163 14.9014 15.1829C10.5166 21.8097 9.32795 28.2719 9.92228 34.6424C12.8305 36.8144 15.6489 38.1339 18.4198 38.9973C19.1039 38.0556 19.7141 37.0546 20.2397 35.9996C19.2386 35.6192 18.2798 35.1497 17.3738 34.6046C17.6142 34.4265 17.8493 34.2404 18.0764 34.0488C23.6023 36.6337 29.6063 36.6337 35.0661 34.0488C35.296 34.2404 35.531 34.4265 35.7687 34.6046C34.8601 35.1523 33.8986 35.6218 32.8975 36.0023C33.4232 37.0546 34.0307 38.0584 34.7175 39C37.491 38.1366 40.312 36.8172 43.2203 34.6424C43.9176 27.2574 42.029 20.8545 38.2279 15.1775ZM20.9925 30.7246C19.3337 30.7246 17.9734 29.1758 17.9734 27.2898C17.9734 25.4037 19.3047 23.8522 20.9925 23.8522C22.6805 23.8522 24.0408 25.401 24.0117 27.2898C24.0143 29.1758 22.6805 30.7246 20.9925 30.7246ZM32.15 30.7246C30.4912 30.7246 29.1308 29.1758 29.1308 27.2898C29.1308 25.4037 30.4621 23.8522 32.15 23.8522C33.8379 23.8522 35.1982 25.401 35.1692 27.2898C35.1692 29.1758 33.8379 30.7246 32.15 30.7246Z" fill="white"/>
</svg>
