<svg width="100" height="100" viewBox="0 0 100 100" fill="none" xmlns="http://www.w3.org/2000/svg">
<path fill-rule="evenodd" clip-rule="evenodd" d="M52.0456 51.6808C52.0456 43.1254 58.083 35.992 66.0958 34.3765C61.6876 30.0067 55.6422 27.311 48.9727 27.311C42.1724 27.311 36.0211 30.1133 31.5924 34.6352C39.053 36.6538 44.5456 43.5205 44.5456 51.6808C44.5456 59.9872 38.8544 66.9533 31.1896 68.8301C35.6442 73.5985 41.9637 76.5755 48.9727 76.5755C55.8648 76.5755 62.0903 73.6969 66.5315 69.067C58.3028 67.6265 52.0456 60.3905 52.0456 51.6808Z" fill="#0074FF"/>
<path d="M39.8155 51.7738C39.8155 59.1481 33.8872 65.1261 26.5744 65.1261C19.2616 65.1261 13.3334 59.1481 13.3334 51.7738C13.3334 44.3996 19.2616 38.4215 26.5744 38.4215C33.8872 38.4215 39.8155 44.3996 39.8155 51.7738Z" fill="#FFE000"/>
<path d="M33.7042 51.6012C33.7042 51.0387 34.1602 50.5741 34.7228 50.5741C35.2853 50.5741 35.7413 51.0387 35.7413 51.6012C35.7413 52.1637 35.2853 52.6283 34.7228 52.6283C34.1602 52.6283 33.7042 52.1637 33.7042 51.6012Z" fill="#FF9700"/>
<path d="M17.4077 51.6012C17.4077 51.0387 17.8637 50.5741 18.4263 50.5741C18.9888 50.5741 19.4448 51.0387 19.4448 51.6012C19.4448 52.1637 18.9888 52.6283 18.4263 52.6283C17.8637 52.6283 17.4077 52.1637 17.4077 51.6012Z" fill="#FF9700"/>
<path d="M25.7212 47.781C26.019 46.8566 27.3269 46.8566 27.6248 47.781L28.0183 49.0025C28.1515 49.4157 28.536 49.6958 28.9702 49.6958H30.2615C31.2281 49.6958 31.6323 50.9311 30.8525 51.5025L29.7934 52.2784C29.4459 52.533 29.3005 52.9816 29.4326 53.3917L29.8337 54.6366C30.1311 55.5594 29.073 56.3229 28.2909 55.7499L27.264 54.9975C26.9121 54.7398 26.4338 54.7398 26.082 54.9975L25.055 55.7499C24.273 56.3229 23.2149 55.5594 23.5122 54.6366L23.9133 53.3917C24.0455 52.9816 23.9001 52.533 23.5525 52.2784L22.4935 51.5025C21.7137 50.9311 22.1178 49.6958 23.0845 49.6958H24.3758C24.8099 49.6958 25.1944 49.4157 25.3276 49.0025L25.7212 47.781Z" fill="#FF9700"/>
<path d="M83.1488 51.5877C83.1488 58.9619 77.2206 64.94 69.9078 64.94C62.595 64.94 56.6667 58.9619 56.6667 51.5877C56.6667 44.2134 62.595 38.2354 69.9078 38.2354C77.2206 38.2354 83.1488 44.2134 83.1488 51.5877Z" fill="#FFE000"/>
<path d="M61.7593 51.5877C61.7593 51.0251 62.2153 50.5605 62.7778 50.5605C63.3403 50.5605 63.7964 51.0251 63.7964 51.5877C63.7964 52.1502 63.3403 52.6148 62.7778 52.6148C62.2153 52.6148 61.7593 52.1502 61.7593 51.5877Z" fill="#FF9700"/>
<path d="M76.0193 51.5877C76.0193 51.0251 76.4753 50.5605 77.0378 50.5605C77.6004 50.5605 78.0564 51.0251 78.0564 51.5877C78.0564 52.1502 77.6004 52.6148 77.0378 52.6148C76.4753 52.6148 76.0193 52.1502 76.0193 51.5877Z" fill="#FF9700"/>
<path d="M70.9265 45.4592V44.8204C70.9265 44.2579 70.4705 43.8019 69.908 43.8019C69.3455 43.8019 68.8894 44.2579 68.8894 44.8204V45.4592C67.2995 45.6107 66.0328 46.8659 65.8537 48.4663C65.6747 50.0666 66.6325 51.5747 68.1489 52.0797L71.0225 53.0451C71.6511 53.2547 72.0356 53.8942 71.9302 54.5537C71.8242 55.2131 71.2588 55.6971 70.5963 55.6961H69.2197C68.4747 55.6951 67.8714 55.0863 67.8709 54.335V54.0636C67.8709 53.5011 67.4149 53.0451 66.8524 53.0451C66.2898 53.0451 65.8338 53.5011 65.8338 54.0636V54.335C65.8393 56.0868 67.1607 57.5487 68.8894 57.7162V58.1452C68.8894 58.7077 69.3455 59.1637 69.908 59.1637C70.4705 59.1637 70.9265 58.7077 70.9265 58.1452V57.7162C72.5165 57.5647 73.7832 56.31 73.9623 54.7091C74.1413 53.1088 73.1834 51.6007 71.6671 51.0957L68.7935 50.1303C68.1648 49.9207 67.7804 49.2812 67.8858 48.6217C67.9918 47.9623 68.5572 47.4783 69.2197 47.4793H70.5963C71.3413 47.4803 71.9446 48.0891 71.9451 48.8404V49.1118C71.9451 49.6743 72.4011 50.1303 72.9636 50.1303C73.5261 50.1303 73.9822 49.6743 73.9822 49.1118V48.8404C73.9767 47.0886 72.6553 45.6267 70.9265 45.4592Z" fill="#FF9700"/>
<path d="M66.6836 29.0542L70.7337 28.5746C71.4787 28.4864 72.0129 27.8068 71.9267 27.0568L71.4575 22.9755C71.3718 22.2293 70.702 21.6956 69.9616 21.7833C69.2146 21.8717 68.6825 22.5583 68.7783 23.3099L68.8638 23.9804C69.007 25.1026 68.211 26.1273 67.0953 26.2569L66.3747 26.3407C65.6299 26.4272 65.0952 27.1067 65.1815 27.857C65.2676 28.6063 65.9401 29.1422 66.6836 29.0542Z" fill="#0074FF"/>
<path d="M70.2955 27.1246C65.4434 22.2971 48.2534 12.9985 31.3324 26.5298" stroke="#0074FF" stroke-width="2.8" stroke-linecap="round"/>
<path d="M34.4197 75.8671L30.3932 76.5067C29.6524 76.6243 29.1457 77.3247 29.2615 78.0709L29.892 82.1317C30.0072 82.8738 30.6974 83.3805 31.4336 83.2636C32.1763 83.1456 32.6808 82.4386 32.5553 81.6915L32.4432 81.0243C32.2557 79.9084 33.0106 78.8527 34.1204 78.6789L34.8359 78.5669C35.5768 78.4508 36.0841 77.7506 35.9682 77.0041C35.8525 76.2587 35.1592 75.7496 34.4197 75.8671Z" fill="#0074FF"/>
<path d="M30.8713 77.8826C35.9108 82.5143 53.456 91.1247 69.8287 76.9331" stroke="#0074FF" stroke-width="2.8" stroke-linecap="round"/>
</svg>
