<svg width="332" height="166" viewBox="0 0 332 166" fill="none" xmlns="http://www.w3.org/2000/svg">
<path d="M0 12C0 5.37259 5.37258 0 12 0H320C326.627 0 332 5.37258 332 12V166H0V12Z" fill="#050A5A"/>
<rect x="69" y="30" width="28" height="4" fill="white"/>
<rect x="158" y="126" width="24" height="4" fill="white"/>
<rect width="60" height="1" transform="matrix(1 0 0 -1 128 12)" fill="white"/>
<rect width="50" height="1" transform="matrix(1 0 0 -1 0 39)" fill="#F2F4F5"/>
<rect x="35" y="146" width="21" height="1" fill="white"/>
<rect width="60" height="1" transform="matrix(1 0 0 -1 99 137)" fill="#F2F4F5"/>
<rect x="220" y="111" width="82" height="1" fill="white"/>
<path d="M7.00002 3.28418L7.00001 16.5105L71.1426 16.5105L71.1426 3.28418L7.00002 3.28418Z" fill="#121A9C" fill-opacity="0.5"/>
<path d="M7.00001 27.7492L7.00001 46.7328C7.00001 64.1604 21.3331 78.2425 39.0713 78.2425C56.8095 78.2425 71.1426 64.1604 71.1426 46.7328L71.1426 27.7492L7.00001 27.7492ZM20.462 40.9755L57.6806 40.9755L57.6806 46.7328C57.6806 56.9248 49.445 65.0162 39.0713 65.0162C28.6184 65.0162 20.462 57.0026 20.462 46.7328L20.462 40.9755Z" fill="#121A9C" fill-opacity="0.5"/>
<path d="M83.9391 71.1033H97.7129V1.71333H83.9391V71.1033Z" fill="#121A9C" fill-opacity="0.5"/>
<path d="M149.847 71.1033H165.403L134.534 0L103.664 71.1033H119.22L122.947 61.68H146.12L149.847 71.1033ZM128.052 48.83L134.534 32.382L141.015 48.83H128.052Z" fill="#121A9C" fill-opacity="0.5"/>
<path d="M40.8468 158.861H56.4031L25.5336 87.7578L0.286621 145.911V158.861H10.2204L13.9474 149.438H37.1198L40.8468 158.861ZM19.0518 136.588L25.5336 120.14L32.0154 136.588H19.0518Z" fill="#121A9C" fill-opacity="0.5"/>
<path d="M64 91.042L64 104.268L128.143 104.268L128.143 91.042L64 91.042Z" fill="#121A9C" fill-opacity="0.5"/>
<path d="M64 115.507L64 134.491C64 151.918 78.3331 166 96.0713 166C113.809 166 128.143 151.918 128.143 134.491L128.143 115.507L64 115.507ZM77.462 128.733L114.681 128.733L114.681 134.491C114.681 144.683 106.445 152.774 96.0713 152.774C85.6184 152.774 77.462 144.76 77.462 134.491L77.462 128.733Z" fill="#121A9C" fill-opacity="0.5"/>
<path d="M140.939 158.861H154.713V89.4711H140.939V158.861Z" fill="#121A9C" fill-opacity="0.5"/>
<path d="M206.847 158.861H222.403L191.534 87.7578L160.664 158.861H176.22L179.947 149.438H203.12L206.847 158.861ZM185.052 136.588L191.534 120.14L198.015 136.588H185.052Z" fill="#121A9C" fill-opacity="0.5"/>
<path d="M173 3.28418L173 16.5105L237.143 16.5105L237.143 3.28418L173 3.28418Z" fill="#121A9C" fill-opacity="0.5"/>
<path d="M173 27.7492L173 46.7328C173 64.1604 187.333 78.2425 205.071 78.2425C222.809 78.2425 237.143 64.1604 237.143 46.7328L237.143 27.7492L173 27.7492ZM186.462 40.9755L223.681 40.9755L223.681 46.7328C223.681 56.9248 215.445 65.0162 205.071 65.0162C194.618 65.0162 186.462 57.0026 186.462 46.7328L186.462 40.9755Z" fill="#121A9C" fill-opacity="0.5"/>
<path d="M249.939 71.1033H263.713V1.71333H249.939V71.1033Z" fill="#121A9C" fill-opacity="0.5"/>
<path d="M315.847 71.1033H331.403L300.534 0L269.664 71.1033H285.22L288.947 61.68H312.12L315.847 71.1033ZM294.052 48.83L300.534 32.382L307.015 48.83H294.052Z" fill="#121A9C" fill-opacity="0.5"/>
<path d="M230 91.042L230 104.268L294.143 104.268L294.143 91.042L230 91.042Z" fill="#121A9C" fill-opacity="0.5"/>
<path d="M230 115.507L230 134.491C230 151.918 244.333 166 262.071 166C279.809 166 294.143 151.918 294.143 134.491L294.143 115.507L230 115.507ZM243.462 128.733L280.681 128.733L280.681 134.491C280.681 144.683 272.445 152.774 262.071 152.774C251.618 152.774 243.462 144.76 243.462 134.491L243.462 128.733Z" fill="#121A9C" fill-opacity="0.5"/>
<path d="M306.939 158.861H320.713V89.4712H306.939V158.861Z" fill="#121A9C" fill-opacity="0.5"/>
<path d="M332 146.571L326.664 158.861H332V146.571Z" fill="#121A9C" fill-opacity="0.5"/>
<g clip-path="url(#clip0)">
<path d="M52.068 64.6094L52.2111 112.906L43.3459 118L43.2107 69.7032L52.068 64.6094Z" fill="#FF1A93"/>
<path d="M43.3459 118L32.1352 111.522L32 63.2173L43.2107 69.7033L43.3459 118Z" fill="#28ACFF"/>
<path d="M43.2107 69.7033L32 63.2173L40.8652 58.1313L52.068 64.6094L43.2107 69.7033Z" fill="#5CFFBF"/>
<path d="M101.968 68.6114L90.7491 62.1333C92.9435 63.3989 94.2872 66.0882 94.3031 69.9956C94.3031 70.4543 94.3031 70.9131 94.2475 71.3719C94.2475 71.5222 94.2475 71.6724 94.1998 71.8227C94.1998 72.1233 94.1362 72.416 94.0964 72.7165C94.0566 73.0171 93.9851 73.4126 93.9135 73.7685C93.8738 73.9663 93.842 74.1719 93.8022 74.3776C93.7625 74.5832 93.6989 74.7889 93.6512 74.9866C93.6034 75.1844 93.5001 75.5799 93.4126 75.8725C93.4126 76.0307 93.3172 76.1968 93.2695 76.355C93.1661 76.6793 93.0628 77.0036 92.9435 77.3279C92.8958 77.4624 92.8481 77.6047 92.7925 77.7392C92.6255 78.1901 92.4506 78.633 92.2597 79.076C92.0689 79.511 91.8543 79.946 91.6396 80.3811C91.5839 80.4997 91.5203 80.6104 91.4647 80.7291C91.2738 81.1008 91.0751 81.4647 90.8683 81.8285C90.8286 81.8918 90.7968 81.963 90.757 82.0342C90.5106 82.4455 90.2561 82.8252 89.9619 83.2602L89.7234 83.6082C89.5326 83.9009 89.3259 84.1936 89.1191 84.4783L88.7932 84.9133C88.6103 85.1585 88.4195 85.3879 88.2366 85.6252C88.0537 85.8625 87.9345 85.997 87.7755 86.1789L87.3302 86.6772C87.0599 86.9778 86.7816 87.2704 86.5351 87.5552L85.9945 88.0851L85.5651 88.4885L84.8734 89.0818L84.4361 89.4377C84.1816 89.6355 83.9193 89.8253 83.641 90.0151L83.2832 90.3394C82.8857 90.6004 82.4881 90.8615 82.0826 91.0908L78.2264 93.3056L89.4292 99.7916L93.2934 97.5689C93.6989 97.3395 94.0884 97.0864 94.486 96.7779L94.8676 96.5011C95.13 96.3192 95.3924 96.1293 95.6627 95.9237L96.0921 95.5678C96.3306 95.3779 96.5612 95.1802 96.7838 94.9745L97.2211 94.5711L97.5153 94.2943C97.6027 94.2152 97.6743 94.1203 97.7618 94.0412C98.04 93.7564 98.3183 93.4638 98.5568 93.1632C98.6523 93.0683 98.7477 92.9734 98.8351 92.8705L99.01 92.6649L99.4632 92.1112C99.5825 91.9688 99.7018 91.8344 99.8131 91.692L100.028 91.4072C100.131 91.2569 100.242 91.1146 100.354 90.9643C100.465 90.814 100.521 90.7349 100.608 90.6163C100.696 90.4976 100.839 90.2682 100.958 90.0942L101.189 89.7541L101.3 89.588C101.515 89.2637 101.713 88.9236 101.912 88.5914V88.5202L102.031 88.3145L102.429 87.5947C102.5 87.4682 102.564 87.3416 102.628 87.2151C102.691 87.0885 102.739 86.9857 102.803 86.867L102.946 86.5823C103.113 86.2422 103.264 85.9021 103.415 85.5619C103.566 85.206 103.717 84.8501 103.852 84.4941C103.852 84.4071 103.916 84.3201 103.948 84.2331C103.979 84.1461 104.051 83.9563 104.099 83.8218L104.266 83.3551C104.321 83.189 104.369 83.0229 104.417 82.8489C104.464 82.6749 104.52 82.5246 104.568 82.3664C104.615 82.2082 104.623 82.2003 104.647 82.1212C104.703 81.9076 104.751 81.6941 104.798 81.4884C104.846 81.2828 104.91 81.0771 104.949 80.8715C104.966 80.817 104.98 80.7616 104.989 80.7054C104.989 80.5551 105.037 80.4127 105.069 80.2624C105.132 79.9144 105.196 79.5584 105.251 79.2104C105.251 79.1313 105.251 79.0522 105.251 78.9731C105.251 78.7517 105.251 78.5381 105.315 78.3166L105.363 77.8737C105.363 77.407 105.411 76.9482 105.411 76.4895C105.498 72.59 104.146 69.8769 101.968 68.6114Z" fill="#5CFFBF"/>
<path d="M93.2218 59.3649C104.862 52.6575 114.339 58.0282 114.379 71.3561C114.419 84.684 105.005 100.954 93.3252 107.662L80.6038 114.97L80.4686 66.6735L93.2218 59.3649ZM93.3332 97.5294C100.219 93.5745 105.57 84.3439 105.546 76.4737C105.522 68.6035 100.044 65.5741 93.2218 69.5052L89.3577 71.7199L89.4372 99.752L93.3013 97.5294" fill="#FF1A93"/>
<path d="M80.5878 114.971L69.3851 108.493L69.2419 60.1958L80.4527 66.6739L80.5878 114.971Z" fill="#28ACFF"/>
<path d="M94.9078 58.4555C95.2497 58.2973 95.5916 58.1391 95.9256 57.9967L96.2754 57.8465L97.1977 57.4905L97.4203 57.4114C97.802 57.277 98.2154 57.1662 98.5573 57.0634L99.1934 56.8973L99.583 56.8261C99.901 56.7549 100.211 56.6995 100.513 56.6521C100.998 56.5809 101.459 56.5414 101.921 56.5097H102.207C102.62 56.5097 103.002 56.5097 103.423 56.5097H103.638C103.964 56.5097 104.274 56.573 104.584 56.6205L104.878 56.6679C105.233 56.7312 105.583 56.8103 105.928 56.9052H105.991C106.309 57.0001 106.619 57.1109 106.93 57.2374L107.2 57.3481C107.462 57.4668 107.725 57.5854 107.995 57.7278C108.082 57.7652 108.167 57.8075 108.249 57.8544L97.0148 51.4079L96.8956 51.3447L96.7604 51.2814C96.5027 51.1401 96.2373 51.0133 95.9653 50.9017L95.8222 50.8305L95.7109 50.791C95.4087 50.6644 95.0907 50.5537 94.8124 50.4588H94.7647C94.3751 50.3401 94.0173 50.261 93.6596 50.1977H93.5403H93.3733C93.0632 50.1028 92.7452 50.0633 92.4272 50.0396H92.2682H92.2125C91.807 50.0396 91.4174 50.0396 90.9881 50.0396H90.837H90.678C90.2168 50.0396 89.7477 50.087 89.2707 50.1819L88.3404 50.3401L88.0144 50.4192L87.434 50.5616H87.3704C86.9967 50.6644 86.5753 50.7831 86.2334 50.9175L86.0188 50.9887L85.0647 51.3526L84.9454 51.4L84.7148 51.5029C84.3809 51.6452 84.039 51.8034 83.7051 51.9616L83.3234 52.1515C82.8782 52.3729 82.4329 52.6102 81.9797 52.8712L69.2583 60.1798L80.469 66.6579L93.1905 59.3493C93.6437 59.0883 94.0889 58.851 94.5342 58.6295L94.9078 58.4555Z" fill="#5CFFBF"/>
<path d="M147.2 58.25L147.344 106.547L138.47 111.641L138.335 63.3439L147.2 58.25Z" fill="#FF1A93"/>
<path d="M138.47 111.641L127.268 105.163L127.124 56.8657L138.335 63.3438L138.47 111.641Z" fill="#28ACFF"/>
<path d="M138.335 63.3439L127.124 56.8658L135.998 51.772L147.2 58.25L138.335 63.3439Z" fill="#5CFFBF"/>
<path d="M196.939 100.646L185.736 94.1676L183.311 88.9946L194.522 95.4727L196.939 100.646Z" fill="#5CFFBF"/>
<path d="M182.858 93.2103L171.655 86.7323L180.004 81.939L191.214 88.417L182.858 93.2103Z" fill="#00FFB9"/>
<path d="M191.214 88.4175L180.004 81.9395L175.798 72.8828L187.008 79.3609L191.214 88.4175Z" fill="#28ACFF"/>
<path d="M186.945 56.8179L206.957 94.8953L196.939 100.622L194.554 95.449L179.614 104.039L177.229 111.949L167.211 117.707L186.945 56.8179ZM182.858 93.2027L191.214 88.4094L187.008 79.3606L182.858 93.2106" fill="#FF1A93"/>
<path d="M167.203 117.731L156 111.253L175.734 50.3398L186.945 56.8179L167.203 117.731Z" fill="#28ACFF"/>
</g>
<path d="M221.584 80H225.324V72.96H232.144V69.22H225.324V65.92H233.024V62.18H221.584V80ZM236.944 66.954C238.11 66.954 239.056 66.03 239.056 64.864C239.056 63.698 238.11 62.774 236.944 62.774C235.778 62.774 234.832 63.72 234.832 64.864C234.832 66.008 235.778 66.954 236.944 66.954ZM235.096 80H238.792V68.032H235.096V80ZM248.465 71.464V67.834C248.333 67.812 248.179 67.812 248.047 67.812C247.035 67.812 245.913 68.34 245.495 69.638V68.032H241.777V80H245.495V74.654C245.495 71.904 246.815 71.09 248.465 71.464ZM254.655 80.22C257.383 80.22 259.165 78.702 259.165 76.282C259.165 73.796 257.273 72.96 255.579 72.366C254.061 71.838 253.753 71.728 253.753 71.288C253.753 70.87 254.039 70.716 254.435 70.716C255.117 70.716 256.173 71.156 256.965 71.75L259.187 69.506C257.999 68.538 256.393 67.812 254.589 67.812C252.015 67.812 250.145 69.308 250.145 71.662C250.145 73.356 251.113 74.39 253.577 75.292C254.831 75.754 255.535 75.842 255.535 76.458C255.535 76.876 255.183 77.096 254.655 77.096C253.841 77.096 252.587 76.568 251.685 75.974L249.573 78.57C250.783 79.428 252.675 80.22 254.655 80.22ZM262.429 80H266.169V71.222H268.325V68.032H266.169V64.05H262.429V68.032H260.251V71.222H262.429V80ZM221.584 102H231.704V98.26H225.324V84.18H221.584V102ZM238.633 102.22C239.931 102.22 241.075 101.846 241.977 101.142L242.021 102H245.541V90.032H241.801V90.736C240.943 90.098 239.865 89.768 238.633 89.768C235.377 89.768 232.715 92.562 232.715 95.994C232.715 99.426 235.355 102.22 238.633 102.22ZM239.183 98.744C237.665 98.744 236.455 97.534 236.455 95.994C236.455 94.454 237.643 93.266 239.183 93.266C240.701 93.266 241.889 94.476 241.889 95.994C241.889 97.534 240.701 98.744 239.183 98.744ZM253.495 102.22C256.707 102.22 258.753 100.35 258.753 97.402V90.032H255.013V97.38C255.013 98.326 254.463 98.854 253.495 98.854C252.549 98.854 251.999 98.326 251.999 97.38V90.032H248.259V97.402C248.259 100.35 250.283 102.22 253.495 102.22ZM261.435 102H265.153V94.74C265.175 93.86 265.857 93.2 266.803 93.2C267.705 93.2 268.365 93.838 268.365 94.74V102H272.105V94.388C272.105 91.836 270.147 89.812 267.683 89.812C266.781 89.812 265.901 90.076 265.153 90.78V90.032H261.435V102ZM280.365 102.22C281.355 102.22 282.345 102 283.181 101.582V97.534C282.763 97.93 281.839 98.722 280.475 98.722C278.803 98.722 277.703 97.556 277.703 96.016C277.703 94.454 278.825 93.288 280.475 93.288C281.817 93.288 282.763 94.08 283.181 94.498V90.45C282.345 90.032 281.355 89.812 280.365 89.812C276.845 89.812 274.073 92.518 274.073 96.016C274.073 99.514 276.845 102.22 280.365 102.22ZM285.755 102H289.473V94.718C289.495 93.882 290.199 93.244 291.167 93.244C292.047 93.244 292.685 93.86 292.685 94.696V102H296.425V94.388C296.425 91.814 294.467 89.812 291.937 89.812C291.057 89.812 290.199 90.076 289.473 90.56V84.18H285.755V102Z" fill="white"/>
<defs>
<clipPath id="clip0">
<rect width="180" height="68" fill="white" transform="translate(32 50)"/>
</clipPath>
</defs>
</svg>
