<svg width="120" height="120" viewBox="0 0 120 120" fill="none" xmlns="http://www.w3.org/2000/svg">
<path d="M30.5259 88.4407C30.3662 88.4082 30.209 88.357 30.0579 88.2872C29.4335 87.9982 28.9877 87.4249 28.8615 86.7487C28.82 86.5267 27.8643 81.2327 29.3531 74.6137C30.7369 68.4622 34.5681 59.9578 44.9627 54.3775L44.2187 81.2126L32.0049 88.2029C31.5525 88.4618 31.0262 88.5425 30.5259 88.4407Z" fill="#FFE000"/>
<path d="M73 85.3545L71.9135 89.5063C71.6833 90.3863 70.8882 91 69.9787 91H50.0213C49.1118 91 48.3167 90.3863 48.0865 89.5063L47 85.3545C47 84.4775 48.1369 83.635 50.1913 82.9012V82.9009C52.3563 82.127 55.5435 81.4735 59.4923 81.0269C59.808 80.9912 60.1904 80.991 60.5062 81.0267C64.2713 81.4522 67.3414 82.0658 69.4965 82.7925C69.6029 82.8282 69.7065 82.8645 69.8085 82.9009V82.9012C71.8631 83.635 73 84.4775 73 85.3545Z" fill="#0074FF"/>
<path d="M89.809 88.4407C89.9688 88.4082 90.1259 88.357 90.2771 88.2872C90.9015 87.9982 91.3473 87.4249 91.4735 86.7487C91.5149 86.5267 92.4707 81.2327 90.9819 74.6137C89.598 68.4622 85.7669 59.9578 75.3723 54.3775L76.1163 81.2126L88.33 88.2029C88.7824 88.4618 89.3088 88.5425 89.809 88.4407Z" fill="#FFE000"/>
<path d="M79 45.3524L76.8871 84.1089C76.8293 85.1696 75.9523 86 74.89 86H44.1099C43.0477 86 42.1707 85.1696 42.1129 84.1089L40 45.3524C40 39.0381 41.7053 32.9719 44.787 27.6886V27.6865C48.0344 22.1143 52.8152 17.4089 58.7385 14.1934C59.212 13.9364 59.7855 13.9351 60.2593 14.1921C65.907 17.256 70.5122 21.6738 73.7447 26.9057C73.9044 27.1629 74.0597 27.4247 74.2127 27.6862V27.6884C77.2947 32.9719 79 39.0379 79 45.3524Z" fill="#ECEDEE"/>
<path d="M60 96V113" stroke="#0074FF" stroke-width="2.8" stroke-linecap="round"/>
<path d="M52 96V106" stroke="#0074FF" stroke-width="2.8" stroke-linecap="round"/>
<path d="M68 96V106" stroke="#0074FF" stroke-width="2.8" stroke-linecap="round"/>
<path d="M74 27.9978V28L46 28V27.9978C49.0898 22.299 53.6388 17.4865 59.2746 14.198C59.7257 13.9349 60.2724 13.9336 60.7235 14.1967C66.0971 17.3304 70.4789 21.8486 73.5547 27.1994C73.7066 27.4625 73.8544 27.7302 74 27.9978Z" fill="#FFE000"/>
<path d="M60 64C65.5229 64 70 59.299 70 53.5C70 47.701 65.5229 43 60 43C54.4772 43 50 47.701 50 53.5C50 59.299 54.4772 64 60 64Z" fill="#0074FF"/>
</svg>
