<svg width="120" height="120" viewBox="0 0 120 120" fill="none" xmlns="http://www.w3.org/2000/svg">
<path fill-rule="evenodd" clip-rule="evenodd" d="M50.0507 48.2518C47.7369 48.2518 45.9057 50.2091 46.0596 52.5179L47.2219 69.9522L22.7685 104.941C20.1486 108.689 22.8305 113.836 27.4039 113.836H95.8162C100.39 113.836 103.071 108.689 100.452 104.941L75.9982 69.9521L77.1605 52.5179C77.3144 50.2091 75.4832 48.2518 73.1693 48.2518H50.0507Z" fill="#ECEDEE"/>
<path d="M55.5256 76.6716C59.4441 79.1207 68.6933 82.3645 75.9324 75.4968C71.0575 67.7795 64.5688 76.6716 55.5256 76.6716Z" fill="#050A5A"/>
<path d="M75.574 74.895L94.1752 101.51C96.3717 104.653 94.1231 108.968 90.2888 108.968H32.9311C29.0967 108.968 26.8482 104.653 29.0447 101.51L45.3745 78.1449C58.649 71.9658 63.2786 85.0795 75.574 74.895Z" fill="#0074FF"/>
<path d="M65.4878 94.2865C65.4878 100.528 60.4278 105.588 54.1859 105.588C47.9441 105.588 42.884 100.528 42.884 94.2865C42.884 88.0447 47.9441 82.9846 54.1859 82.9846C60.4278 82.9846 65.4878 88.0447 65.4878 94.2865Z" fill="#FFE000"/>
<path d="M60.2717 94.1404C60.2717 93.6603 60.661 93.2711 61.1411 93.2711C61.6212 93.2711 62.0105 93.6603 62.0105 94.1404C62.0105 94.6206 61.6212 95.0098 61.1411 95.0098C60.661 95.0098 60.2717 94.6206 60.2717 94.1404Z" fill="#FF9700"/>
<path d="M46.3616 94.1404C46.3616 93.6603 46.7508 93.2711 47.2309 93.2711C47.7111 93.2711 48.1003 93.6603 48.1003 94.1404C48.1003 94.6206 47.7111 95.0098 47.2309 95.0098C46.7508 95.0098 46.3616 94.6206 46.3616 94.1404Z" fill="#FF9700"/>
<path d="M53.8896 89.5774C54.0093 89.2089 54.5307 89.2089 54.6504 89.5774L55.5192 92.2513C55.5728 92.4161 55.7264 92.5277 55.8997 92.5277H58.7111C59.0986 92.5277 59.2597 93.0235 58.9463 93.2513L56.6717 94.9038C56.5315 95.0057 56.4729 95.1862 56.5264 95.351L57.3952 98.0249C57.5149 98.3934 57.0932 98.6999 56.7797 98.4721L54.5051 96.8196C54.3649 96.7177 54.1751 96.7177 54.0349 96.8196L51.7604 98.4721C51.4469 98.6999 51.0251 98.3934 51.1448 98.0249L52.0136 95.351C52.0672 95.1862 52.0085 95.0057 51.8683 94.9038L49.5938 93.2513C49.2803 93.0235 49.4414 92.5277 49.8289 92.5277H52.6404C52.8137 92.5277 52.9672 92.4161 53.0208 92.2513L53.8896 89.5774Z" fill="#FF9700"/>
<path fill-rule="evenodd" clip-rule="evenodd" d="M64.5542 102.223C66.7389 100.277 68.1148 97.4423 68.1148 94.2865C68.1148 91.1308 66.7389 88.2964 64.5542 86.3505C66.0614 85.3493 67.8703 84.766 69.8154 84.766C75.0734 84.766 79.3359 89.0285 79.3359 94.2865C79.3359 99.5446 75.0734 103.807 69.8154 103.807C67.8703 103.807 66.0614 103.224 64.5542 102.223Z" fill="#FFE000"/>
<path d="M74.3198 94.2866C74.3198 93.8064 74.7091 93.4172 75.1892 93.4172C75.6693 93.4172 76.0586 93.8064 76.0586 94.2866C76.0586 94.7667 75.6693 95.1559 75.1892 95.1559C74.7091 95.1559 74.3198 94.7667 74.3198 94.2866Z" fill="#FF9700"/>
<path fill-rule="evenodd" clip-rule="evenodd" d="M68.1068 94.5907C68.1096 94.4897 68.1111 94.3883 68.1111 94.2866C68.1111 92.9108 67.8496 91.596 67.3735 90.3894C67.7644 90.0371 68.2665 89.806 68.8213 89.7536V89.3966C68.8213 88.977 69.1614 88.6369 69.581 88.6369C70.0006 88.6369 70.3407 88.977 70.3407 89.3966V89.7536C71.6301 89.8775 72.6157 90.9588 72.6198 92.2545V92.2918C72.6198 92.7114 72.2797 93.0515 71.8601 93.0515C71.4405 93.0515 71.1004 92.7114 71.1004 92.2918V92.2545C71.1 91.6988 70.6501 91.2485 70.0944 91.2477H69.0676C68.5735 91.247 68.1517 91.605 68.0727 92.0928C67.9941 92.5806 68.2808 93.0535 68.7497 93.2086L70.893 93.9227C72.0241 94.2962 72.7385 95.4117 72.605 96.5954C72.4714 97.7795 71.5266 98.7076 70.3407 98.8196V99.1255C70.3407 99.5451 70.0006 99.8853 69.581 99.8853C69.1614 99.8853 68.8213 99.5451 68.8213 99.1255V98.8196C68.2639 98.766 67.7632 98.5336 67.3741 98.1822C67.645 97.4954 67.8463 96.7736 67.9695 96.0254C68.0275 96.1085 68.0616 96.2096 68.0616 96.3186C68.0619 96.8743 68.5119 97.3247 69.0676 97.3254H70.0944C70.5885 97.3262 71.0103 96.9682 71.0893 96.4804C71.1679 95.9926 70.8812 95.5196 70.4123 95.3646L68.2689 94.6505C68.2139 94.6323 68.1598 94.6124 68.1068 94.5907Z" fill="#FF9700"/>
<path d="M59.0647 37.8364C59.0647 41.1187 56.4038 43.7796 53.1215 43.7796C49.8391 43.7796 47.1782 41.1187 47.1782 37.8364C47.1782 34.554 49.8391 31.8931 53.1215 31.8931C56.4038 31.8931 59.0647 34.554 59.0647 37.8364Z" fill="#0074FF"/>
<path d="M77.9087 32.6242C77.9087 35.9065 75.2478 38.5674 71.9654 38.5674C68.6831 38.5674 66.0222 35.9065 66.0222 32.6242C66.0222 29.3418 68.6831 26.6809 71.9654 26.6809C75.2478 26.6809 77.9087 29.3418 77.9087 32.6242Z" fill="#0074FF"/>
<path d="M62.8314 21.4696C62.8314 23.5499 61.145 25.2363 59.0647 25.2363C56.9845 25.2363 55.2981 23.5499 55.2981 21.4696C55.2981 19.3894 56.9845 17.703 59.0647 17.703C61.145 17.703 62.8314 19.3894 62.8314 21.4696Z" fill="#0074FF"/>
</svg>
