<svg width="120" height="120" viewBox="0 0 120 120" fill="none" xmlns="http://www.w3.org/2000/svg">
<path d="M81.0214 58.6889L84.8197 60.5019C85.5187 60.8355 86.3559 60.5393 86.6895 59.8404L88.5056 56.0355C88.8372 55.3409 88.5428 54.509 87.8482 54.1775C87.1474 53.843 86.3084 54.1457 85.9827 54.8506L85.6572 55.5552C85.1891 56.5683 83.9823 57.0023 82.9762 56.5193L82.2311 56.1617C81.5325 55.8264 80.6944 56.1219 80.3606 56.8212C80.0273 57.5194 80.3232 58.3557 81.0214 58.6889Z" fill="#0074FF"/>
<path d="M84.4315 57.0536C81.3217 46.9535 71.9 39.6113 60.7599 39.6113C47.0854 39.6113 36 50.6743 36 64.3212C36 77.9681 47.0854 89.0312 60.7599 89.0312C71.1741 89.0312 80.0865 82.6146 83.7444 73.5269" stroke="#0074FF" stroke-width="2.8" stroke-linecap="round"/>
<path d="M92.7442 66.5076C92.7442 69.122 90.6249 71.2413 88.0106 71.2413C85.3962 71.2413 83.2769 69.122 83.2769 66.5076C83.2769 63.8933 85.3962 61.7739 88.0106 61.7739C90.6249 61.7739 92.7442 63.8933 92.7442 66.5076Z" fill="#FFE000"/>
<path d="M85.0974 66.5076C85.0974 66.3065 85.2604 66.1435 85.4615 66.1435C85.6626 66.1435 85.8257 66.3065 85.8257 66.5076C85.8257 66.7087 85.6626 66.8718 85.4615 66.8718C85.2604 66.8718 85.0974 66.7087 85.0974 66.5076Z" fill="#FF9700"/>
<path d="M90.1951 66.5076C90.1951 66.3065 90.3581 66.1435 90.5592 66.1435C90.7603 66.1435 90.9233 66.3065 90.9233 66.5076C90.9233 66.7087 90.7603 66.8718 90.5592 66.8718C90.3581 66.8718 90.1951 66.7087 90.1951 66.5076Z" fill="#FF9700"/>
<path d="M88.3749 64.3349V64.1115C88.3749 63.9104 88.2119 63.7474 88.0108 63.7474C87.8097 63.7474 87.6467 63.9104 87.6467 64.1115V64.3349C87.0782 64.3886 86.6254 64.8337 86.5614 65.401C86.4974 65.9684 86.8398 66.503 87.3819 66.682L88.4092 67.0243C88.634 67.0986 88.7714 67.3253 88.7337 67.5591C88.6958 67.7929 88.4937 67.9645 88.2569 67.9641H87.7647C87.4984 67.9638 87.2827 67.7479 87.2825 67.4816V67.3884C87.2825 67.1873 87.1195 67.0243 86.9184 67.0243C86.7173 67.0243 86.5543 67.1873 86.5543 67.3884V67.4816C86.5562 68.1026 87.0286 68.6209 87.6467 68.6803V68.8294C87.6467 69.0305 87.8097 69.1935 88.0108 69.1935C88.2119 69.1935 88.3749 69.0305 88.3749 68.8294V68.6803C88.9433 68.6266 89.3962 68.1818 89.4602 67.6142C89.5242 67.0469 89.1818 66.5122 88.6397 66.3332L87.6123 65.9909C87.3876 65.9166 87.2502 65.6899 87.2879 65.4561C87.3257 65.2223 87.5279 65.0507 87.7647 65.0511H88.2569C88.5232 65.0515 88.7389 65.2673 88.739 65.5336V65.6268C88.739 65.8279 88.9021 65.9909 89.1032 65.9909C89.3043 65.9909 89.4673 65.8279 89.4673 65.6268V65.5336C89.4653 64.9126 88.9929 64.3943 88.3749 64.3349Z" fill="#FF9700"/>
<path d="M24.4774 58.5C24.1633 60.4536 24 62.4578 24 64.5C24 85.2107 40.7893 102 61.5 102C82.2107 102 99 85.2107 99 64.5C99 43.7893 82.2107 27 61.5 27C59.8047 27 58.1357 27.1125 56.5 27.3304" stroke="#0074FF" stroke-width="2.8" stroke-linecap="round"/>
<path d="M54.1623 97.6193C54.1623 101.685 50.8667 104.98 46.8014 104.98C42.736 104.98 39.4404 101.685 39.4404 97.6193C39.4404 93.554 42.736 90.2584 46.8014 90.2584C50.8667 90.2584 54.1623 93.554 54.1623 97.6193Z" fill="#FFE000"/>
<path d="M42.2717 97.6193C42.2717 97.3066 42.5252 97.0531 42.838 97.0531C43.1507 97.0531 43.4042 97.3066 43.4042 97.6193C43.4042 97.932 43.1507 98.1856 42.838 98.1856C42.5252 98.1856 42.2717 97.932 42.2717 97.6193Z" fill="#FF9700"/>
<path d="M50.1987 97.6193C50.1987 97.3066 50.4522 97.0531 50.765 97.0531C51.0777 97.0531 51.3312 97.3066 51.3312 97.6193C51.3312 97.932 51.0777 98.1856 50.765 98.1856C50.4522 98.1856 50.1987 97.932 50.1987 97.6193Z" fill="#FF9700"/>
<path d="M47.3681 94.2408V93.8933C47.3681 93.5806 47.1146 93.3271 46.8019 93.3271C46.4892 93.3271 46.2357 93.5806 46.2357 93.8933V94.2408C45.3518 94.3243 44.6476 95.0163 44.5481 95.8985C44.4485 96.7808 44.981 97.6121 45.824 97.8905L47.4215 98.4228C47.771 98.5383 47.9847 98.8908 47.9261 99.2544C47.8672 99.618 47.5528 99.8848 47.1845 99.8842H46.4193C46.0051 99.8837 45.6697 99.548 45.6694 99.1339V98.989C45.6694 98.6763 45.4159 98.4228 45.1032 98.4228C44.7905 98.4228 44.537 98.6763 44.537 98.989V99.1339C44.54 100.1 45.2746 100.906 46.2357 100.998V101.23C46.2357 101.542 46.4892 101.796 46.8019 101.796C47.1146 101.796 47.3681 101.542 47.3681 101.23V100.998C48.252 100.914 48.9562 100.223 49.0557 99.3401C49.1553 98.4579 48.6228 97.6265 47.7798 97.3481L46.1823 96.8159C45.8328 96.7003 45.6191 96.3478 45.6777 95.9842C45.7366 95.6207 46.051 95.3539 46.4193 95.3544H47.1845C47.5987 95.355 47.9341 95.6906 47.9343 96.1048V96.2496C47.9343 96.5624 48.1879 96.8159 48.5006 96.8159C48.8133 96.8159 49.0668 96.5624 49.0668 96.2496V96.1048C49.0638 95.139 48.3292 94.3331 47.3681 94.2408Z" fill="#FF9700"/>
<path d="M28.3222 59.9342L26.0978 56.3612C25.6885 55.7037 24.8236 55.5025 24.1661 55.9118L20.5869 58.14C19.9335 58.5468 19.7336 59.4063 20.1404 60.0597C20.5508 60.7189 21.4208 60.9156 22.0748 60.497L22.7285 60.0786C23.6685 59.4769 24.919 59.761 25.5068 60.7098L25.9421 61.4124C26.3502 62.0711 27.2155 62.2734 27.8733 61.8638C28.5302 61.4549 28.7311 60.591 28.3222 59.9342Z" fill="#0074FF"/>
<path d="M78.978 64.5C78.978 74.3234 71.0146 82.2869 61.1912 82.2869C51.3678 82.2869 43.4043 74.3234 43.4043 64.5C43.4043 54.6766 51.3678 46.7131 61.1912 46.7131C71.0146 46.7131 78.978 54.6766 78.978 64.5Z" fill="#FFE000"/>
<path d="M50.2449 64.5001C50.2449 63.7444 50.8574 63.1318 51.6131 63.1318C52.3687 63.1318 52.9813 63.7444 52.9813 64.5001C52.9813 65.2557 52.3687 65.8683 51.6131 65.8683C50.8574 65.8683 50.2449 65.2557 50.2449 64.5001Z" fill="#FF9700"/>
<path d="M69.4004 64.5001C69.4004 63.7444 70.013 63.1318 70.7686 63.1318C71.5243 63.1318 72.1368 63.7444 72.1368 64.5001C72.1368 65.2557 71.5243 65.8683 70.7686 65.8683C70.013 65.8683 69.4004 65.2557 69.4004 64.5001Z" fill="#FF9700"/>
<path d="M62.5595 56.3362V55.4967C62.5595 54.741 61.9469 54.1284 61.1913 54.1284C60.4356 54.1284 59.823 54.741 59.823 55.4967V56.3362C57.6872 56.5379 55.9856 58.2101 55.7451 60.342C55.5046 62.4738 56.7913 64.4827 58.8283 65.1555L62.6884 66.4415C63.5329 66.7208 64.0493 67.5726 63.9077 68.4511C63.7654 69.3296 63.0058 69.9743 62.1159 69.973H60.2666C59.2659 69.9716 58.4555 69.1606 58.4548 68.1598V67.8097C58.4548 67.0541 57.8423 66.4415 57.0866 66.4415C56.331 66.4415 55.7184 67.0541 55.7184 67.8097V68.1598C55.7257 70.4934 57.5008 72.4408 59.823 72.664V73.224C59.823 73.9797 60.4356 74.5922 61.1913 74.5922C61.9469 74.5922 62.5595 73.9797 62.5595 73.224V72.664C64.6953 72.4622 66.3969 70.7907 66.6374 68.6582C66.8779 66.5264 65.5912 64.5175 63.5543 63.8447L59.6941 62.5587C58.8497 62.2794 58.3332 61.4276 58.4749 60.5491C58.6172 59.6706 59.3768 59.0259 60.2666 59.0272H62.1159C63.1167 59.0285 63.927 59.8396 63.9277 60.8404V61.1904C63.9277 61.9461 64.5403 62.5587 65.2959 62.5587C66.0516 62.5587 66.6641 61.9461 66.6641 61.1904V60.8404C66.6568 58.5068 64.8817 56.5593 62.5595 56.3362Z" fill="#FF9700"/>
<path d="M51.669 30.3696C51.669 35.4736 47.5313 39.6113 42.4273 39.6113C37.3232 39.6113 33.1855 35.4736 33.1855 30.3696C33.1855 25.2655 37.3232 21.1278 42.4273 21.1278C47.5313 21.1278 51.669 25.2655 51.669 30.3696Z" fill="#FFE000"/>
<path d="M36.74 30.3696C36.74 29.9769 37.0583 29.6587 37.4509 29.6587C37.8435 29.6587 38.1618 29.9769 38.1618 30.3696C38.1618 30.7622 37.8435 31.0805 37.4509 31.0805C37.0583 31.0805 36.74 30.7622 36.74 30.3696Z" fill="#FF9700"/>
<path d="M46.6926 30.3696C46.6926 29.9769 47.0109 29.6587 47.4035 29.6587C47.7961 29.6587 48.1144 29.9769 48.1144 30.3696C48.1144 30.7622 47.7961 31.0805 47.4035 31.0805C47.0109 31.0805 46.6926 30.7622 46.6926 30.3696Z" fill="#FF9700"/>
<path d="M43.1386 26.1278V25.6916C43.1386 25.299 42.8203 24.9807 42.4277 24.9807C42.0351 24.9807 41.7168 25.299 41.7168 25.6916V26.1278C40.607 26.2326 39.7229 27.1015 39.598 28.2091C39.473 29.3168 40.1416 30.3606 41.1999 30.7101L43.2056 31.3783C43.6443 31.5234 43.9127 31.966 43.8391 32.4225C43.7651 32.8789 43.3705 33.2139 42.9081 33.2132H41.9473C41.4273 33.2125 41.0062 32.7911 41.0059 32.2711V32.0892C41.0059 31.6966 40.6876 31.3783 40.295 31.3783C39.9024 31.3783 39.5841 31.6966 39.5841 32.0892V32.2711C39.5879 33.4836 40.5102 34.4955 41.7168 34.6114V34.9024C41.7168 35.295 42.0351 35.6133 42.4277 35.6133C42.8203 35.6133 43.1386 35.295 43.1386 34.9024V34.6114C44.2483 34.5066 45.1324 33.6381 45.2574 32.5301C45.3824 31.4224 44.7138 30.3786 43.6555 30.0291L41.6498 29.3609C41.211 29.2158 40.9427 28.7732 41.0163 28.3167C41.0902 27.8603 41.4849 27.5253 41.9473 27.526H42.9081C43.4281 27.5267 43.8491 27.9481 43.8495 28.4681V28.65C43.8495 29.0426 44.1678 29.3609 44.5604 29.3609C44.953 29.3609 45.2713 29.0426 45.2713 28.65V28.4681C45.2675 27.2556 44.3452 26.2437 43.1386 26.1278Z" fill="#FF9700"/>
<path d="M34.8031 46.3557C34.8031 49.3389 32.3848 51.7572 29.4016 51.7572C26.4184 51.7572 24 49.3389 24 46.3557C24 43.3725 26.4184 40.9541 29.4016 40.9541C32.3848 40.9541 34.8031 43.3725 34.8031 46.3557Z" fill="#FFE000"/>
<path d="M26.0776 46.3557C26.0776 46.1262 26.2637 45.9402 26.4931 45.9402C26.7226 45.9402 26.9086 46.1262 26.9086 46.3557C26.9086 46.5852 26.7226 46.7712 26.4931 46.7712C26.2637 46.7712 26.0776 46.5852 26.0776 46.3557Z" fill="#FF9700"/>
<path d="M31.8945 46.3557C31.8945 46.1262 32.0806 45.9402 32.31 45.9402C32.5395 45.9402 32.7255 46.1262 32.7255 46.3557C32.7255 46.5852 32.5395 46.7712 32.31 46.7712C32.0806 46.7712 31.8945 46.5852 31.8945 46.3557Z" fill="#FF9700"/>
<path d="M29.8174 43.8764V43.6215C29.8174 43.392 29.6314 43.206 29.4019 43.206C29.1724 43.206 28.9864 43.392 28.9864 43.6215V43.8764C28.3378 43.9377 27.821 44.4455 27.748 45.0929C27.675 45.7403 28.0657 46.3504 28.6843 46.5547L29.8566 46.9453C30.113 47.0301 30.2698 47.2887 30.2268 47.5555C30.1836 47.8223 29.9529 48.0181 29.6827 48.0177H29.1211C28.8172 48.0173 28.5711 47.771 28.5709 47.4671V47.3608C28.5709 47.1313 28.3849 46.9453 28.1554 46.9453C27.9259 46.9453 27.7399 47.1313 27.7399 47.3608V47.4671C27.7421 48.1758 28.2812 48.7672 28.9864 48.8349V49.005C28.9864 49.2345 29.1724 49.4205 29.4019 49.4205C29.6314 49.4205 29.8174 49.2345 29.8174 49.005V48.8349C30.466 48.7737 30.9828 48.266 31.0558 47.6184C31.1289 46.971 30.7381 46.361 30.1195 46.1567L28.9472 45.7661C28.6908 45.6813 28.534 45.4226 28.577 45.1558C28.6202 44.889 28.8509 44.6933 29.1211 44.6937H29.6827C29.9866 44.6941 30.2327 44.9404 30.2329 45.2443V45.3506C30.2329 45.5801 30.4189 45.7661 30.6484 45.7661C30.8779 45.7661 31.0639 45.5801 31.0639 45.3506V45.2443C31.0617 44.5356 30.5226 43.9442 29.8174 43.8764Z" fill="#FF9700"/>
</svg>
