<svg width="120" height="120" viewBox="0 0 120 120" fill="none" xmlns="http://www.w3.org/2000/svg">
<path fill-rule="evenodd" clip-rule="evenodd" d="M46.5344 31.7811H46C43.7909 31.7811 42 33.572 42 35.7811V67.9135H34.4411C32.7387 67.9135 31.8147 69.9048 32.9138 71.2048L58.4727 101.434C59.2717 102.379 60.7283 102.379 61.5273 101.434L87.0862 71.2048C88.1853 69.9048 87.2613 67.9135 85.5589 67.9135H78V35.7811C78 33.572 76.2091 31.7811 74 31.7811H73.2661V34.5159C73.2661 36.3716 71.7618 37.8759 69.9061 37.8759C68.0504 37.8759 66.5461 36.3716 66.5461 34.5159V31.7811H63.2138C63.2442 31.9627 63.26 32.1493 63.26 32.3396V42.9917C63.26 44.8474 61.7557 46.3517 59.9 46.3517C58.0443 46.3517 56.54 44.8474 56.54 42.9917V32.3396C56.54 32.1493 56.5558 31.9627 56.5862 31.7811H53.2544V37.2473C53.2544 39.1029 51.7501 40.6073 49.8944 40.6073C48.0387 40.6073 46.5344 39.1029 46.5344 37.2473V31.7811Z" fill="#0074FF"/>
<path d="M54.4315 66.7018C56.9223 66.7018 58.8692 64.6119 58.8692 62.1211C58.8692 59.6016 56.8937 57.5403 54.4315 57.5403C51.9407 57.5403 49.9939 59.6303 49.9939 62.1211C49.9939 64.6405 51.9694 66.7018 54.4315 66.7018ZM51.855 78.9423C51.4401 79.6015 51.6663 80.4741 52.3491 80.8488C52.9769 81.1932 53.7643 80.9888 54.1452 80.3825L60.9823 69.5012L67.695 58.8178C68.1224 58.1375 67.8611 57.2366 67.136 56.8905C66.5209 56.597 65.7834 56.8106 65.4204 57.3874L58.5735 68.2668L51.855 78.9423ZM54.4315 63.8102C53.4867 63.8102 52.7424 63.0659 52.7424 62.1211C52.7424 61.2622 53.4009 60.4319 54.4315 60.4319C55.4336 60.4319 56.1207 61.1763 56.1207 62.1211C56.1207 62.98 55.5195 63.8102 54.4315 63.8102ZM65.5685 80.1579C68.088 80.1579 70.0062 78.0106 70.0062 75.5771C70.0062 73.1722 68.1452 70.9963 65.5685 70.9963C63.0491 70.9963 61.1023 73.0577 61.1023 75.5771C61.1023 78.0965 63.0491 80.1579 65.5685 80.1579ZM65.5685 77.2663C64.5951 77.2663 63.8507 76.5505 63.8507 75.5771C63.8507 74.6896 64.5092 73.8879 65.5685 73.8879C66.5133 73.8879 67.2577 74.6323 67.2577 75.5771C67.2577 76.5219 66.5133 77.2663 65.5685 77.2663Z" fill="#FFE000"/>
<rect x="58.5" y="26.4554" width="2.8" height="18.3382" rx="1.4" fill="#0074FF"/>
<rect x="48.4944" y="20.6416" width="2.8" height="18.3382" rx="1.4" fill="#0074FF"/>
<rect x="68.5061" y="18.0675" width="2.8" height="18.3382" rx="1.4" fill="#0074FF"/>
</svg>
