<svg width="120" height="120" viewBox="0 0 120 120" fill="none" xmlns="http://www.w3.org/2000/svg">
<path d="M88.3621 62.0753C88.3621 78.015 75.4398 90.9374 59.5 90.9374C43.5603 90.9374 30.6379 78.015 30.6379 62.0753C30.6379 46.1355 43.5603 33.2132 59.5 33.2132C75.4398 33.2132 88.3621 46.1355 88.3621 62.0753Z" fill="#0074FF"/>
<path d="M88.3621 62.0753C88.3621 78.015 75.4398 90.9374 59.5 90.9374C43.5603 90.9374 30.6379 78.015 30.6379 62.0753C30.6379 46.1355 43.5603 33.2132 59.5 33.2132C75.4398 33.2132 88.3621 46.1355 88.3621 62.0753Z" fill="#0074FF"/>
<path d="M54.6897 62.6144C54.6897 74.1266 45.3571 83.4592 33.8448 83.4592C22.3326 83.4592 13 74.1266 13 62.6144C13 51.1021 22.3326 41.7695 33.8448 41.7695C45.3571 41.7695 54.6897 51.1021 54.6897 62.6144Z" fill="#FFE000"/>
<path d="M45.0688 62.3448C45.0688 61.4593 45.7867 60.7414 46.6723 60.7414C47.5579 60.7414 48.2757 61.4593 48.2757 62.3448C48.2757 63.2304 47.5579 63.9483 46.6723 63.9483C45.7867 63.9483 45.0688 63.2304 45.0688 62.3448Z" fill="#FF9700"/>
<path d="M19.4138 62.3448C19.4138 61.4593 20.1317 60.7414 21.0173 60.7414C21.9028 60.7414 22.6207 61.4593 22.6207 62.3448C22.6207 63.2304 21.9028 63.9483 21.0173 63.9483C20.1317 63.9483 19.4138 63.2304 19.4138 62.3448Z" fill="#FF9700"/>
<path d="M33.0489 54.6966C33.3483 53.7753 34.6517 53.7753 34.9511 54.6966L36.2451 58.6794C36.379 59.0914 36.763 59.3703 37.1962 59.3703H41.3839C42.3527 59.3703 42.7554 60.61 41.9717 61.1794L38.5838 63.6409C38.2333 63.8955 38.0866 64.3469 38.2205 64.7589L39.5146 68.7417C39.8139 69.663 38.7595 70.4291 37.9757 69.8597L34.5878 67.3982C34.2373 67.1436 33.7627 67.1436 33.4122 67.3982L30.0243 69.8597C29.2405 70.4291 28.1861 69.663 28.4854 68.7417L29.7795 64.7589C29.9134 64.3469 29.7667 63.8955 29.4162 63.6409L26.0283 61.1794C25.2446 60.61 25.6473 59.3703 26.6161 59.3703H30.8038C31.237 59.3703 31.621 59.0914 31.7549 58.6794L33.0489 54.6966Z" fill="#FF9700"/>
<path d="M106 62.3448C106 73.8571 96.6676 83.1897 85.1554 83.1897C73.6431 83.1897 64.3105 73.8571 64.3105 62.3448C64.3105 50.8326 73.6431 41.5 85.1554 41.5C96.6676 41.5 106 50.8326 106 62.3448Z" fill="#FFE000"/>
<path d="M72.3276 62.3448C72.3276 61.4593 73.0455 60.7414 73.9311 60.7414C74.8166 60.7414 75.5345 61.4593 75.5345 62.3448C75.5345 63.2304 74.8166 63.9483 73.9311 63.9483C73.0455 63.9483 72.3276 63.2304 72.3276 62.3448Z" fill="#FF9700"/>
<path d="M94.7761 62.3448C94.7761 61.4593 95.494 60.7414 96.3796 60.7414C97.2651 60.7414 97.983 61.4593 97.983 62.3448C97.983 63.2304 97.2651 63.9483 96.3796 63.9483C95.494 63.9483 94.7761 63.2304 94.7761 62.3448Z" fill="#FF9700"/>
<path d="M86.7589 52.7774V51.7935C86.7589 50.908 86.041 50.1901 85.1555 50.1901C84.2699 50.1901 83.552 50.908 83.552 51.7935V52.7774C81.049 53.0138 79.0549 54.9735 78.773 57.4719C78.4912 59.9702 79.9991 62.3245 82.3862 63.1129L86.91 64.62C87.8997 64.9473 88.5049 65.9456 88.3389 66.9751C88.1721 68.0047 87.2819 68.7602 86.2391 68.7586H84.0719C82.8991 68.7571 81.9494 67.8066 81.9486 66.6338V66.2235C81.9486 65.3379 81.2307 64.62 80.3451 64.62C79.4596 64.62 78.7417 65.3379 78.7417 66.2235V66.6338C78.7503 69.3685 80.8306 71.6508 83.552 71.9123V72.5686C83.552 73.4542 84.2699 74.1721 85.1555 74.1721C86.041 74.1721 86.7589 73.4542 86.7589 72.5686V71.9123C89.262 71.6758 91.2561 69.7169 91.538 67.2178C91.8198 64.7195 90.3119 62.3652 87.9247 61.5768L83.4009 60.0696C82.4113 59.7424 81.8061 58.7441 81.9721 57.7146C82.1388 56.685 83.029 55.9295 84.0719 55.931H86.2391C87.4119 55.9326 88.3616 56.8831 88.3624 58.0559V58.4662C88.3624 59.3517 89.0803 60.0696 89.9658 60.0696C90.8514 60.0696 91.5693 59.3517 91.5693 58.4662V58.0559C91.5607 55.3211 89.4804 53.0389 86.7589 52.7774Z" fill="#FF9700"/>
<path d="M79.7121 35.4999L84.4917 34.9422C85.3713 34.8396 86.0012 34.0433 85.8985 33.1638L85.3399 28.3759C85.2379 27.5018 84.4467 26.8759 83.5726 26.9778C82.6908 27.0807 82.0631 27.8845 82.177 28.765L82.2789 29.553C82.4492 30.869 81.5094 32.0698 80.1909 32.2207L79.3443 32.3177C78.4641 32.4184 77.8329 33.2146 77.9355 34.0946C78.038 34.9732 78.8334 35.6024 79.7121 35.4999Z" fill="#0074FF"/>
<path d="M83.9726 33.2596C78.2342 27.5965 57.9131 16.6796 37.935 32.5188" stroke="#0074FF" stroke-width="2.8" stroke-linecap="round"/>
<path d="M41.578 90.3496L36.8242 91.0961C35.9494 91.2335 35.3515 92.0541 35.4889 92.9289L36.2367 97.6909C36.3732 98.5603 37.1887 99.1543 38.058 99.0178C38.9351 98.8801 39.5304 98.0521 39.3817 97.1768L39.2487 96.3935C39.0264 95.0852 39.918 93.8481 41.2294 93.6451L42.0715 93.5147C42.947 93.3792 43.5462 92.5586 43.4088 91.6834C43.2715 90.8095 42.4519 90.2123 41.578 90.3496Z" fill="#0074FF"/>
<path d="M37.3901 92.6972C43.3482 98.1286 64.0858 108.232 83.4208 91.614" stroke="#0074FF" stroke-width="2.8" stroke-linecap="round"/>
</svg>
