<svg width="1920" height="594" viewBox="0 0 1920 594" fill="none" xmlns="http://www.w3.org/2000/svg">
<g clip-path="url(#clip0)">
<path d="M1920 -8.00403H-5.0885V477.484C267.528 611.887 625.726 635.432 887.959 518.002C1362 305.724 1732.51 310.971 1920 305.724V-8.00403Z" fill="#050A5A"/>
<path d="M446.984 322.284L442.892 318.221L339.248 215.279C323.224 199.363 297.313 199.363 281.29 215.279L173.554 322.284L66.1599 428.952C50.136 444.867 50.136 470.603 66.16 486.518L106.13 526.442C134.693 536.378 157.354 543.237 209.955 557.688L281.289 486.857C297.313 470.941 323.224 470.941 339.248 486.857L413.913 561.016C429.937 576.931 455.848 576.931 471.872 561.016L550.628 482.793C566.652 466.878 566.652 441.142 550.628 425.227L446.984 322.284Z" fill="url(#paint0_linear)"/>
<path d="M761.885 561.843L686.445 486.691C670.422 470.775 644.511 470.775 628.487 486.691L520.751 593.696C587.13 591.076 668.085 588.455 761.885 561.843Z" fill="url(#paint1_linear)"/>
<path d="M1138 322.284L1133.91 318.221L1030.26 215.279C1014.24 199.363 988.33 199.363 972.306 215.279L864.571 322.284L757.176 428.952C741.153 444.867 741.153 470.603 757.176 486.518L817.607 545.306C864.571 527.249 1070.89 433.846 1214.47 398.233L1138 322.284Z" fill="url(#paint2_linear)"/>
<path d="M1823.29 307.993L1820.09 304.729L1716.45 201.786C1700.42 185.871 1674.51 185.871 1658.49 201.786L1550.75 308.792L1527.91 331.477C1635.54 318.204 1719.77 309.558 1823.29 307.993Z" fill="url(#paint3_linear)"/>
<path d="M1206.97 317.037L1211.06 321.101L1271.98 381.602C1340.29 363.478 1377.51 356.856 1455.36 341.907L1480.4 317.037L1587.8 210.37C1603.82 194.455 1603.82 168.719 1587.8 152.804L1509.04 74.5811C1493.02 58.6657 1467.11 58.6657 1451.08 74.5811L1372.67 152.465C1356.64 168.38 1330.73 168.38 1314.71 152.465L1240.04 78.306C1224.02 62.3906 1198.11 62.3906 1182.08 78.306L1103.33 156.529C1087.3 172.444 1087.3 198.18 1103.33 214.095L1206.97 317.037Z" fill="url(#paint4_linear)"/>
<path d="M518.876 318.854L522.968 322.917L626.612 425.859C642.635 441.775 668.546 441.775 684.57 425.859L792.306 318.854L899.7 212.186C915.724 196.271 915.724 170.535 899.7 154.62L820.944 76.3975C804.92 60.4821 779.009 60.4821 762.985 76.3975L684.57 154.281C668.546 170.197 642.635 170.197 626.612 154.281L551.947 80.1223C535.923 64.2069 510.012 64.2069 493.988 80.1224L415.232 158.345C399.208 174.26 399.208 199.996 415.232 215.911L518.876 318.854Z" fill="url(#paint5_linear)"/>
<path d="M-158.486 318.854L-154.395 322.917L-50.7509 425.859C-34.727 441.775 -8.81598 441.775 7.20793 425.859L114.943 318.854L222.337 212.186C238.361 196.271 238.361 170.535 222.337 154.62L143.582 76.3975C127.558 60.482 101.647 60.4821 85.6228 76.3975L7.20796 154.281C-8.81595 170.197 -34.727 170.197 -50.7509 154.281L-125.416 80.1223C-141.439 64.2069 -167.35 64.2069 -183.374 80.1223L-262.13 158.345C-278.154 174.26 -278.154 199.996 -262.13 215.911L-158.486 318.854Z" fill="url(#paint6_linear)"/>
<path d="M2180.95 306.486L2275.89 212.186C2291.92 196.271 2291.92 170.535 2275.89 154.62L2197.14 76.3975C2181.11 60.4821 2155.2 60.4821 2139.18 76.3975L2060.76 154.281C2044.74 170.197 2018.83 170.197 2002.8 154.281L1928.14 80.1224C1912.11 64.207 1886.2 64.207 1870.18 80.1224L1791.42 158.345C1775.4 174.26 1775.4 199.996 1791.42 215.911L1882.62 306.486C2030.97 297.758 2068.28 299.937 2180.95 306.486Z" fill="url(#paint7_linear)"/>
</g>
<defs>
<linearGradient id="paint0_linear" x1="319.181" y1="655.121" x2="315.321" y2="-98.2065" gradientUnits="userSpaceOnUse">
<stop offset="0.186147" stop-color="#050A5A"/>
<stop offset="1" stop-color="#0812AF"/>
</linearGradient>
<linearGradient id="paint1_linear" x1="666.378" y1="926.533" x2="658.775" y2="122.369" gradientUnits="userSpaceOnUse">
<stop offset="0.434904" stop-color="#050A5A"/>
<stop offset="1" stop-color="#0812AF"/>
</linearGradient>
<linearGradient id="paint2_linear" x1="1010.2" y1="655.121" x2="1006.34" y2="-98.2064" gradientUnits="userSpaceOnUse">
<stop offset="0.186147" stop-color="#050A5A"/>
<stop offset="1" stop-color="#0812AF"/>
</linearGradient>
<linearGradient id="paint3_linear" x1="1696.38" y1="641.627" x2="1694.29" y2="-142.967" gradientUnits="userSpaceOnUse">
<stop offset="0.401779" stop-color="#050A5A"/>
<stop offset="1" stop-color="#0812AF"/>
</linearGradient>
<linearGradient id="paint4_linear" x1="1334.78" y1="-15.7995" x2="1338.64" y2="737.528" gradientUnits="userSpaceOnUse">
<stop offset="0.186147" stop-color="#050A5A"/>
<stop offset="1" stop-color="#0812AF"/>
</linearGradient>
<linearGradient id="paint5_linear" x1="646.679" y1="-13.9831" x2="650.539" y2="739.345" gradientUnits="userSpaceOnUse">
<stop offset="0.186147" stop-color="#050A5A"/>
<stop offset="1" stop-color="#0812AF"/>
</linearGradient>
<linearGradient id="paint6_linear" x1="-30.6833" y1="-13.9831" x2="-26.8234" y2="739.345" gradientUnits="userSpaceOnUse">
<stop offset="0.186147" stop-color="#050A5A"/>
<stop offset="1" stop-color="#0812AF"/>
</linearGradient>
<linearGradient id="paint7_linear" x1="2022.87" y1="-13.9831" x2="2026.73" y2="739.345" gradientUnits="userSpaceOnUse">
<stop offset="0.186147" stop-color="#050A5A"/>
<stop offset="1" stop-color="#0812AF"/>
</linearGradient>
<clipPath id="clip0">
<rect width="1920" height="594" fill="white"/>
</clipPath>
</defs>
</svg>
