<svg width="1920" height="657" viewBox="0 0 1920 657" fill="none" xmlns="http://www.w3.org/2000/svg">
<g clip-path="url(#clip0)">
<path d="M1920 -0.00402832H-5.08862V540.484C267.528 674.887 625.726 698.432 887.959 581.002C1362 368.724 1732.51 373.971 1920 368.724V-0.00402832Z" fill="#050A5A"/>
<path d="M453.084 385.288L448.993 381.225L345.349 278.283C329.325 262.367 303.414 262.367 287.39 278.283L179.655 385.289L72.2606 491.956C56.2367 507.871 56.2368 533.607 72.2607 549.522L112.231 589.446C140.793 599.382 163.454 606.241 216.056 620.692L287.39 549.861C303.414 533.945 329.325 533.945 345.349 549.861L420.014 624.02C436.038 639.935 461.949 639.935 477.972 624.02L556.728 545.797C572.752 529.882 572.752 504.146 556.728 488.231L453.084 385.288Z" fill="url(#paint0_linear)"/>
<path d="M761.885 624.847L686.445 549.695C670.422 533.779 644.511 533.779 628.487 549.695L520.751 656.7C587.13 654.08 668.085 651.459 761.885 624.847Z" fill="url(#paint1_linear)"/>
<path d="M1138 385.288L1133.91 381.225L1030.26 278.283C1014.24 262.367 988.33 262.367 972.306 278.283L864.571 385.289L757.176 491.956C741.153 507.871 741.153 533.607 757.176 549.522L817.607 608.31C864.571 590.253 1070.89 496.85 1214.47 461.237L1138 385.288Z" fill="url(#paint2_linear)"/>
<path d="M1823.29 370.997L1820.09 367.733L1716.45 264.79C1700.42 248.875 1674.51 248.875 1658.49 264.79L1550.75 371.796L1527.91 394.481C1635.54 381.208 1719.77 372.562 1823.29 370.997Z" fill="url(#paint3_linear)"/>
<path d="M1204.05 381.858L1208.14 385.921L1269.06 446.422C1337.37 428.298 1374.59 421.677 1452.44 406.728L1477.48 381.858L1584.88 275.19C1600.9 259.275 1600.9 233.539 1584.88 217.624L1506.12 139.401C1490.1 123.486 1464.18 123.486 1448.16 139.401L1369.75 217.285C1353.72 233.201 1327.81 233.201 1311.79 217.285L1237.12 143.126C1221.1 127.211 1195.19 127.211 1179.16 143.126L1100.41 221.349C1084.38 237.264 1084.38 263 1100.41 278.915L1204.05 381.858Z" fill="url(#paint4_linear)"/>
<path d="M518.876 381.858L522.968 385.921L626.612 488.863C642.635 504.779 668.546 504.779 684.57 488.863L792.306 381.858L899.7 275.19C915.724 259.275 915.724 233.539 899.7 217.624L820.944 139.401C804.92 123.486 779.009 123.486 762.985 139.402L684.57 217.285C668.546 233.201 642.635 233.201 626.612 217.285L551.947 143.126C535.923 127.211 510.012 127.211 493.988 143.126L415.232 221.349C399.208 237.264 399.208 263 415.232 278.915L518.876 381.858Z" fill="url(#paint5_linear)"/>
<path d="M-158.486 381.858L-154.395 385.921L-50.7509 488.863C-34.727 504.779 -8.81598 504.779 7.20793 488.863L114.943 381.858L222.337 275.19C238.361 259.275 238.361 233.539 222.337 217.624L143.582 139.401C127.558 123.486 101.647 123.486 85.6228 139.401L7.20796 217.285C-8.81595 233.201 -34.727 233.201 -50.7509 217.285L-125.416 143.126C-141.439 127.211 -167.35 127.211 -183.374 143.126L-262.13 221.349C-278.154 237.264 -278.154 263 -262.13 278.915L-158.486 381.858Z" fill="url(#paint6_linear)"/>
<path d="M2180.95 369.49L2275.89 275.19C2291.92 259.275 2291.92 233.539 2275.89 217.624L2197.14 139.402C2181.11 123.486 2155.2 123.486 2139.18 139.402L2060.76 217.285C2044.74 233.201 2018.83 233.201 2002.8 217.285L1928.14 143.126C1912.11 127.211 1886.2 127.211 1870.18 143.126L1791.42 221.349C1775.4 237.264 1775.4 263 1791.42 278.915L1882.62 369.49C2030.97 360.762 2068.28 362.941 2180.95 369.49Z" fill="url(#paint7_linear)"/>
</g>
<defs>
<linearGradient id="paint0_linear" x1="325.281" y1="718.125" x2="321.422" y2="-35.2025" gradientUnits="userSpaceOnUse">
<stop offset="0.186147" stop-color="#050A5A"/>
<stop offset="1" stop-color="#0812AF"/>
</linearGradient>
<linearGradient id="paint1_linear" x1="666.378" y1="989.537" x2="658.775" y2="185.373" gradientUnits="userSpaceOnUse">
<stop offset="0.434904" stop-color="#050A5A"/>
<stop offset="1" stop-color="#0812AF"/>
</linearGradient>
<linearGradient id="paint2_linear" x1="1010.2" y1="718.125" x2="1006.34" y2="-35.2024" gradientUnits="userSpaceOnUse">
<stop offset="0.186147" stop-color="#050A5A"/>
<stop offset="1" stop-color="#0812AF"/>
</linearGradient>
<linearGradient id="paint3_linear" x1="1696.38" y1="704.631" x2="1694.29" y2="-79.9625" gradientUnits="userSpaceOnUse">
<stop offset="0.401779" stop-color="#050A5A"/>
<stop offset="1" stop-color="#0812AF"/>
</linearGradient>
<linearGradient id="paint4_linear" x1="1331.86" y1="49.0209" x2="1335.71" y2="802.349" gradientUnits="userSpaceOnUse">
<stop offset="0.186147" stop-color="#050A5A"/>
<stop offset="1" stop-color="#0812AF"/>
</linearGradient>
<linearGradient id="paint5_linear" x1="646.679" y1="49.021" x2="650.539" y2="802.349" gradientUnits="userSpaceOnUse">
<stop offset="0.186147" stop-color="#050A5A"/>
<stop offset="1" stop-color="#0812AF"/>
</linearGradient>
<linearGradient id="paint6_linear" x1="-30.6833" y1="49.021" x2="-26.8234" y2="802.349" gradientUnits="userSpaceOnUse">
<stop offset="0.186147" stop-color="#050A5A"/>
<stop offset="1" stop-color="#0812AF"/>
</linearGradient>
<linearGradient id="paint7_linear" x1="2022.87" y1="49.021" x2="2026.73" y2="802.349" gradientUnits="userSpaceOnUse">
<stop offset="0.186147" stop-color="#050A5A"/>
<stop offset="1" stop-color="#0812AF"/>
</linearGradient>
<clipPath id="clip0">
<rect width="1920" height="657" fill="white"/>
</clipPath>
</defs>
</svg>
