<svg width="375" height="504" viewBox="0 0 375 504" fill="none" xmlns="http://www.w3.org/2000/svg">
<path d="M375 -59.1489H-0.686523V456.192C-0.686523 456.192 73.2283 503.274 188.503 503.274C303.777 503.274 375 432.483 375 432.483L375 -59.1489Z" fill="#050A5A"/>
<path d="M191.443 306.675L187.731 302.989L93.7063 209.6C79.1696 195.162 55.6634 195.162 41.1267 209.6L0.399871 250.051L0.399861 455.973L28.4333 470.208L41.1267 455.973C55.6634 441.535 79.1696 441.535 93.7063 455.973L134.131 499.803C148.619 501.742 190.089 507.264 240.327 498.56L285.468 452.287C300.004 437.848 300.004 414.501 285.468 400.063L191.443 306.675Z" fill="url(#paint0_linear)"/>
<path d="M249.854 303.268L253.565 306.954L347.59 400.342C355.059 407.761 364.896 411.368 374.668 411.163L375.368 164.769C365.367 165.165 355.237 161.565 347.59 153.969L279.855 86.6931C265.318 72.2547 241.812 72.2548 227.275 86.6931L155.829 157.656C141.292 172.094 141.292 195.441 155.829 209.879L249.854 303.268Z" fill="url(#paint1_linear)"/>
<defs>
<linearGradient id="paint0_linear" x1="75.5011" y1="608.621" x2="71.9995" y2="-74.7903" gradientUnits="userSpaceOnUse">
<stop offset="0.186147" stop-color="#050A5A"/>
<stop offset="1" stop-color="#0812AF"/>
</linearGradient>
<linearGradient id="paint1_linear" x1="365.795" y1="1.32145" x2="372.06" y2="745.37" gradientUnits="userSpaceOnUse">
<stop offset="0.109763" stop-color="#050A5A"/>
<stop offset="0.992277" stop-color="#0812AF"/>
</linearGradient>
</defs>
</svg>
