<svg width="1488" height="750" viewBox="0 0 1488 750" fill="none" xmlns="http://www.w3.org/2000/svg">
<path d="M1377.53 51.5793L1377.35 53.1411L1372.78 92.7075C1372.08 98.8247 1376.46 104.341 1382.59 105.046L1423.78 109.788L1464.84 114.515C1470.97 115.22 1476.5 110.844 1477.2 104.727L1480.67 74.6619C1481.38 68.5447 1476.99 63.0287 1470.87 62.3234L1440.88 58.8721C1434.76 58.1668 1430.37 52.6508 1431.08 46.5337L1434.37 18.0303C1435.07 11.9131 1430.69 6.39708 1424.56 5.69181L1394.45 2.22549C1388.32 1.52022 1382.8 5.8958 1382.09 12.013L1377.53 51.5793Z" fill="#00DAFF"/>
<path d="M251.215 733.089L190.573 661.419C183.13 652.622 184.253 639.254 193.06 631.819L264.811 571.245C273.618 563.81 287.001 564.932 294.444 573.729L355.086 645.4C362.53 654.197 361.407 667.564 352.6 674.999L280.848 735.573C271.782 743.227 258.658 741.886 251.215 733.089Z" fill="#00FFB9"/>
<path d="M52.6196 684.883C81.3384 684.883 104.62 661.628 104.62 632.941C104.62 604.255 81.3384 581 52.6196 581C23.9008 581 0.619629 604.255 0.619629 632.941C0.619629 661.628 23.9008 684.883 52.6196 684.883Z" fill="#9100FF"/>
</svg>
